<ttFont>
    <TTGlyph name="A" xMin="43" yMin="0" xMax="1399" yMax="1366">
      <contour>
        <pt x="43" y="0" on="1"/>
        <pt x="586" y="1366" on="1"/>
        <pt x="856" y="1366" on="1"/>
        <pt x="1399" y="0" on="1"/>
        <pt x="1135" y="0" on="1"/>
        <pt x="1010" y="328" on="1"/>
        <pt x="432" y="328" on="1"/>
        <pt x="307" y="0" on="1"/>
      </contour>
      <contour>
        <pt x="516" y="551" on="1"/>
        <pt x="924" y="551" on="1"/>
        <pt x="721" y="1087" on="1"/>
      </contour>
    </TTGlyph>
    <TTGlyph name="AE" xMin="51" yMin="0" xMax="1917" yMax="1366">
      <contour>
        <pt x="51" y="0" on="1"/>
        <pt x="915" y="1366" on="1"/>
        <pt x="1917" y="1366" on="1"/>
        <pt x="1917" y="1145" on="1"/>
        <pt x="1253" y="1145" on="1"/>
        <pt x="1253" y="799" on="1"/>
        <pt x="1829" y="799" on="1"/>
        <pt x="1829" y="567" on="1"/>
        <pt x="1253" y="567" on="1"/>
        <pt x="1253" y="221" on="1"/>
        <pt x="1917" y="221" on="1"/>
        <pt x="1917" y="0" on="1"/>
        <pt x="1008" y="0" on="1"/>
        <pt x="1008" y="307" on="1"/>
        <pt x="530" y="307" on="1"/>
        <pt x="342" y="0" on="1"/>
      </contour>
      <contour>
        <pt x="655" y="512" on="1"/>
        <pt x="1008" y="512" on="1"/>
        <pt x="1008" y="1090" on="1"/>
      </contour>
    </TTGlyph>
    <TTGlyph name="Aacute" xMin="43" yMin="0" xMax="1399" yMax="1722">
      <contour>
        <pt x="43" y="0" on="1"/>
        <pt x="586" y="1366" on="1"/>
        <pt x="856" y="1366" on="1"/>
        <pt x="1399" y="0" on="1"/>
        <pt x="1135" y="0" on="1"/>
        <pt x="1010" y="328" on="1"/>
        <pt x="432" y="328" on="1"/>
        <pt x="307" y="0" on="1"/>
      </contour>
      <contour>
        <pt x="516" y="551" on="1"/>
        <pt x="924" y="551" on="1"/>
        <pt x="721" y="1087" on="1"/>
      </contour>
      <contour>
        <pt x="655" y="1483" on="1"/>
        <pt x="782" y="1722" on="1"/>
        <pt x="983" y="1722" on="1"/>
        <pt x="793" y="1483" on="1"/>
      </contour>
    </TTGlyph>
    <TTGlyph name="Acircumflex" xMin="43" yMin="0" xMax="1399" yMax="1733">
      <contour>
        <pt x="43" y="0" on="1"/>
        <pt x="586" y="1366" on="1"/>
        <pt x="856" y="1366" on="1"/>
        <pt x="1399" y="0" on="1"/>
        <pt x="1135" y="0" on="1"/>
        <pt x="1010" y="328" on="1"/>
        <pt x="432" y="328" on="1"/>
        <pt x="307" y="0" on="1"/>
      </contour>
      <contour>
        <pt x="485" y="1483" on="1"/>
        <pt x="672" y="1733" on="1"/>
        <pt x="770" y="1733" on="1"/>
        <pt x="958" y="1483" on="1"/>
        <pt x="795" y="1483" on="1"/>
        <pt x="721" y="1597" on="1"/>
        <pt x="647" y="1483" on="1"/>
      </contour>
      <contour>
        <pt x="516" y="551" on="1"/>
        <pt x="924" y="551" on="1"/>
        <pt x="721" y="1087" on="1"/>
      </contour>
    </TTGlyph>
    <TTGlyph name="Adieresis" xMin="43" yMin="0" xMax="1399" yMax="1677">
      <contour>
        <pt x="43" y="0" on="1"/>
        <pt x="586" y="1366" on="1"/>
        <pt x="856" y="1366" on="1"/>
        <pt x="1399" y="0" on="1"/>
        <pt x="1135" y="0" on="1"/>
        <pt x="1010" y="328" on="1"/>
        <pt x="432" y="328" on="1"/>
        <pt x="307" y="0" on="1"/>
      </contour>
      <contour>
        <pt x="455" y="1483" on="1"/>
        <pt x="455" y="1677" on="1"/>
        <pt x="662" y="1677" on="1"/>
        <pt x="662" y="1483" on="1"/>
      </contour>
      <contour>
        <pt x="516" y="551" on="1"/>
        <pt x="924" y="551" on="1"/>
        <pt x="721" y="1087" on="1"/>
      </contour>
      <contour>
        <pt x="782" y="1483" on="1"/>
        <pt x="782" y="1677" on="1"/>
        <pt x="989" y="1677" on="1"/>
        <pt x="989" y="1483" on="1"/>
      </contour>
    </TTGlyph>
    <TTGlyph name="Agrave" xMin="43" yMin="0" xMax="1399" yMax="1722">
      <contour>
        <pt x="43" y="0" on="1"/>
        <pt x="586" y="1366" on="1"/>
        <pt x="856" y="1366" on="1"/>
        <pt x="1399" y="0" on="1"/>
        <pt x="1135" y="0" on="1"/>
        <pt x="1010" y="328" on="1"/>
        <pt x="432" y="328" on="1"/>
        <pt x="307" y="0" on="1"/>
      </contour>
      <contour>
        <pt x="459" y="1722" on="1"/>
        <pt x="659" y="1722" on="1"/>
        <pt x="786" y="1483" on="1"/>
        <pt x="649" y="1483" on="1"/>
      </contour>
      <contour>
        <pt x="516" y="551" on="1"/>
        <pt x="924" y="551" on="1"/>
        <pt x="721" y="1087" on="1"/>
      </contour>
    </TTGlyph>
    <TTGlyph name="Aring" xMin="43" yMin="0" xMax="1399" yMax="1776">
      <contour>
        <pt x="43" y="0" on="1"/>
        <pt x="586" y="1366" on="1"/>
        <pt x="856" y="1366" on="1"/>
        <pt x="1399" y="0" on="1"/>
        <pt x="1135" y="0" on="1"/>
        <pt x="1010" y="328" on="1"/>
        <pt x="432" y="328" on="1"/>
        <pt x="307" y="0" on="1"/>
      </contour>
      <contour>
        <pt x="516" y="551" on="1"/>
        <pt x="924" y="551" on="1"/>
        <pt x="721" y="1087" on="1"/>
      </contour>
      <contour>
        <pt x="543" y="1516" on="0"/>
        <pt x="543" y="1683" on="0"/>
        <pt x="637" y="1776" on="0"/>
        <pt x="721" y="1776" on="1"/>
        <pt x="807" y="1776" on="0"/>
        <pt x="899" y="1683" on="0"/>
        <pt x="899" y="1516" on="0"/>
        <pt x="807" y="1423" on="0"/>
        <pt x="721" y="1423" on="1"/>
        <pt x="637" y="1423" on="0"/>
      </contour>
      <contour>
        <pt x="651" y="1649" on="0"/>
        <pt x="651" y="1550" on="0"/>
        <pt x="682" y="1511" on="0"/>
        <pt x="760" y="1511" on="0"/>
        <pt x="791" y="1550" on="0"/>
        <pt x="791" y="1649" on="0"/>
        <pt x="760" y="1688" on="0"/>
        <pt x="682" y="1688" on="0"/>
      </contour>
    </TTGlyph>
    <TTGlyph name="Atilde" xMin="43" yMin="0" xMax="1399" yMax="1711">
      <contour>
        <pt x="43" y="0" on="1"/>
        <pt x="586" y="1366" on="1"/>
        <pt x="856" y="1366" on="1"/>
        <pt x="1399" y="0" on="1"/>
        <pt x="1135" y="0" on="1"/>
        <pt x="1010" y="328" on="1"/>
        <pt x="432" y="328" on="1"/>
        <pt x="307" y="0" on="1"/>
      </contour>
      <contour>
        <pt x="410" y="1481" on="1"/>
        <pt x="410" y="1636" on="1"/>
        <pt x="467" y="1704" on="0"/>
        <pt x="534" y="1710" on="1"/>
        <pt x="544" y="1711" on="0"/>
        <pt x="555" y="1711" on="1"/>
        <pt x="610" y="1711" on="0"/>
        <pt x="660" y="1686" on="1"/>
        <pt x="782" y="1625" on="1"/>
        <pt x="833" y="1600" on="0"/>
        <pt x="886" y="1600" on="1"/>
        <pt x="898" y="1600" on="0"/>
        <pt x="910" y="1602" on="1"/>
        <pt x="975" y="1608" on="0"/>
        <pt x="1032" y="1675" on="1"/>
        <pt x="1032" y="1520" on="1"/>
        <pt x="975" y="1452" on="0"/>
        <pt x="910" y="1446" on="1"/>
        <pt x="898" y="1445" on="0"/>
        <pt x="887" y="1445" on="1"/>
        <pt x="834" y="1445" on="0"/>
        <pt x="782" y="1470" on="1"/>
        <pt x="660" y="1530" on="1"/>
        <pt x="610" y="1556" on="0"/>
        <pt x="556" y="1556" on="1"/>
        <pt x="545" y="1556" on="0"/>
        <pt x="534" y="1554" on="1"/>
        <pt x="467" y="1548" on="0"/>
      </contour>
      <contour>
        <pt x="516" y="551" on="1"/>
        <pt x="924" y="551" on="1"/>
        <pt x="721" y="1087" on="1"/>
      </contour>
    </TTGlyph>
    <TTGlyph name="B" xMin="178" yMin="0" xMax="1219" yMax="1366">
      <contour>
        <pt x="178" y="0" on="1"/>
        <pt x="178" y="1366" on="1"/>
        <pt x="670" y="1366" on="1"/>
        <pt x="764" y="1366" on="0"/>
        <pt x="924" y="1327" on="0"/>
        <pt x="1063" y="1243" on="0"/>
        <pt x="1143" y="1087" on="0"/>
        <pt x="1143" y="981" on="1"/>
        <pt x="1143" y="801" on="0"/>
        <pt x="981" y="717" on="1"/>
        <pt x="1219" y="631" on="0"/>
        <pt x="1219" y="401" on="1"/>
        <pt x="1219" y="346" on="0"/>
        <pt x="1200" y="250" on="0"/>
        <pt x="1135" y="135" on="0"/>
        <pt x="1030" y="55" on="0"/>
        <pt x="844" y="0" on="0"/>
        <pt x="719" y="0" on="1"/>
      </contour>
      <contour>
        <pt x="424" y="215" on="1"/>
        <pt x="707" y="215" on="1"/>
        <pt x="973" y="215" on="0"/>
        <pt x="973" y="414" on="1"/>
        <pt x="973" y="592" on="0"/>
        <pt x="698" y="592" on="1"/>
        <pt x="424" y="592" on="1"/>
      </contour>
      <contour>
        <pt x="424" y="809" on="1"/>
        <pt x="684" y="809" on="1"/>
        <pt x="897" y="809" on="0"/>
        <pt x="897" y="973" on="1"/>
        <pt x="897" y="1153" on="0"/>
        <pt x="666" y="1153" on="1"/>
        <pt x="424" y="1153" on="1"/>
      </contour>
    </TTGlyph>
    <TTGlyph name="C" xMin="125" yMin="-16" xMax="1176" yMax="1384">
      <contour>
        <pt x="125" y="516" on="0"/>
        <pt x="125" y="852" on="0"/>
        <pt x="203" y="1106" on="0"/>
        <pt x="326" y="1257" on="0"/>
        <pt x="500" y="1352" on="0"/>
        <pt x="666" y="1384" on="0"/>
        <pt x="762" y="1384" on="1"/>
        <pt x="971" y="1384" on="0"/>
        <pt x="1176" y="1303" on="1"/>
        <pt x="1176" y="1073" on="1"/>
        <pt x="981" y="1163" on="0"/>
        <pt x="784" y="1163" on="1"/>
        <pt x="692" y="1163" on="0"/>
        <pt x="561" y="1130" on="0"/>
        <pt x="436" y="1036" on="0"/>
        <pt x="371" y="836" on="0"/>
        <pt x="371" y="532" on="0"/>
        <pt x="436" y="332" on="0"/>
        <pt x="561" y="238" on="0"/>
        <pt x="692" y="205" on="0"/>
        <pt x="784" y="205" on="1"/>
        <pt x="981" y="205" on="0"/>
        <pt x="1176" y="295" on="1"/>
        <pt x="1176" y="66" on="1"/>
        <pt x="971" y="-16" on="0"/>
        <pt x="762" y="-16" on="1"/>
        <pt x="666" y="-16" on="0"/>
        <pt x="500" y="16" on="0"/>
        <pt x="326" y="111" on="0"/>
        <pt x="203" y="262" on="0"/>
      </contour>
    </TTGlyph>
    <TTGlyph name="Ccedilla" xMin="125" yMin="-256" xMax="1174" yMax="1384">
      <contour>
        <pt x="125" y="684" on="1"/>
        <pt x="125" y="852" on="0"/>
        <pt x="203" y="1106" on="0"/>
        <pt x="326" y="1257" on="0"/>
        <pt x="500" y="1352" on="0"/>
        <pt x="666" y="1384" on="0"/>
        <pt x="762" y="1384" on="1"/>
        <pt x="973" y="1384" on="0"/>
        <pt x="1174" y="1303" on="1"/>
        <pt x="1174" y="1073" on="1"/>
        <pt x="983" y="1163" on="0"/>
        <pt x="784" y="1163" on="1"/>
        <pt x="692" y="1163" on="0"/>
        <pt x="561" y="1130" on="0"/>
        <pt x="436" y="1036" on="0"/>
        <pt x="371" y="836" on="0"/>
        <pt x="371" y="532" on="0"/>
        <pt x="436" y="332" on="0"/>
        <pt x="561" y="238" on="0"/>
        <pt x="692" y="205" on="0"/>
        <pt x="784" y="205" on="1"/>
        <pt x="983" y="205" on="0"/>
        <pt x="1174" y="295" on="1"/>
        <pt x="1174" y="66" on="1"/>
        <pt x="1004" y="-6" on="0"/>
        <pt x="825" y="-14" on="1"/>
        <pt x="702" y="-256" on="1"/>
        <pt x="489" y="-256" on="1"/>
        <pt x="666" y="-12" on="1"/>
        <pt x="557" y="0" on="0"/>
        <pt x="379" y="76" on="0"/>
        <pt x="215" y="227" on="0"/>
        <pt x="125" y="500" on="0"/>
      </contour>
    </TTGlyph>
    <TTGlyph name="D" xMin="178" yMin="0" xMax="1294" yMax="1366">
      <contour>
        <pt x="178" y="0" on="1"/>
        <pt x="178" y="1366" on="1"/>
        <pt x="649" y="1366" on="1"/>
        <pt x="966" y="1366" on="0"/>
        <pt x="1294" y="1018" on="0"/>
        <pt x="1294" y="682" on="1"/>
        <pt x="1294" y="348" on="0"/>
        <pt x="967" y="0" on="0"/>
        <pt x="649" y="0" on="1"/>
      </contour>
      <contour>
        <pt x="424" y="223" on="1"/>
        <pt x="649" y="223" on="1"/>
        <pt x="862" y="223" on="0"/>
        <pt x="1049" y="438" on="0"/>
        <pt x="1049" y="682" on="1"/>
        <pt x="1049" y="928" on="0"/>
        <pt x="862" y="1143" on="0"/>
        <pt x="649" y="1143" on="1"/>
        <pt x="424" y="1143" on="1"/>
      </contour>
    </TTGlyph>
    <TTGlyph name="E" xMin="178" yMin="0" xMax="1087" yMax="1366">
      <contour>
        <pt x="178" y="0" on="1"/>
        <pt x="178" y="1366" on="1"/>
        <pt x="1087" y="1366" on="1"/>
        <pt x="1087" y="1145" on="1"/>
        <pt x="424" y="1145" on="1"/>
        <pt x="424" y="799" on="1"/>
        <pt x="999" y="799" on="1"/>
        <pt x="999" y="567" on="1"/>
        <pt x="424" y="567" on="1"/>
        <pt x="424" y="221" on="1"/>
        <pt x="1087" y="221" on="1"/>
        <pt x="1087" y="0" on="1"/>
      </contour>
    </TTGlyph>
    <TTGlyph name="Eacute" xMin="178" yMin="0" xMax="1087" yMax="1722">
      <contour>
        <pt x="178" y="0" on="1"/>
        <pt x="178" y="1366" on="1"/>
        <pt x="1087" y="1366" on="1"/>
        <pt x="1087" y="1145" on="1"/>
        <pt x="424" y="1145" on="1"/>
        <pt x="424" y="799" on="1"/>
        <pt x="999" y="799" on="1"/>
        <pt x="999" y="567" on="1"/>
        <pt x="424" y="567" on="1"/>
        <pt x="424" y="221" on="1"/>
        <pt x="1087" y="221" on="1"/>
        <pt x="1087" y="0" on="1"/>
      </contour>
      <contour>
        <pt x="555" y="1483" on="1"/>
        <pt x="682" y="1722" on="1"/>
        <pt x="883" y="1722" on="1"/>
        <pt x="692" y="1483" on="1"/>
      </contour>
    </TTGlyph>
    <TTGlyph name="Ecircumflex" xMin="178" yMin="0" xMax="1087" yMax="1733">
      <contour>
        <pt x="178" y="0" on="1"/>
        <pt x="178" y="1366" on="1"/>
        <pt x="1087" y="1366" on="1"/>
        <pt x="1087" y="1145" on="1"/>
        <pt x="424" y="1145" on="1"/>
        <pt x="424" y="799" on="1"/>
        <pt x="999" y="799" on="1"/>
        <pt x="999" y="567" on="1"/>
        <pt x="424" y="567" on="1"/>
        <pt x="424" y="221" on="1"/>
        <pt x="1087" y="221" on="1"/>
        <pt x="1087" y="0" on="1"/>
      </contour>
      <contour>
        <pt x="414" y="1483" on="1"/>
        <pt x="600" y="1733" on="1"/>
        <pt x="698" y="1733" on="1"/>
        <pt x="887" y="1483" on="1"/>
        <pt x="723" y="1483" on="1"/>
        <pt x="649" y="1597" on="1"/>
        <pt x="575" y="1483" on="1"/>
      </contour>
    </TTGlyph>
    <TTGlyph name="Edieresis" xMin="178" yMin="0" xMax="1087" yMax="1677">
      <contour>
        <pt x="178" y="0" on="1"/>
        <pt x="178" y="1366" on="1"/>
        <pt x="1087" y="1366" on="1"/>
        <pt x="1087" y="1145" on="1"/>
        <pt x="424" y="1145" on="1"/>
        <pt x="424" y="799" on="1"/>
        <pt x="999" y="799" on="1"/>
        <pt x="999" y="567" on="1"/>
        <pt x="424" y="567" on="1"/>
        <pt x="424" y="221" on="1"/>
        <pt x="1087" y="221" on="1"/>
        <pt x="1087" y="0" on="1"/>
      </contour>
      <contour>
        <pt x="389" y="1483" on="1"/>
        <pt x="389" y="1677" on="1"/>
        <pt x="596" y="1677" on="1"/>
        <pt x="596" y="1483" on="1"/>
      </contour>
      <contour>
        <pt x="717" y="1483" on="1"/>
        <pt x="717" y="1677" on="1"/>
        <pt x="924" y="1677" on="1"/>
        <pt x="924" y="1483" on="1"/>
      </contour>
    </TTGlyph>
    <TTGlyph name="Egrave" xMin="178" yMin="0" xMax="1087" yMax="1722">
      <contour>
        <pt x="178" y="0" on="1"/>
        <pt x="178" y="1366" on="1"/>
        <pt x="1087" y="1366" on="1"/>
        <pt x="1087" y="1145" on="1"/>
        <pt x="424" y="1145" on="1"/>
        <pt x="424" y="799" on="1"/>
        <pt x="999" y="799" on="1"/>
        <pt x="999" y="567" on="1"/>
        <pt x="424" y="567" on="1"/>
        <pt x="424" y="221" on="1"/>
        <pt x="1087" y="221" on="1"/>
        <pt x="1087" y="0" on="1"/>
      </contour>
      <contour>
        <pt x="397" y="1722" on="1"/>
        <pt x="598" y="1722" on="1"/>
        <pt x="725" y="1483" on="1"/>
        <pt x="588" y="1483" on="1"/>
      </contour>
    </TTGlyph>
    <TTGlyph name="Eth" xMin="106" yMin="0" xMax="1384" yMax="1366">
      <contour>
        <pt x="106" y="598" on="1"/>
        <pt x="106" y="766" on="1"/>
        <pt x="268" y="766" on="1"/>
        <pt x="268" y="1366" on="1"/>
        <pt x="739" y="1366" on="1"/>
        <pt x="1056" y="1366" on="0"/>
        <pt x="1384" y="1018" on="0"/>
        <pt x="1384" y="682" on="1"/>
        <pt x="1384" y="348" on="0"/>
        <pt x="1057" y="0" on="0"/>
        <pt x="739" y="0" on="1"/>
        <pt x="268" y="0" on="1"/>
        <pt x="268" y="598" on="1"/>
      </contour>
      <contour>
        <pt x="514" y="223" on="1"/>
        <pt x="739" y="223" on="1"/>
        <pt x="952" y="223" on="0"/>
        <pt x="1139" y="438" on="0"/>
        <pt x="1139" y="682" on="1"/>
        <pt x="1139" y="928" on="0"/>
        <pt x="952" y="1143" on="0"/>
        <pt x="739" y="1143" on="1"/>
        <pt x="514" y="1143" on="1"/>
        <pt x="514" y="766" on="1"/>
        <pt x="756" y="766" on="1"/>
        <pt x="756" y="598" on="1"/>
        <pt x="514" y="598" on="1"/>
      </contour>
    </TTGlyph>
    <TTGlyph name="Euro" xMin="102" yMin="-16" xMax="1311" yMax="1384">
      <contour>
        <pt x="102" y="412" on="1"/>
        <pt x="102" y="590" on="1"/>
        <pt x="264" y="590" on="1"/>
        <pt x="260" y="647" on="0"/>
        <pt x="260" y="721" on="0"/>
        <pt x="264" y="778" on="1"/>
        <pt x="102" y="778" on="1"/>
        <pt x="102" y="956" on="1"/>
        <pt x="293" y="956" on="1"/>
        <pt x="408" y="1384" on="0"/>
        <pt x="897" y="1384" on="1"/>
        <pt x="1106" y="1384" on="0"/>
        <pt x="1311" y="1303" on="1"/>
        <pt x="1311" y="1073" on="1"/>
        <pt x="1117" y="1163" on="0"/>
        <pt x="920" y="1163" on="1"/>
        <pt x="783" y="1163" on="0"/>
        <pt x="594" y="1077" on="0"/>
        <pt x="547" y="956" on="1"/>
        <pt x="1077" y="956" on="1"/>
        <pt x="1077" y="778" on="1"/>
        <pt x="510" y="778" on="1"/>
        <pt x="506" y="721" on="0"/>
        <pt x="506" y="647" on="0"/>
        <pt x="510" y="590" on="1"/>
        <pt x="1077" y="590" on="1"/>
        <pt x="1077" y="412" on="1"/>
        <pt x="547" y="412" on="1"/>
        <pt x="594" y="291" on="0"/>
        <pt x="782" y="205" on="0"/>
        <pt x="920" y="205" on="1"/>
        <pt x="1117" y="205" on="0"/>
        <pt x="1311" y="295" on="1"/>
        <pt x="1311" y="66" on="1"/>
        <pt x="1106" y="-16" on="0"/>
        <pt x="897" y="-16" on="1"/>
        <pt x="405" y="-16" on="0"/>
        <pt x="293" y="412" on="1"/>
      </contour>
    </TTGlyph>
    <TTGlyph name="F" xMin="178" yMin="0" xMax="1061" yMax="1366">
      <contour>
        <pt x="178" y="0" on="1"/>
        <pt x="178" y="1366" on="1"/>
        <pt x="1061" y="1366" on="1"/>
        <pt x="1061" y="1145" on="1"/>
        <pt x="424" y="1145" on="1"/>
        <pt x="424" y="799" on="1"/>
        <pt x="975" y="799" on="1"/>
        <pt x="975" y="567" on="1"/>
        <pt x="424" y="567" on="1"/>
        <pt x="424" y="0" on="1"/>
      </contour>
    </TTGlyph>
    <TTGlyph name="G" xMin="125" yMin="-16" xMax="1255" yMax="1382">
      <contour>
        <pt x="125" y="682" on="1"/>
        <pt x="125" y="850" on="0"/>
        <pt x="203" y="1104" on="0"/>
        <pt x="326" y="1255" on="0"/>
        <pt x="500" y="1350" on="0"/>
        <pt x="666" y="1382" on="0"/>
        <pt x="762" y="1382" on="1"/>
        <pt x="979" y="1382" on="0"/>
        <pt x="1212" y="1290" on="1"/>
        <pt x="1212" y="1065" on="1"/>
        <pt x="991" y="1163" on="0"/>
        <pt x="786" y="1163" on="1"/>
        <pt x="714" y="1163" on="0"/>
        <pt x="604" y="1145" on="0"/>
        <pt x="492" y="1085" on="0"/>
        <pt x="418" y="983" on="0"/>
        <pt x="371" y="805" on="0"/>
        <pt x="371" y="684" on="1"/>
        <pt x="371" y="561" on="0"/>
        <pt x="418" y="383" on="0"/>
        <pt x="492" y="281" on="0"/>
        <pt x="604" y="221" on="0"/>
        <pt x="715" y="203" on="0"/>
        <pt x="786" y="203" on="1"/>
        <pt x="899" y="203" on="0"/>
        <pt x="1028" y="238" on="1"/>
        <pt x="1028" y="565" on="1"/>
        <pt x="707" y="565" on="1"/>
        <pt x="707" y="782" on="1"/>
        <pt x="1255" y="782" on="1"/>
        <pt x="1255" y="100" on="1"/>
        <pt x="1017" y="-16" on="0"/>
        <pt x="766" y="-16" on="1"/>
        <pt x="764" y="-16" on="0"/>
        <pt x="762" y="-16" on="1"/>
        <pt x="666" y="-16" on="0"/>
        <pt x="500" y="16" on="0"/>
        <pt x="326" y="111" on="0"/>
        <pt x="203" y="260" on="0"/>
        <pt x="125" y="516" on="0"/>
      </contour>
    </TTGlyph>
    <TTGlyph name="H" xMin="178" yMin="0" xMax="1249" yMax="1366">
      <contour>
        <pt x="178" y="0" on="1"/>
        <pt x="178" y="1366" on="1"/>
        <pt x="424" y="1366" on="1"/>
        <pt x="424" y="799" on="1"/>
        <pt x="1004" y="799" on="1"/>
        <pt x="1004" y="1366" on="1"/>
        <pt x="1249" y="1366" on="1"/>
        <pt x="1249" y="0" on="1"/>
        <pt x="1004" y="0" on="1"/>
        <pt x="1004" y="567" on="1"/>
        <pt x="424" y="567" on="1"/>
        <pt x="424" y="0" on="1"/>
      </contour>
    </TTGlyph>
    <TTGlyph name="I" xMin="178" yMin="0" xMax="424" yMax="1366">
      <contour>
        <pt x="178" y="0" on="1"/>
        <pt x="178" y="1366" on="1"/>
        <pt x="424" y="1366" on="1"/>
        <pt x="424" y="0" on="1"/>
      </contour>
    </TTGlyph>
    <TTGlyph name="Iacute" xMin="178" yMin="0" xMax="567" yMax="1722">
      <contour>
        <pt x="178" y="0" on="1"/>
        <pt x="424" y="0" on="1"/>
        <pt x="424" y="1366" on="1"/>
        <pt x="178" y="1366" on="1"/>
      </contour>
      <contour>
        <pt x="240" y="1483" on="1"/>
        <pt x="367" y="1722" on="1"/>
        <pt x="567" y="1722" on="1"/>
        <pt x="377" y="1483" on="1"/>
      </contour>
    </TTGlyph>
    <TTGlyph name="Icircumflex" xMin="63" yMin="0" xMax="537" yMax="1733">
      <contour>
        <pt x="63" y="1483" on="1"/>
        <pt x="250" y="1733" on="1"/>
        <pt x="348" y="1733" on="1"/>
        <pt x="537" y="1483" on="1"/>
        <pt x="373" y="1483" on="1"/>
        <pt x="299" y="1597" on="1"/>
        <pt x="225" y="1483" on="1"/>
      </contour>
      <contour>
        <pt x="178" y="0" on="1"/>
        <pt x="424" y="0" on="1"/>
        <pt x="424" y="1366" on="1"/>
        <pt x="178" y="1366" on="1"/>
      </contour>
    </TTGlyph>
    <TTGlyph name="Idieresis" xMin="33" yMin="0" xMax="567" yMax="1677">
      <contour>
        <pt x="33" y="1483" on="1"/>
        <pt x="33" y="1677" on="1"/>
        <pt x="240" y="1677" on="1"/>
        <pt x="240" y="1483" on="1"/>
      </contour>
      <contour>
        <pt x="178" y="0" on="1"/>
        <pt x="424" y="0" on="1"/>
        <pt x="424" y="1366" on="1"/>
        <pt x="178" y="1366" on="1"/>
      </contour>
      <contour>
        <pt x="360" y="1483" on="1"/>
        <pt x="360" y="1677" on="1"/>
        <pt x="567" y="1677" on="1"/>
        <pt x="567" y="1483" on="1"/>
      </contour>
    </TTGlyph>
    <TTGlyph name="Igrave" xMin="35" yMin="0" xMax="424" yMax="1722">
      <contour>
        <pt x="35" y="1722" on="1"/>
        <pt x="236" y="1722" on="1"/>
        <pt x="362" y="1483" on="1"/>
        <pt x="225" y="1483" on="1"/>
      </contour>
      <contour>
        <pt x="178" y="0" on="1"/>
        <pt x="424" y="0" on="1"/>
        <pt x="424" y="1366" on="1"/>
        <pt x="178" y="1366" on="1"/>
      </contour>
    </TTGlyph>
    <TTGlyph name="J" xMin="59" yMin="-16" xMax="809" yMax="1366">
      <contour>
        <pt x="59" y="72" on="1"/>
        <pt x="59" y="315" on="1"/>
        <pt x="184" y="213" on="0"/>
        <pt x="340" y="213" on="1"/>
        <pt x="455" y="213" on="0"/>
        <pt x="563" y="309" on="0"/>
        <pt x="563" y="449" on="1"/>
        <pt x="563" y="1366" on="1"/>
        <pt x="809" y="1366" on="1"/>
        <pt x="809" y="457" on="1"/>
        <pt x="809" y="312" on="0"/>
        <pt x="721" y="111" on="0"/>
        <pt x="575" y="18" on="0"/>
        <pt x="442" y="-16" on="0"/>
        <pt x="369" y="-16" on="1"/>
        <pt x="201" y="-16" on="0"/>
      </contour>
    </TTGlyph>
    <TTGlyph name="K" xMin="178" yMin="0" xMax="1327" yMax="1366">
      <contour>
        <pt x="178" y="0" on="1"/>
        <pt x="178" y="1366" on="1"/>
        <pt x="424" y="1366" on="1"/>
        <pt x="424" y="788" on="1"/>
        <pt x="940" y="1366" on="1"/>
        <pt x="1270" y="1366" on="1"/>
        <pt x="719" y="766" on="1"/>
        <pt x="1327" y="0" on="1"/>
        <pt x="1020" y="0" on="1"/>
        <pt x="561" y="592" on="1"/>
        <pt x="424" y="442" on="1"/>
        <pt x="424" y="0" on="1"/>
      </contour>
    </TTGlyph>
    <TTGlyph name="L" xMin="178" yMin="0" xMax="1081" yMax="1366">
      <contour>
        <pt x="178" y="0" on="1"/>
        <pt x="178" y="1366" on="1"/>
        <pt x="424" y="1366" on="1"/>
        <pt x="424" y="233" on="1"/>
        <pt x="1081" y="233" on="1"/>
        <pt x="1081" y="0" on="1"/>
      </contour>
    </TTGlyph>
    <TTGlyph name="M" xMin="178" yMin="0" xMax="1513" yMax="1366">
      <contour>
        <pt x="178" y="0" on="1"/>
        <pt x="178" y="1366" on="1"/>
        <pt x="451" y="1366" on="1"/>
        <pt x="846" y="795" on="1"/>
        <pt x="1241" y="1366" on="1"/>
        <pt x="1513" y="1366" on="1"/>
        <pt x="1513" y="0" on="1"/>
        <pt x="1268" y="0" on="1"/>
        <pt x="1268" y="1010" on="1"/>
        <pt x="846" y="406" on="1"/>
        <pt x="424" y="1010" on="1"/>
        <pt x="424" y="0" on="1"/>
      </contour>
    </TTGlyph>
    <TTGlyph name="N" xMin="178" yMin="0" xMax="1405" yMax="1366">
      <contour>
        <pt x="178" y="0" on="1"/>
        <pt x="178" y="1366" on="1"/>
        <pt x="457" y="1366" on="1"/>
        <pt x="1159" y="354" on="1"/>
        <pt x="1159" y="1366" on="1"/>
        <pt x="1405" y="1366" on="1"/>
        <pt x="1405" y="0" on="1"/>
        <pt x="1130" y="0" on="1"/>
        <pt x="424" y="1020" on="1"/>
        <pt x="424" y="0" on="1"/>
      </contour>
    </TTGlyph>
    <TTGlyph name="Ntilde" xMin="178" yMin="0" xMax="1405" yMax="1711">
      <contour>
        <pt x="178" y="0" on="1"/>
        <pt x="178" y="1366" on="1"/>
        <pt x="457" y="1366" on="1"/>
        <pt x="1159" y="354" on="1"/>
        <pt x="1159" y="1366" on="1"/>
        <pt x="1405" y="1366" on="1"/>
        <pt x="1405" y="0" on="1"/>
        <pt x="1130" y="0" on="1"/>
        <pt x="424" y="1020" on="1"/>
        <pt x="424" y="0" on="1"/>
      </contour>
      <contour>
        <pt x="481" y="1481" on="1"/>
        <pt x="481" y="1636" on="1"/>
        <pt x="538" y="1704" on="0"/>
        <pt x="605" y="1710" on="1"/>
        <pt x="616" y="1711" on="0"/>
        <pt x="627" y="1711" on="1"/>
        <pt x="682" y="1711" on="0"/>
        <pt x="732" y="1686" on="1"/>
        <pt x="854" y="1625" on="1"/>
        <pt x="904" y="1600" on="0"/>
        <pt x="958" y="1600" on="1"/>
        <pt x="969" y="1600" on="0"/>
        <pt x="981" y="1602" on="1"/>
        <pt x="1047" y="1608" on="0"/>
        <pt x="1104" y="1675" on="1"/>
        <pt x="1104" y="1520" on="1"/>
        <pt x="1047" y="1452" on="0"/>
        <pt x="981" y="1446" on="1"/>
        <pt x="970" y="1445" on="0"/>
        <pt x="959" y="1445" on="1"/>
        <pt x="905" y="1445" on="0"/>
        <pt x="854" y="1470" on="1"/>
        <pt x="732" y="1530" on="1"/>
        <pt x="682" y="1556" on="0"/>
        <pt x="628" y="1556" on="1"/>
        <pt x="617" y="1556" on="0"/>
        <pt x="606" y="1554" on="1"/>
        <pt x="539" y="1548" on="0"/>
      </contour>
    </TTGlyph>
    <TTGlyph name="O" xMin="125" yMin="-16" xMax="1401" yMax="1382">
      <contour>
        <pt x="125" y="682" on="1"/>
        <pt x="125" y="850" on="0"/>
        <pt x="203" y="1104" on="0"/>
        <pt x="326" y="1255" on="0"/>
        <pt x="500" y="1350" on="0"/>
        <pt x="666" y="1382" on="0"/>
        <pt x="858" y="1382" on="0"/>
        <pt x="1024" y="1350" on="0"/>
        <pt x="1198" y="1255" on="0"/>
        <pt x="1323" y="1104" on="0"/>
        <pt x="1401" y="850" on="0"/>
        <pt x="1401" y="682" on="1"/>
        <pt x="1401" y="516" on="0"/>
        <pt x="1323" y="260" on="0"/>
        <pt x="1198" y="111" on="0"/>
        <pt x="1024" y="16" on="0"/>
        <pt x="858" y="-16" on="0"/>
        <pt x="666" y="-16" on="0"/>
        <pt x="500" y="16" on="0"/>
        <pt x="326" y="111" on="0"/>
        <pt x="203" y="260" on="0"/>
        <pt x="125" y="516" on="0"/>
      </contour>
      <contour>
        <pt x="371" y="684" on="1"/>
        <pt x="371" y="530" on="0"/>
        <pt x="432" y="328" on="0"/>
        <pt x="551" y="233" on="0"/>
        <pt x="676" y="199" on="0"/>
        <pt x="762" y="199" on="1"/>
        <pt x="832" y="199" on="0"/>
        <pt x="934" y="217" on="0"/>
        <pt x="1042" y="276" on="0"/>
        <pt x="1110" y="381" on="0"/>
        <pt x="1155" y="561" on="0"/>
        <pt x="1155" y="684" on="1"/>
        <pt x="1155" y="836" on="0"/>
        <pt x="1094" y="1038" on="0"/>
        <pt x="973" y="1133" on="0"/>
        <pt x="850" y="1165" on="0"/>
        <pt x="762" y="1165" on="1"/>
        <pt x="694" y="1165" on="0"/>
        <pt x="592" y="1147" on="0"/>
        <pt x="483" y="1087" on="0"/>
        <pt x="416" y="985" on="0"/>
        <pt x="371" y="807" on="0"/>
      </contour>
    </TTGlyph>
    <TTGlyph name="OE" xMin="123" yMin="-16" xMax="1939" yMax="1382">
      <contour>
        <pt x="123" y="682" on="1"/>
        <pt x="123" y="850" on="0"/>
        <pt x="201" y="1104" on="0"/>
        <pt x="324" y="1255" on="0"/>
        <pt x="498" y="1350" on="0"/>
        <pt x="664" y="1382" on="0"/>
        <pt x="760" y="1382" on="1"/>
        <pt x="907" y="1382" on="0"/>
        <pt x="1030" y="1339" on="1"/>
        <pt x="1030" y="1366" on="1"/>
        <pt x="1939" y="1366" on="1"/>
        <pt x="1939" y="1145" on="1"/>
        <pt x="1276" y="1145" on="1"/>
        <pt x="1276" y="799" on="1"/>
        <pt x="1851" y="799" on="1"/>
        <pt x="1851" y="567" on="1"/>
        <pt x="1276" y="567" on="1"/>
        <pt x="1276" y="221" on="1"/>
        <pt x="1939" y="221" on="1"/>
        <pt x="1939" y="0" on="1"/>
        <pt x="1030" y="0" on="1"/>
        <pt x="1030" y="27" on="1"/>
        <pt x="915" y="-16" on="0"/>
        <pt x="760" y="-16" on="1"/>
        <pt x="664" y="-16" on="0"/>
        <pt x="498" y="16" on="0"/>
        <pt x="324" y="111" on="0"/>
        <pt x="201" y="260" on="0"/>
        <pt x="123" y="516" on="0"/>
      </contour>
      <contour>
        <pt x="369" y="684" on="1"/>
        <pt x="369" y="530" on="0"/>
        <pt x="436" y="328" on="0"/>
        <pt x="565" y="233" on="0"/>
        <pt x="699" y="199" on="0"/>
        <pt x="793" y="199" on="1"/>
        <pt x="938" y="199" on="0"/>
        <pt x="1030" y="236" on="1"/>
        <pt x="1030" y="1120" on="1"/>
        <pt x="919" y="1165" on="0"/>
        <pt x="793" y="1165" on="1"/>
        <pt x="699" y="1165" on="0"/>
        <pt x="565" y="1133" on="0"/>
        <pt x="436" y="1038" on="0"/>
        <pt x="369" y="836" on="0"/>
      </contour>
    </TTGlyph>
    <TTGlyph name="Oacute" xMin="125" yMin="-16" xMax="1401" yMax="1722">
      <contour>
        <pt x="125" y="682" on="1"/>
        <pt x="125" y="850" on="0"/>
        <pt x="203" y="1104" on="0"/>
        <pt x="326" y="1255" on="0"/>
        <pt x="500" y="1350" on="0"/>
        <pt x="666" y="1382" on="0"/>
        <pt x="858" y="1382" on="0"/>
        <pt x="1024" y="1350" on="0"/>
        <pt x="1198" y="1255" on="0"/>
        <pt x="1323" y="1104" on="0"/>
        <pt x="1401" y="850" on="0"/>
        <pt x="1401" y="682" on="1"/>
        <pt x="1401" y="516" on="0"/>
        <pt x="1323" y="260" on="0"/>
        <pt x="1198" y="111" on="0"/>
        <pt x="1024" y="16" on="0"/>
        <pt x="858" y="-16" on="0"/>
        <pt x="666" y="-16" on="0"/>
        <pt x="500" y="16" on="0"/>
        <pt x="326" y="111" on="0"/>
        <pt x="203" y="260" on="0"/>
        <pt x="125" y="516" on="0"/>
      </contour>
      <contour>
        <pt x="371" y="684" on="1"/>
        <pt x="371" y="530" on="0"/>
        <pt x="432" y="328" on="0"/>
        <pt x="551" y="233" on="0"/>
        <pt x="676" y="199" on="0"/>
        <pt x="762" y="199" on="1"/>
        <pt x="832" y="199" on="0"/>
        <pt x="934" y="217" on="0"/>
        <pt x="1042" y="276" on="0"/>
        <pt x="1110" y="381" on="0"/>
        <pt x="1155" y="561" on="0"/>
        <pt x="1155" y="684" on="1"/>
        <pt x="1155" y="836" on="0"/>
        <pt x="1094" y="1038" on="0"/>
        <pt x="973" y="1133" on="0"/>
        <pt x="850" y="1165" on="0"/>
        <pt x="762" y="1165" on="1"/>
        <pt x="694" y="1165" on="0"/>
        <pt x="592" y="1147" on="0"/>
        <pt x="483" y="1087" on="0"/>
        <pt x="416" y="985" on="0"/>
        <pt x="371" y="807" on="0"/>
      </contour>
      <contour>
        <pt x="680" y="1483" on="1"/>
        <pt x="807" y="1722" on="1"/>
        <pt x="1008" y="1722" on="1"/>
        <pt x="817" y="1483" on="1"/>
      </contour>
    </TTGlyph>
    <TTGlyph name="Ocircumflex" xMin="125" yMin="-16" xMax="1401" yMax="1733">
      <contour>
        <pt x="125" y="682" on="1"/>
        <pt x="125" y="850" on="0"/>
        <pt x="203" y="1104" on="0"/>
        <pt x="326" y="1255" on="0"/>
        <pt x="500" y="1350" on="0"/>
        <pt x="666" y="1382" on="0"/>
        <pt x="858" y="1382" on="0"/>
        <pt x="1024" y="1350" on="0"/>
        <pt x="1198" y="1255" on="0"/>
        <pt x="1323" y="1104" on="0"/>
        <pt x="1401" y="850" on="0"/>
        <pt x="1401" y="682" on="1"/>
        <pt x="1401" y="516" on="0"/>
        <pt x="1323" y="260" on="0"/>
        <pt x="1198" y="111" on="0"/>
        <pt x="1024" y="16" on="0"/>
        <pt x="858" y="-16" on="0"/>
        <pt x="666" y="-16" on="0"/>
        <pt x="500" y="16" on="0"/>
        <pt x="326" y="111" on="0"/>
        <pt x="203" y="260" on="0"/>
        <pt x="125" y="516" on="0"/>
      </contour>
      <contour>
        <pt x="371" y="684" on="1"/>
        <pt x="371" y="530" on="0"/>
        <pt x="432" y="328" on="0"/>
        <pt x="551" y="233" on="0"/>
        <pt x="676" y="199" on="0"/>
        <pt x="762" y="199" on="1"/>
        <pt x="832" y="199" on="0"/>
        <pt x="934" y="217" on="0"/>
        <pt x="1042" y="276" on="0"/>
        <pt x="1110" y="381" on="0"/>
        <pt x="1155" y="561" on="0"/>
        <pt x="1155" y="684" on="1"/>
        <pt x="1155" y="836" on="0"/>
        <pt x="1094" y="1038" on="0"/>
        <pt x="973" y="1133" on="0"/>
        <pt x="850" y="1165" on="0"/>
        <pt x="762" y="1165" on="1"/>
        <pt x="694" y="1165" on="0"/>
        <pt x="592" y="1147" on="0"/>
        <pt x="483" y="1087" on="0"/>
        <pt x="416" y="985" on="0"/>
        <pt x="371" y="807" on="0"/>
      </contour>
      <contour>
        <pt x="526" y="1483" on="1"/>
        <pt x="713" y="1733" on="1"/>
        <pt x="811" y="1733" on="1"/>
        <pt x="999" y="1483" on="1"/>
        <pt x="836" y="1483" on="1"/>
        <pt x="762" y="1597" on="1"/>
        <pt x="688" y="1483" on="1"/>
      </contour>
    </TTGlyph>
    <TTGlyph name="Odieresis" xMin="125" yMin="-16" xMax="1401" yMax="1677">
      <contour>
        <pt x="125" y="682" on="1"/>
        <pt x="125" y="850" on="0"/>
        <pt x="203" y="1104" on="0"/>
        <pt x="326" y="1255" on="0"/>
        <pt x="500" y="1350" on="0"/>
        <pt x="666" y="1382" on="0"/>
        <pt x="858" y="1382" on="0"/>
        <pt x="1024" y="1350" on="0"/>
        <pt x="1198" y="1255" on="0"/>
        <pt x="1323" y="1104" on="0"/>
        <pt x="1401" y="850" on="0"/>
        <pt x="1401" y="682" on="1"/>
        <pt x="1401" y="516" on="0"/>
        <pt x="1323" y="260" on="0"/>
        <pt x="1198" y="111" on="0"/>
        <pt x="1024" y="16" on="0"/>
        <pt x="858" y="-16" on="0"/>
        <pt x="666" y="-16" on="0"/>
        <pt x="500" y="16" on="0"/>
        <pt x="326" y="111" on="0"/>
        <pt x="203" y="260" on="0"/>
        <pt x="125" y="516" on="0"/>
      </contour>
      <contour>
        <pt x="371" y="684" on="1"/>
        <pt x="371" y="530" on="0"/>
        <pt x="432" y="328" on="0"/>
        <pt x="551" y="233" on="0"/>
        <pt x="676" y="199" on="0"/>
        <pt x="762" y="199" on="1"/>
        <pt x="832" y="199" on="0"/>
        <pt x="934" y="217" on="0"/>
        <pt x="1042" y="276" on="0"/>
        <pt x="1110" y="381" on="0"/>
        <pt x="1155" y="561" on="0"/>
        <pt x="1155" y="684" on="1"/>
        <pt x="1155" y="836" on="0"/>
        <pt x="1094" y="1038" on="0"/>
        <pt x="973" y="1133" on="0"/>
        <pt x="850" y="1165" on="0"/>
        <pt x="762" y="1165" on="1"/>
        <pt x="694" y="1165" on="0"/>
        <pt x="592" y="1147" on="0"/>
        <pt x="483" y="1087" on="0"/>
        <pt x="416" y="985" on="0"/>
        <pt x="371" y="807" on="0"/>
      </contour>
      <contour>
        <pt x="496" y="1483" on="1"/>
        <pt x="496" y="1677" on="1"/>
        <pt x="702" y="1677" on="1"/>
        <pt x="702" y="1483" on="1"/>
      </contour>
      <contour>
        <pt x="823" y="1483" on="1"/>
        <pt x="823" y="1677" on="1"/>
        <pt x="1030" y="1677" on="1"/>
        <pt x="1030" y="1483" on="1"/>
      </contour>
    </TTGlyph>
    <TTGlyph name="Ograve" xMin="125" yMin="-16" xMax="1401" yMax="1722">
      <contour>
        <pt x="125" y="682" on="1"/>
        <pt x="125" y="850" on="0"/>
        <pt x="203" y="1104" on="0"/>
        <pt x="326" y="1255" on="0"/>
        <pt x="500" y="1350" on="0"/>
        <pt x="666" y="1382" on="0"/>
        <pt x="858" y="1382" on="0"/>
        <pt x="1024" y="1350" on="0"/>
        <pt x="1198" y="1255" on="0"/>
        <pt x="1323" y="1104" on="0"/>
        <pt x="1401" y="850" on="0"/>
        <pt x="1401" y="682" on="1"/>
        <pt x="1401" y="516" on="0"/>
        <pt x="1323" y="260" on="0"/>
        <pt x="1198" y="111" on="0"/>
        <pt x="1024" y="16" on="0"/>
        <pt x="858" y="-16" on="0"/>
        <pt x="666" y="-16" on="0"/>
        <pt x="500" y="16" on="0"/>
        <pt x="326" y="111" on="0"/>
        <pt x="203" y="260" on="0"/>
        <pt x="125" y="516" on="0"/>
      </contour>
      <contour>
        <pt x="371" y="684" on="1"/>
        <pt x="371" y="530" on="0"/>
        <pt x="432" y="328" on="0"/>
        <pt x="551" y="233" on="0"/>
        <pt x="676" y="199" on="0"/>
        <pt x="762" y="199" on="1"/>
        <pt x="832" y="199" on="0"/>
        <pt x="934" y="217" on="0"/>
        <pt x="1042" y="276" on="0"/>
        <pt x="1110" y="381" on="0"/>
        <pt x="1155" y="561" on="0"/>
        <pt x="1155" y="684" on="1"/>
        <pt x="1155" y="836" on="0"/>
        <pt x="1094" y="1038" on="0"/>
        <pt x="973" y="1133" on="0"/>
        <pt x="850" y="1165" on="0"/>
        <pt x="762" y="1165" on="1"/>
        <pt x="694" y="1165" on="0"/>
        <pt x="592" y="1147" on="0"/>
        <pt x="483" y="1087" on="0"/>
        <pt x="416" y="985" on="0"/>
        <pt x="371" y="807" on="0"/>
      </contour>
      <contour>
        <pt x="518" y="1722" on="1"/>
        <pt x="719" y="1722" on="1"/>
        <pt x="846" y="1483" on="1"/>
        <pt x="709" y="1483" on="1"/>
      </contour>
    </TTGlyph>
    <TTGlyph name="Oslash" xMin="68" yMin="-16" xMax="1458" yMax="1382">
      <contour>
        <pt x="68" y="0" on="1"/>
        <pt x="246" y="211" on="1"/>
        <pt x="125" y="385" on="0"/>
        <pt x="125" y="682" on="1"/>
        <pt x="125" y="850" on="0"/>
        <pt x="203" y="1104" on="0"/>
        <pt x="326" y="1255" on="0"/>
        <pt x="500" y="1350" on="0"/>
        <pt x="666" y="1382" on="0"/>
        <pt x="762" y="1382" on="1"/>
        <pt x="995" y="1382" on="0"/>
        <pt x="1147" y="1280" on="1"/>
        <pt x="1221" y="1366" on="1"/>
        <pt x="1458" y="1366" on="1"/>
        <pt x="1278" y="1153" on="1"/>
        <pt x="1401" y="975" on="0"/>
        <pt x="1401" y="682" on="1"/>
        <pt x="1401" y="516" on="0"/>
        <pt x="1323" y="260" on="0"/>
        <pt x="1198" y="111" on="0"/>
        <pt x="1024" y="16" on="0"/>
        <pt x="858" y="-16" on="0"/>
        <pt x="762" y="-16" on="1"/>
        <pt x="529" y="-16" on="0"/>
        <pt x="375" y="84" on="1"/>
        <pt x="305" y="0" on="1"/>
      </contour>
      <contour>
        <pt x="371" y="684" on="1"/>
        <pt x="371" y="516" on="0"/>
        <pt x="410" y="406" on="1"/>
        <pt x="1004" y="1108" on="1"/>
        <pt x="920" y="1165" on="0"/>
        <pt x="762" y="1165" on="1"/>
        <pt x="694" y="1165" on="0"/>
        <pt x="592" y="1147" on="0"/>
        <pt x="483" y="1087" on="0"/>
        <pt x="416" y="985" on="0"/>
        <pt x="371" y="807" on="0"/>
      </contour>
      <contour>
        <pt x="520" y="256" on="1"/>
        <pt x="604" y="199" on="0"/>
        <pt x="762" y="199" on="1"/>
        <pt x="832" y="199" on="0"/>
        <pt x="934" y="217" on="0"/>
        <pt x="1042" y="276" on="0"/>
        <pt x="1110" y="381" on="0"/>
        <pt x="1155" y="561" on="0"/>
        <pt x="1155" y="684" on="1"/>
        <pt x="1155" y="846" on="0"/>
        <pt x="1114" y="958" on="1"/>
      </contour>
    </TTGlyph>
    <TTGlyph name="Otilde" xMin="125" yMin="-16" xMax="1401" yMax="1711">
      <contour>
        <pt x="125" y="682" on="1"/>
        <pt x="125" y="850" on="0"/>
        <pt x="203" y="1104" on="0"/>
        <pt x="326" y="1255" on="0"/>
        <pt x="500" y="1350" on="0"/>
        <pt x="666" y="1382" on="0"/>
        <pt x="858" y="1382" on="0"/>
        <pt x="1024" y="1350" on="0"/>
        <pt x="1198" y="1255" on="0"/>
        <pt x="1323" y="1104" on="0"/>
        <pt x="1401" y="850" on="0"/>
        <pt x="1401" y="682" on="1"/>
        <pt x="1401" y="516" on="0"/>
        <pt x="1323" y="260" on="0"/>
        <pt x="1198" y="111" on="0"/>
        <pt x="1024" y="16" on="0"/>
        <pt x="858" y="-16" on="0"/>
        <pt x="666" y="-16" on="0"/>
        <pt x="500" y="16" on="0"/>
        <pt x="326" y="111" on="0"/>
        <pt x="203" y="260" on="0"/>
        <pt x="125" y="516" on="0"/>
      </contour>
      <contour>
        <pt x="371" y="684" on="1"/>
        <pt x="371" y="530" on="0"/>
        <pt x="432" y="328" on="0"/>
        <pt x="551" y="233" on="0"/>
        <pt x="676" y="199" on="0"/>
        <pt x="762" y="199" on="1"/>
        <pt x="832" y="199" on="0"/>
        <pt x="934" y="217" on="0"/>
        <pt x="1042" y="276" on="0"/>
        <pt x="1110" y="381" on="0"/>
        <pt x="1155" y="561" on="0"/>
        <pt x="1155" y="684" on="1"/>
        <pt x="1155" y="836" on="0"/>
        <pt x="1094" y="1038" on="0"/>
        <pt x="973" y="1133" on="0"/>
        <pt x="850" y="1165" on="0"/>
        <pt x="762" y="1165" on="1"/>
        <pt x="694" y="1165" on="0"/>
        <pt x="592" y="1147" on="0"/>
        <pt x="483" y="1087" on="0"/>
        <pt x="416" y="985" on="0"/>
        <pt x="371" y="807" on="0"/>
      </contour>
      <contour>
        <pt x="451" y="1481" on="1"/>
        <pt x="451" y="1636" on="1"/>
        <pt x="508" y="1704" on="0"/>
        <pt x="574" y="1710" on="1"/>
        <pt x="585" y="1711" on="0"/>
        <pt x="596" y="1711" on="1"/>
        <pt x="651" y="1711" on="0"/>
        <pt x="702" y="1686" on="1"/>
        <pt x="824" y="1625" on="1"/>
        <pt x="874" y="1600" on="0"/>
        <pt x="927" y="1600" on="1"/>
        <pt x="939" y="1600" on="0"/>
        <pt x="950" y="1602" on="1"/>
        <pt x="1016" y="1608" on="0"/>
        <pt x="1073" y="1675" on="1"/>
        <pt x="1073" y="1520" on="1"/>
        <pt x="1016" y="1452" on="0"/>
        <pt x="950" y="1446" on="1"/>
        <pt x="939" y="1445" on="0"/>
        <pt x="928" y="1445" on="1"/>
        <pt x="875" y="1445" on="0"/>
        <pt x="824" y="1470" on="1"/>
        <pt x="702" y="1530" on="1"/>
        <pt x="651" y="1556" on="0"/>
        <pt x="597" y="1556" on="1"/>
        <pt x="586" y="1556" on="0"/>
        <pt x="574" y="1554" on="1"/>
        <pt x="508" y="1548" on="0"/>
      </contour>
    </TTGlyph>
    <TTGlyph name="P" xMin="176" yMin="0" xMax="1192" yMax="1366">
      <contour>
        <pt x="176" y="0" on="1"/>
        <pt x="176" y="1366" on="1"/>
        <pt x="686" y="1366" on="1"/>
        <pt x="928" y="1366" on="0"/>
        <pt x="1192" y="1126" on="0"/>
        <pt x="1192" y="688" on="0"/>
        <pt x="928" y="449" on="0"/>
        <pt x="686" y="449" on="1"/>
        <pt x="422" y="449" on="1"/>
        <pt x="422" y="0" on="1"/>
      </contour>
      <contour>
        <pt x="422" y="672" on="1"/>
        <pt x="668" y="672" on="1"/>
        <pt x="830" y="672" on="0"/>
        <pt x="948" y="791" on="0"/>
        <pt x="948" y="907" on="1"/>
        <pt x="948" y="1022" on="0"/>
        <pt x="829" y="1139" on="0"/>
        <pt x="668" y="1139" on="1"/>
        <pt x="422" y="1139" on="1"/>
      </contour>
    </TTGlyph>
    <TTGlyph name="Q" xMin="125" yMin="-381" xMax="1403" yMax="1382">
      <contour>
        <pt x="125" y="682" on="1"/>
        <pt x="125" y="850" on="0"/>
        <pt x="203" y="1104" on="0"/>
        <pt x="326" y="1255" on="0"/>
        <pt x="500" y="1350" on="0"/>
        <pt x="668" y="1382" on="0"/>
        <pt x="860" y="1382" on="0"/>
        <pt x="1026" y="1350" on="0"/>
        <pt x="1200" y="1255" on="0"/>
        <pt x="1325" y="1104" on="0"/>
        <pt x="1403" y="850" on="0"/>
        <pt x="1403" y="682" on="1"/>
        <pt x="1403" y="530" on="0"/>
        <pt x="1339" y="295" on="0"/>
        <pt x="1235" y="143" on="0"/>
        <pt x="1087" y="41" on="0"/>
        <pt x="938" y="-6" on="0"/>
        <pt x="852" y="-14" on="1"/>
        <pt x="852" y="-108" on="0"/>
        <pt x="991" y="-193" on="0"/>
        <pt x="1087" y="-193" on="1"/>
        <pt x="1087" y="-381" on="1"/>
        <pt x="649" y="-381" on="0"/>
        <pt x="649" y="-12" on="1"/>
        <pt x="543" y="2" on="0"/>
        <pt x="369" y="80" on="0"/>
        <pt x="213" y="233" on="0"/>
        <pt x="125" y="502" on="0"/>
      </contour>
      <contour>
        <pt x="371" y="836" on="0"/>
        <pt x="371" y="528" on="0"/>
        <pt x="432" y="328" on="0"/>
        <pt x="553" y="231" on="0"/>
        <pt x="676" y="199" on="0"/>
        <pt x="764" y="199" on="1"/>
        <pt x="850" y="199" on="0"/>
        <pt x="975" y="231" on="0"/>
        <pt x="1096" y="328" on="0"/>
        <pt x="1157" y="528" on="0"/>
        <pt x="1157" y="836" on="0"/>
        <pt x="1096" y="1036" on="0"/>
        <pt x="975" y="1133" on="0"/>
        <pt x="850" y="1165" on="0"/>
        <pt x="764" y="1165" on="1"/>
        <pt x="676" y="1165" on="0"/>
        <pt x="553" y="1133" on="0"/>
        <pt x="432" y="1036" on="0"/>
      </contour>
    </TTGlyph>
    <TTGlyph name="R" xMin="178" yMin="0" xMax="1268" yMax="1366">
      <contour>
        <pt x="178" y="0" on="1"/>
        <pt x="178" y="1366" on="1"/>
        <pt x="702" y="1366" on="1"/>
        <pt x="942" y="1366" on="0"/>
        <pt x="1208" y="1139" on="0"/>
        <pt x="1208" y="928" on="1"/>
        <pt x="1208" y="614" on="0"/>
        <pt x="909" y="522" on="1"/>
        <pt x="1268" y="0" on="1"/>
        <pt x="971" y="0" on="1"/>
        <pt x="645" y="481" on="1"/>
        <pt x="424" y="481" on="1"/>
        <pt x="424" y="0" on="1"/>
      </contour>
      <contour>
        <pt x="424" y="707" on="1"/>
        <pt x="696" y="707" on="1"/>
        <pt x="821" y="707" on="0"/>
        <pt x="963" y="797" on="0"/>
        <pt x="963" y="922" on="1"/>
        <pt x="963" y="1049" on="0"/>
        <pt x="821" y="1137" on="0"/>
        <pt x="696" y="1137" on="1"/>
        <pt x="424" y="1137" on="1"/>
      </contour>
    </TTGlyph>
    <TTGlyph name="S" xMin="125" yMin="-16" xMax="1065" yMax="1382">
      <contour>
        <pt x="125" y="985" on="1"/>
        <pt x="125" y="1182" on="0"/>
        <pt x="403" y="1382" on="0"/>
        <pt x="612" y="1382" on="1"/>
        <pt x="796" y="1382" on="0"/>
        <pt x="979" y="1288" on="1"/>
        <pt x="979" y="1049" on="1"/>
        <pt x="821" y="1153" on="0"/>
        <pt x="641" y="1153" on="1"/>
        <pt x="528" y="1153" on="0"/>
        <pt x="371" y="1075" on="0"/>
        <pt x="371" y="991" on="1"/>
        <pt x="371" y="923" on="0"/>
        <pt x="514" y="846" on="0"/>
        <pt x="717" y="793" on="0"/>
        <pt x="922" y="713" on="0"/>
        <pt x="1065" y="516" on="0"/>
        <pt x="1065" y="360" on="1"/>
        <pt x="1065" y="194" on="0"/>
        <pt x="791" y="-16" on="0"/>
        <pt x="594" y="-16" on="1"/>
        <pt x="334" y="-16" on="0"/>
        <pt x="143" y="100" on="1"/>
        <pt x="143" y="350" on="1"/>
        <pt x="319" y="219" on="0"/>
        <pt x="537" y="219" on="1"/>
        <pt x="819" y="219" on="0"/>
        <pt x="819" y="376" on="1"/>
        <pt x="819" y="447" on="0"/>
        <pt x="717" y="541" on="0"/>
        <pt x="561" y="586" on="0"/>
        <pt x="383" y="647" on="0"/>
        <pt x="227" y="719" on="0"/>
        <pt x="125" y="872" on="0"/>
      </contour>
    </TTGlyph>
    <TTGlyph name="T" xMin="25" yMin="0" xMax="1145" yMax="1366">
      <contour>
        <pt x="25" y="1120" on="1"/>
        <pt x="25" y="1366" on="1"/>
        <pt x="1145" y="1366" on="1"/>
        <pt x="1145" y="1120" on="1"/>
        <pt x="707" y="1120" on="1"/>
        <pt x="707" y="0" on="1"/>
        <pt x="461" y="0" on="1"/>
        <pt x="461" y="1120" on="1"/>
      </contour>
    </TTGlyph>
    <TTGlyph name="Thorn" xMin="176" yMin="0" xMax="1137" yMax="1366">
      <contour>
        <pt x="176" y="0" on="1"/>
        <pt x="176" y="1366" on="1"/>
        <pt x="422" y="1366" on="1"/>
        <pt x="422" y="1194" on="1"/>
        <pt x="631" y="1194" on="1"/>
        <pt x="873" y="1194" on="0"/>
        <pt x="1137" y="954" on="0"/>
        <pt x="1137" y="516" on="0"/>
        <pt x="872" y="276" on="0"/>
        <pt x="631" y="276" on="1"/>
        <pt x="422" y="276" on="1"/>
        <pt x="422" y="0" on="1"/>
      </contour>
      <contour>
        <pt x="422" y="500" on="1"/>
        <pt x="612" y="500" on="1"/>
        <pt x="774" y="500" on="0"/>
        <pt x="893" y="618" on="0"/>
        <pt x="893" y="735" on="1"/>
        <pt x="893" y="850" on="0"/>
        <pt x="774" y="967" on="0"/>
        <pt x="612" y="967" on="1"/>
        <pt x="422" y="967" on="1"/>
      </contour>
    </TTGlyph>
    <TTGlyph name="U" xMin="178" yMin="-16" xMax="1323" yMax="1366">
      <contour>
        <pt x="178" y="578" on="1"/>
        <pt x="178" y="1366" on="1"/>
        <pt x="424" y="1366" on="1"/>
        <pt x="424" y="557" on="1"/>
        <pt x="424" y="377" on="0"/>
        <pt x="580" y="209" on="0"/>
        <pt x="920" y="209" on="0"/>
        <pt x="1077" y="377" on="0"/>
        <pt x="1077" y="557" on="1"/>
        <pt x="1077" y="1366" on="1"/>
        <pt x="1323" y="1366" on="1"/>
        <pt x="1323" y="578" on="1"/>
        <pt x="1323" y="295" on="0"/>
        <pt x="1022" y="-16" on="0"/>
        <pt x="477" y="-16" on="0"/>
        <pt x="178" y="295" on="0"/>
      </contour>
    </TTGlyph>
    <TTGlyph name="Uacute" xMin="178" yMin="-16" xMax="1323" yMax="1722">
      <contour>
        <pt x="178" y="578" on="1"/>
        <pt x="178" y="1366" on="1"/>
        <pt x="424" y="1366" on="1"/>
        <pt x="424" y="557" on="1"/>
        <pt x="424" y="377" on="0"/>
        <pt x="580" y="209" on="0"/>
        <pt x="920" y="209" on="0"/>
        <pt x="1077" y="377" on="0"/>
        <pt x="1077" y="557" on="1"/>
        <pt x="1077" y="1366" on="1"/>
        <pt x="1323" y="1366" on="1"/>
        <pt x="1323" y="578" on="1"/>
        <pt x="1323" y="295" on="0"/>
        <pt x="1022" y="-16" on="0"/>
        <pt x="477" y="-16" on="0"/>
        <pt x="178" y="295" on="0"/>
      </contour>
      <contour>
        <pt x="668" y="1483" on="1"/>
        <pt x="795" y="1722" on="1"/>
        <pt x="995" y="1722" on="1"/>
        <pt x="805" y="1483" on="1"/>
      </contour>
    </TTGlyph>
    <TTGlyph name="Ucircumflex" xMin="178" yMin="-16" xMax="1323" yMax="1733">
      <contour>
        <pt x="178" y="578" on="1"/>
        <pt x="178" y="1366" on="1"/>
        <pt x="424" y="1366" on="1"/>
        <pt x="424" y="557" on="1"/>
        <pt x="424" y="377" on="0"/>
        <pt x="580" y="209" on="0"/>
        <pt x="920" y="209" on="0"/>
        <pt x="1077" y="377" on="0"/>
        <pt x="1077" y="557" on="1"/>
        <pt x="1077" y="1366" on="1"/>
        <pt x="1323" y="1366" on="1"/>
        <pt x="1323" y="578" on="1"/>
        <pt x="1323" y="295" on="0"/>
        <pt x="1022" y="-16" on="0"/>
        <pt x="477" y="-16" on="0"/>
        <pt x="178" y="295" on="0"/>
      </contour>
      <contour>
        <pt x="514" y="1483" on="1"/>
        <pt x="700" y="1733" on="1"/>
        <pt x="799" y="1733" on="1"/>
        <pt x="987" y="1483" on="1"/>
        <pt x="823" y="1483" on="1"/>
        <pt x="750" y="1597" on="1"/>
        <pt x="676" y="1483" on="1"/>
      </contour>
    </TTGlyph>
    <TTGlyph name="Udieresis" xMin="178" yMin="-16" xMax="1323" yMax="1677">
      <contour>
        <pt x="178" y="578" on="1"/>
        <pt x="178" y="1366" on="1"/>
        <pt x="424" y="1366" on="1"/>
        <pt x="424" y="557" on="1"/>
        <pt x="424" y="377" on="0"/>
        <pt x="580" y="209" on="0"/>
        <pt x="920" y="209" on="0"/>
        <pt x="1077" y="377" on="0"/>
        <pt x="1077" y="557" on="1"/>
        <pt x="1077" y="1366" on="1"/>
        <pt x="1323" y="1366" on="1"/>
        <pt x="1323" y="578" on="1"/>
        <pt x="1323" y="295" on="0"/>
        <pt x="1022" y="-16" on="0"/>
        <pt x="477" y="-16" on="0"/>
        <pt x="178" y="295" on="0"/>
      </contour>
      <contour>
        <pt x="483" y="1483" on="1"/>
        <pt x="483" y="1677" on="1"/>
        <pt x="690" y="1677" on="1"/>
        <pt x="690" y="1483" on="1"/>
      </contour>
      <contour>
        <pt x="811" y="1483" on="1"/>
        <pt x="811" y="1677" on="1"/>
        <pt x="1018" y="1677" on="1"/>
        <pt x="1018" y="1483" on="1"/>
      </contour>
    </TTGlyph>
    <TTGlyph name="Ugrave" xMin="178" yMin="-16" xMax="1323" yMax="1722">
      <contour>
        <pt x="178" y="578" on="1"/>
        <pt x="178" y="1366" on="1"/>
        <pt x="424" y="1366" on="1"/>
        <pt x="424" y="557" on="1"/>
        <pt x="424" y="377" on="0"/>
        <pt x="580" y="209" on="0"/>
        <pt x="920" y="209" on="0"/>
        <pt x="1077" y="377" on="0"/>
        <pt x="1077" y="557" on="1"/>
        <pt x="1077" y="1366" on="1"/>
        <pt x="1323" y="1366" on="1"/>
        <pt x="1323" y="578" on="1"/>
        <pt x="1323" y="295" on="0"/>
        <pt x="1022" y="-16" on="0"/>
        <pt x="477" y="-16" on="0"/>
        <pt x="178" y="295" on="0"/>
      </contour>
      <contour>
        <pt x="506" y="1722" on="1"/>
        <pt x="707" y="1722" on="1"/>
        <pt x="834" y="1483" on="1"/>
        <pt x="696" y="1483" on="1"/>
      </contour>
    </TTGlyph>
    <TTGlyph name="V" xMin="25" yMin="0" xMax="1323" yMax="1366">
      <contour>
        <pt x="25" y="1366" on="1"/>
        <pt x="287" y="1366" on="1"/>
        <pt x="674" y="305" on="1"/>
        <pt x="1061" y="1366" on="1"/>
        <pt x="1323" y="1366" on="1"/>
        <pt x="801" y="0" on="1"/>
        <pt x="549" y="0" on="1"/>
      </contour>
    </TTGlyph>
    <TTGlyph name="W" xMin="25" yMin="0" xMax="2021" yMax="1366">
      <contour>
        <pt x="25" y="1366" on="1"/>
        <pt x="283" y="1366" on="1"/>
        <pt x="590" y="356" on="1"/>
        <pt x="915" y="1366" on="1"/>
        <pt x="1130" y="1366" on="1"/>
        <pt x="1456" y="356" on="1"/>
        <pt x="1765" y="1366" on="1"/>
        <pt x="2021" y="1366" on="1"/>
        <pt x="1583" y="0" on="1"/>
        <pt x="1329" y="0" on="1"/>
        <pt x="1024" y="952" on="1"/>
        <pt x="717" y="0" on="1"/>
        <pt x="463" y="0" on="1"/>
      </contour>
    </TTGlyph>
    <TTGlyph name="X" xMin="25" yMin="0" xMax="1296" yMax="1366">
      <contour>
        <pt x="25" y="0" on="1"/>
        <pt x="510" y="690" on="1"/>
        <pt x="37" y="1366" on="1"/>
        <pt x="336" y="1366" on="1"/>
        <pt x="662" y="905" on="1"/>
        <pt x="985" y="1366" on="1"/>
        <pt x="1274" y="1366" on="1"/>
        <pt x="805" y="700" on="1"/>
        <pt x="1296" y="0" on="1"/>
        <pt x="997" y="0" on="1"/>
        <pt x="653" y="487" on="1"/>
        <pt x="309" y="0" on="1"/>
      </contour>
    </TTGlyph>
    <TTGlyph name="Y" xMin="25" yMin="0" xMax="1341" yMax="1366">
      <contour>
        <pt x="25" y="1366" on="1"/>
        <pt x="322" y="1366" on="1"/>
        <pt x="684" y="811" on="1"/>
        <pt x="1044" y="1366" on="1"/>
        <pt x="1341" y="1366" on="1"/>
        <pt x="807" y="586" on="1"/>
        <pt x="807" y="0" on="1"/>
        <pt x="561" y="0" on="1"/>
        <pt x="561" y="586" on="1"/>
      </contour>
    </TTGlyph>
    <TTGlyph name="Yacute" xMin="25" yMin="0" xMax="1341" yMax="1722">
      <contour>
        <pt x="25" y="1366" on="1"/>
        <pt x="322" y="1366" on="1"/>
        <pt x="684" y="811" on="1"/>
        <pt x="1044" y="1366" on="1"/>
        <pt x="1341" y="1366" on="1"/>
        <pt x="807" y="586" on="1"/>
        <pt x="807" y="0" on="1"/>
        <pt x="561" y="0" on="1"/>
        <pt x="561" y="586" on="1"/>
      </contour>
      <contour>
        <pt x="594" y="1483" on="1"/>
        <pt x="721" y="1722" on="1"/>
        <pt x="922" y="1722" on="1"/>
        <pt x="731" y="1483" on="1"/>
      </contour>
    </TTGlyph>
    <TTGlyph name="Ydieresis" xMin="25" yMin="0" xMax="1341" yMax="1677">
      <contour>
        <pt x="25" y="1366" on="1"/>
        <pt x="322" y="1366" on="1"/>
        <pt x="684" y="811" on="1"/>
        <pt x="1044" y="1366" on="1"/>
        <pt x="1341" y="1366" on="1"/>
        <pt x="807" y="586" on="1"/>
        <pt x="807" y="0" on="1"/>
        <pt x="561" y="0" on="1"/>
        <pt x="561" y="586" on="1"/>
      </contour>
      <contour>
        <pt x="418" y="1483" on="1"/>
        <pt x="418" y="1677" on="1"/>
        <pt x="625" y="1677" on="1"/>
        <pt x="625" y="1483" on="1"/>
      </contour>
      <contour>
        <pt x="745" y="1483" on="1"/>
        <pt x="745" y="1677" on="1"/>
        <pt x="952" y="1677" on="1"/>
        <pt x="952" y="1483" on="1"/>
      </contour>
    </TTGlyph>
    <TTGlyph name="Z" xMin="131" yMin="0" xMax="1120" yMax="1366">
      <contour>
        <pt x="131" y="0" on="1"/>
        <pt x="131" y="225" on="1"/>
        <pt x="815" y="1120" on="1"/>
        <pt x="139" y="1120" on="1"/>
        <pt x="139" y="1366" on="1"/>
        <pt x="1120" y="1366" on="1"/>
        <pt x="1120" y="1147" on="1"/>
        <pt x="432" y="246" on="1"/>
        <pt x="1120" y="246" on="1"/>
        <pt x="1120" y="0" on="1"/>
      </contour>
    </TTGlyph>
    <TTGlyph name="a" xMin="115" yMin="-16" xMax="983" yMax="1038">
      <contour>
        <pt x="115" y="334" on="1"/>
        <pt x="115" y="365" on="0"/>
        <pt x="127" y="430" on="0"/>
        <pt x="178" y="528" on="0"/>
        <pt x="266" y="602" on="0"/>
        <pt x="438" y="655" on="0"/>
        <pt x="555" y="655" on="1"/>
        <pt x="639" y="655" on="0"/>
        <pt x="735" y="641" on="1"/>
        <pt x="735" y="834" on="0"/>
        <pt x="518" y="834" on="1"/>
        <pt x="346" y="834" on="0"/>
        <pt x="219" y="782" on="1"/>
        <pt x="219" y="981" on="1"/>
        <pt x="360" y="1038" on="0"/>
        <pt x="532" y="1038" on="1"/>
        <pt x="751" y="1038" on="0"/>
        <pt x="983" y="815" on="0"/>
        <pt x="983" y="604" on="1"/>
        <pt x="983" y="328" on="1"/>
        <pt x="983" y="187" on="0"/>
        <pt x="772" y="-16" on="0"/>
        <pt x="553" y="-16" on="1"/>
        <pt x="328" y="-16" on="0"/>
        <pt x="115" y="188" on="0"/>
      </contour>
      <contour>
        <pt x="358" y="365" on="1"/>
        <pt x="358" y="201" on="0"/>
        <pt x="551" y="201" on="1"/>
        <pt x="552" y="201" on="0"/>
        <pt x="553" y="201" on="1"/>
        <pt x="737" y="201" on="0"/>
        <pt x="737" y="356" on="1"/>
        <pt x="737" y="485" on="1"/>
        <pt x="651" y="497" on="0"/>
        <pt x="590" y="498" on="1"/>
        <pt x="359" y="498" on="0"/>
      </contour>
    </TTGlyph>
    <TTGlyph name="aacute" xMin="115" yMin="-16" xMax="983" yMax="1395">
      <contour>
        <pt x="115" y="334" on="1"/>
        <pt x="115" y="365" on="0"/>
        <pt x="127" y="430" on="0"/>
        <pt x="178" y="528" on="0"/>
        <pt x="266" y="602" on="0"/>
        <pt x="438" y="655" on="0"/>
        <pt x="555" y="655" on="1"/>
        <pt x="639" y="655" on="0"/>
        <pt x="735" y="641" on="1"/>
        <pt x="735" y="834" on="0"/>
        <pt x="518" y="834" on="1"/>
        <pt x="346" y="834" on="0"/>
        <pt x="219" y="782" on="1"/>
        <pt x="219" y="981" on="1"/>
        <pt x="360" y="1038" on="0"/>
        <pt x="532" y="1038" on="1"/>
        <pt x="751" y="1038" on="0"/>
        <pt x="983" y="815" on="0"/>
        <pt x="983" y="604" on="1"/>
        <pt x="983" y="328" on="1"/>
        <pt x="983" y="187" on="0"/>
        <pt x="772" y="-16" on="0"/>
        <pt x="553" y="-16" on="1"/>
        <pt x="328" y="-16" on="0"/>
        <pt x="115" y="188" on="0"/>
      </contour>
      <contour>
        <pt x="358" y="365" on="1"/>
        <pt x="358" y="201" on="0"/>
        <pt x="551" y="201" on="1"/>
        <pt x="552" y="201" on="0"/>
        <pt x="553" y="201" on="1"/>
        <pt x="737" y="201" on="0"/>
        <pt x="737" y="356" on="1"/>
        <pt x="737" y="485" on="1"/>
        <pt x="651" y="497" on="0"/>
        <pt x="590" y="498" on="1"/>
        <pt x="359" y="498" on="0"/>
      </contour>
      <contour>
        <pt x="459" y="1155" on="1"/>
        <pt x="586" y="1395" on="1"/>
        <pt x="786" y="1395" on="1"/>
        <pt x="596" y="1155" on="1"/>
      </contour>
    </TTGlyph>
    <TTGlyph name="acircumflex" xMin="115" yMin="-16" xMax="983" yMax="1405">
      <contour>
        <pt x="115" y="334" on="1"/>
        <pt x="115" y="365" on="0"/>
        <pt x="127" y="430" on="0"/>
        <pt x="178" y="528" on="0"/>
        <pt x="266" y="602" on="0"/>
        <pt x="438" y="655" on="0"/>
        <pt x="555" y="655" on="1"/>
        <pt x="639" y="655" on="0"/>
        <pt x="735" y="641" on="1"/>
        <pt x="735" y="834" on="0"/>
        <pt x="518" y="834" on="1"/>
        <pt x="346" y="834" on="0"/>
        <pt x="219" y="782" on="1"/>
        <pt x="219" y="981" on="1"/>
        <pt x="360" y="1038" on="0"/>
        <pt x="532" y="1038" on="1"/>
        <pt x="751" y="1038" on="0"/>
        <pt x="983" y="815" on="0"/>
        <pt x="983" y="604" on="1"/>
        <pt x="983" y="328" on="1"/>
        <pt x="983" y="187" on="0"/>
        <pt x="772" y="-16" on="0"/>
        <pt x="553" y="-16" on="1"/>
        <pt x="328" y="-16" on="0"/>
        <pt x="115" y="188" on="0"/>
      </contour>
      <contour>
        <pt x="338" y="1155" on="1"/>
        <pt x="524" y="1405" on="1"/>
        <pt x="623" y="1405" on="1"/>
        <pt x="811" y="1155" on="1"/>
        <pt x="647" y="1155" on="1"/>
        <pt x="573" y="1270" on="1"/>
        <pt x="500" y="1155" on="1"/>
      </contour>
      <contour>
        <pt x="358" y="365" on="1"/>
        <pt x="358" y="201" on="0"/>
        <pt x="551" y="201" on="1"/>
        <pt x="552" y="201" on="0"/>
        <pt x="553" y="201" on="1"/>
        <pt x="737" y="201" on="0"/>
        <pt x="737" y="356" on="1"/>
        <pt x="737" y="485" on="1"/>
        <pt x="651" y="497" on="0"/>
        <pt x="590" y="498" on="1"/>
        <pt x="359" y="498" on="0"/>
      </contour>
    </TTGlyph>
    <TTGlyph name="acute" xMin="121" yMin="1155" xMax="449" yMax="1395">
      <contour>
        <pt x="121" y="1155" on="1"/>
        <pt x="248" y="1395" on="1"/>
        <pt x="449" y="1395" on="1"/>
        <pt x="258" y="1155" on="1"/>
      </contour>
    </TTGlyph>
    <TTGlyph name="adieresis" xMin="115" yMin="-16" xMax="983" yMax="1350">
      <contour>
        <pt x="115" y="334" on="1"/>
        <pt x="115" y="365" on="0"/>
        <pt x="127" y="430" on="0"/>
        <pt x="178" y="528" on="0"/>
        <pt x="266" y="602" on="0"/>
        <pt x="438" y="655" on="0"/>
        <pt x="555" y="655" on="1"/>
        <pt x="639" y="655" on="0"/>
        <pt x="735" y="641" on="1"/>
        <pt x="735" y="834" on="0"/>
        <pt x="518" y="834" on="1"/>
        <pt x="346" y="834" on="0"/>
        <pt x="219" y="782" on="1"/>
        <pt x="219" y="981" on="1"/>
        <pt x="360" y="1038" on="0"/>
        <pt x="532" y="1038" on="1"/>
        <pt x="751" y="1038" on="0"/>
        <pt x="983" y="815" on="0"/>
        <pt x="983" y="604" on="1"/>
        <pt x="983" y="328" on="1"/>
        <pt x="983" y="187" on="0"/>
        <pt x="772" y="-16" on="0"/>
        <pt x="553" y="-16" on="1"/>
        <pt x="328" y="-16" on="0"/>
        <pt x="115" y="188" on="0"/>
      </contour>
      <contour>
        <pt x="287" y="1155" on="1"/>
        <pt x="287" y="1350" on="1"/>
        <pt x="494" y="1350" on="1"/>
        <pt x="494" y="1155" on="1"/>
      </contour>
      <contour>
        <pt x="358" y="365" on="1"/>
        <pt x="358" y="201" on="0"/>
        <pt x="551" y="201" on="1"/>
        <pt x="552" y="201" on="0"/>
        <pt x="553" y="201" on="1"/>
        <pt x="737" y="201" on="0"/>
        <pt x="737" y="356" on="1"/>
        <pt x="737" y="485" on="1"/>
        <pt x="651" y="497" on="0"/>
        <pt x="590" y="498" on="1"/>
        <pt x="359" y="498" on="0"/>
      </contour>
      <contour>
        <pt x="614" y="1155" on="1"/>
        <pt x="614" y="1350" on="1"/>
        <pt x="821" y="1350" on="1"/>
        <pt x="821" y="1155" on="1"/>
      </contour>
    </TTGlyph>
    <TTGlyph name="ae" xMin="109" yMin="-16" xMax="1640" yMax="1040">
      <contour>
        <pt x="109" y="334" on="1"/>
        <pt x="109" y="365" on="0"/>
        <pt x="121" y="430" on="0"/>
        <pt x="172" y="528" on="0"/>
        <pt x="260" y="602" on="0"/>
        <pt x="432" y="655" on="0"/>
        <pt x="549" y="655" on="1"/>
        <pt x="633" y="655" on="0"/>
        <pt x="729" y="641" on="1"/>
        <pt x="729" y="834" on="0"/>
        <pt x="512" y="834" on="1"/>
        <pt x="340" y="834" on="0"/>
        <pt x="213" y="782" on="1"/>
        <pt x="213" y="981" on="1"/>
        <pt x="354" y="1038" on="0"/>
        <pt x="526" y="1038" on="1"/>
        <pt x="762" y="1038" on="0"/>
        <pt x="864" y="895" on="1"/>
        <pt x="899" y="952" on="0"/>
        <pt x="1071" y="1040" on="0"/>
        <pt x="1184" y="1040" on="1"/>
        <pt x="1409" y="1040" on="0"/>
        <pt x="1640" y="754" on="0"/>
        <pt x="1640" y="545" on="1"/>
        <pt x="1640" y="459" on="0"/>
        <pt x="1636" y="418" on="1"/>
        <pt x="979" y="418" on="1"/>
        <pt x="989" y="285" on="0"/>
        <pt x="1128" y="195" on="0"/>
        <pt x="1239" y="195" on="1"/>
        <pt x="1419" y="195" on="0"/>
        <pt x="1587" y="274" on="1"/>
        <pt x="1587" y="76" on="1"/>
        <pt x="1417" y="-16" on="0"/>
        <pt x="1202" y="-16" on="1"/>
        <pt x="1098" y="-16" on="0"/>
        <pt x="920" y="70" on="0"/>
        <pt x="874" y="129" on="1"/>
        <pt x="768" y="-16" on="0"/>
        <pt x="547" y="-16" on="1"/>
        <pt x="322" y="-16" on="0"/>
        <pt x="109" y="188" on="0"/>
      </contour>
      <contour>
        <pt x="352" y="365" on="1"/>
        <pt x="352" y="201" on="0"/>
        <pt x="545" y="201" on="1"/>
        <pt x="546" y="201" on="0"/>
        <pt x="547" y="201" on="1"/>
        <pt x="731" y="201" on="0"/>
        <pt x="731" y="356" on="1"/>
        <pt x="731" y="485" on="1"/>
        <pt x="645" y="497" on="0"/>
        <pt x="584" y="498" on="1"/>
        <pt x="353" y="498" on="0"/>
      </contour>
      <contour>
        <pt x="979" y="588" on="1"/>
        <pt x="1391" y="588" on="1"/>
        <pt x="1381" y="694" on="0"/>
        <pt x="1276" y="840" on="0"/>
        <pt x="1092" y="840" on="0"/>
        <pt x="989" y="721" on="0"/>
      </contour>
    </TTGlyph>
    <TTGlyph name="agrave" xMin="115" yMin="-16" xMax="983" yMax="1395">
      <contour>
        <pt x="115" y="334" on="1"/>
        <pt x="115" y="365" on="0"/>
        <pt x="127" y="430" on="0"/>
        <pt x="178" y="528" on="0"/>
        <pt x="266" y="602" on="0"/>
        <pt x="438" y="655" on="0"/>
        <pt x="555" y="655" on="1"/>
        <pt x="639" y="655" on="0"/>
        <pt x="735" y="641" on="1"/>
        <pt x="735" y="834" on="0"/>
        <pt x="518" y="834" on="1"/>
        <pt x="346" y="834" on="0"/>
        <pt x="219" y="782" on="1"/>
        <pt x="219" y="981" on="1"/>
        <pt x="360" y="1038" on="0"/>
        <pt x="532" y="1038" on="1"/>
        <pt x="751" y="1038" on="0"/>
        <pt x="983" y="815" on="0"/>
        <pt x="983" y="604" on="1"/>
        <pt x="983" y="328" on="1"/>
        <pt x="983" y="187" on="0"/>
        <pt x="772" y="-16" on="0"/>
        <pt x="553" y="-16" on="1"/>
        <pt x="328" y="-16" on="0"/>
        <pt x="115" y="188" on="0"/>
      </contour>
      <contour>
        <pt x="313" y="1395" on="1"/>
        <pt x="514" y="1395" on="1"/>
        <pt x="641" y="1155" on="1"/>
        <pt x="504" y="1155" on="1"/>
      </contour>
      <contour>
        <pt x="358" y="365" on="1"/>
        <pt x="358" y="201" on="0"/>
        <pt x="551" y="201" on="1"/>
        <pt x="552" y="201" on="0"/>
        <pt x="553" y="201" on="1"/>
        <pt x="737" y="201" on="0"/>
        <pt x="737" y="356" on="1"/>
        <pt x="737" y="485" on="1"/>
        <pt x="651" y="497" on="0"/>
        <pt x="590" y="498" on="1"/>
        <pt x="359" y="498" on="0"/>
      </contour>
    </TTGlyph>
    <TTGlyph name="ampersand" xMin="113" yMin="-16" xMax="1280" yMax="1374">
      <contour>
        <pt x="113" y="389" on="1"/>
        <pt x="113" y="442" on="0"/>
        <pt x="127" y="524" on="0"/>
        <pt x="176" y="635" on="0"/>
        <pt x="285" y="741" on="0"/>
        <pt x="369" y="791" on="1"/>
        <pt x="244" y="922" on="0"/>
        <pt x="244" y="1040" on="1"/>
        <pt x="244" y="1177" on="0"/>
        <pt x="414" y="1374" on="0"/>
        <pt x="569" y="1374" on="1"/>
        <pt x="708" y="1374" on="0"/>
        <pt x="895" y="1190" on="0"/>
        <pt x="895" y="1055" on="1"/>
        <pt x="895" y="951" on="0"/>
        <pt x="795" y="811" on="0"/>
        <pt x="672" y="729" on="1"/>
        <pt x="901" y="455" on="1"/>
        <pt x="930" y="527" on="0"/>
        <pt x="944" y="610" on="1"/>
        <pt x="1145" y="610" on="1"/>
        <pt x="1116" y="430" on="0"/>
        <pt x="1036" y="291" on="1"/>
        <pt x="1280" y="0" on="1"/>
        <pt x="1018" y="0" on="1"/>
        <pt x="913" y="129" on="1"/>
        <pt x="761" y="-16" on="0"/>
        <pt x="549" y="-16" on="1"/>
        <pt x="436" y="-16" on="0"/>
        <pt x="260" y="66" on="0"/>
        <pt x="162" y="190" on="0"/>
        <pt x="113" y="326" on="0"/>
      </contour>
      <contour>
        <pt x="307" y="383" on="1"/>
        <pt x="307" y="344" on="0"/>
        <pt x="342" y="256" on="0"/>
        <pt x="461" y="170" on="0"/>
        <pt x="553" y="170" on="1"/>
        <pt x="688" y="170" on="0"/>
        <pt x="795" y="276" on="1"/>
        <pt x="494" y="637" on="1"/>
        <pt x="428" y="602" on="0"/>
        <pt x="344" y="528" on="0"/>
        <pt x="313" y="457" on="0"/>
        <pt x="307" y="416" on="0"/>
      </contour>
      <contour>
        <pt x="438" y="1059" on="1"/>
        <pt x="438" y="1045" on="0"/>
        <pt x="449" y="1010" on="0"/>
        <pt x="459" y="987" on="0"/>
        <pt x="485" y="946" on="0"/>
        <pt x="498" y="932" on="0"/>
        <pt x="535" y="887" on="0"/>
        <pt x="539" y="883" on="1"/>
        <pt x="635" y="940" on="0"/>
        <pt x="702" y="1020" on="0"/>
        <pt x="702" y="1067" on="1"/>
        <pt x="702" y="1120" on="0"/>
        <pt x="627" y="1194" on="0"/>
        <pt x="516" y="1194" on="0"/>
        <pt x="438" y="1116" on="0"/>
      </contour>
    </TTGlyph>
    <TTGlyph name="aring" xMin="115" yMin="-16" xMax="983" yMax="1448">
      <contour>
        <pt x="115" y="334" on="1"/>
        <pt x="115" y="365" on="0"/>
        <pt x="127" y="430" on="0"/>
        <pt x="178" y="528" on="0"/>
        <pt x="266" y="602" on="0"/>
        <pt x="438" y="655" on="0"/>
        <pt x="555" y="655" on="1"/>
        <pt x="639" y="655" on="0"/>
        <pt x="735" y="641" on="1"/>
        <pt x="735" y="834" on="0"/>
        <pt x="518" y="834" on="1"/>
        <pt x="346" y="834" on="0"/>
        <pt x="219" y="782" on="1"/>
        <pt x="219" y="981" on="1"/>
        <pt x="360" y="1038" on="0"/>
        <pt x="532" y="1038" on="1"/>
        <pt x="751" y="1038" on="0"/>
        <pt x="983" y="815" on="0"/>
        <pt x="983" y="604" on="1"/>
        <pt x="983" y="328" on="1"/>
        <pt x="983" y="187" on="0"/>
        <pt x="772" y="-16" on="0"/>
        <pt x="553" y="-16" on="1"/>
        <pt x="328" y="-16" on="0"/>
        <pt x="115" y="188" on="0"/>
      </contour>
      <contour>
        <pt x="358" y="365" on="1"/>
        <pt x="358" y="201" on="0"/>
        <pt x="551" y="201" on="1"/>
        <pt x="552" y="201" on="0"/>
        <pt x="553" y="201" on="1"/>
        <pt x="737" y="201" on="0"/>
        <pt x="737" y="356" on="1"/>
        <pt x="737" y="485" on="1"/>
        <pt x="651" y="497" on="0"/>
        <pt x="590" y="498" on="1"/>
        <pt x="359" y="498" on="0"/>
      </contour>
      <contour>
        <pt x="389" y="1188" on="0"/>
        <pt x="389" y="1356" on="0"/>
        <pt x="483" y="1448" on="0"/>
        <pt x="567" y="1448" on="1"/>
        <pt x="653" y="1448" on="0"/>
        <pt x="745" y="1356" on="0"/>
        <pt x="745" y="1188" on="0"/>
        <pt x="653" y="1096" on="0"/>
        <pt x="567" y="1096" on="1"/>
        <pt x="483" y="1096" on="0"/>
      </contour>
      <contour>
        <pt x="498" y="1321" on="0"/>
        <pt x="498" y="1223" on="0"/>
        <pt x="528" y="1184" on="0"/>
        <pt x="606" y="1184" on="0"/>
        <pt x="637" y="1223" on="0"/>
        <pt x="637" y="1321" on="0"/>
        <pt x="606" y="1360" on="0"/>
        <pt x="528" y="1360" on="0"/>
      </contour>
    </TTGlyph>
    <TTGlyph name="asciicircum" xMin="264" yMin="969" xMax="825" yMax="1413">
      <contour>
        <pt x="264" y="969" on="1"/>
        <pt x="487" y="1413" on="1"/>
        <pt x="600" y="1413" on="1"/>
        <pt x="825" y="969" on="1"/>
        <pt x="655" y="969" on="1"/>
        <pt x="545" y="1229" on="1"/>
        <pt x="434" y="969" on="1"/>
      </contour>
    </TTGlyph>
    <TTGlyph name="asciitilde" xMin="201" yMin="421" xMax="870" yMax="700">
      <contour>
        <pt x="201" y="457" on="1"/>
        <pt x="201" y="625" on="1"/>
        <pt x="258" y="693" on="0"/>
        <pt x="330" y="699" on="1"/>
        <pt x="341" y="700" on="0"/>
        <pt x="353" y="700" on="1"/>
        <pt x="412" y="700" on="0"/>
        <pt x="469" y="674" on="1"/>
        <pt x="604" y="614" on="1"/>
        <pt x="661" y="589" on="0"/>
        <pt x="719" y="589" on="1"/>
        <pt x="731" y="589" on="0"/>
        <pt x="742" y="590" on="1"/>
        <pt x="813" y="596" on="0"/>
        <pt x="870" y="664" on="1"/>
        <pt x="870" y="496" on="1"/>
        <pt x="813" y="428" on="0"/>
        <pt x="742" y="422" on="1"/>
        <pt x="731" y="421" on="0"/>
        <pt x="719" y="421" on="1"/>
        <pt x="661" y="421" on="0"/>
        <pt x="604" y="446" on="1"/>
        <pt x="469" y="506" on="1"/>
        <pt x="413" y="532" on="0"/>
        <pt x="354" y="532" on="1"/>
        <pt x="342" y="532" on="0"/>
        <pt x="330" y="530" on="1"/>
        <pt x="258" y="524" on="0"/>
      </contour>
    </TTGlyph>
    <TTGlyph name="asterisk" xMin="172" yMin="942" xMax="684" yMax="1438">
      <contour>
        <pt x="172" y="1133" on="1"/>
        <pt x="338" y="1190" on="1"/>
        <pt x="172" y="1247" on="1"/>
        <pt x="250" y="1386" on="1"/>
        <pt x="373" y="1282" on="1"/>
        <pt x="348" y="1438" on="1"/>
        <pt x="508" y="1438" on="1"/>
        <pt x="483" y="1282" on="1"/>
        <pt x="606" y="1386" on="1"/>
        <pt x="684" y="1247" on="1"/>
        <pt x="518" y="1190" on="1"/>
        <pt x="684" y="1133" on="1"/>
        <pt x="606" y="993" on="1"/>
        <pt x="483" y="1098" on="1"/>
        <pt x="508" y="942" on="1"/>
        <pt x="348" y="942" on="1"/>
        <pt x="373" y="1098" on="1"/>
        <pt x="250" y="993" on="1"/>
      </contour>
    </TTGlyph>
    <TTGlyph name="at" xMin="170" yMin="-311" xMax="1735" yMax="1237">
      <contour>
        <pt x="170" y="371" on="1"/>
        <pt x="170" y="555" on="0"/>
        <pt x="328" y="885" on="0"/>
        <pt x="580" y="1108" on="0"/>
        <pt x="893" y="1237" on="0"/>
        <pt x="1047" y="1237" on="1"/>
        <pt x="1131" y="1237" on="0"/>
        <pt x="1311" y="1192" on="0"/>
        <pt x="1497" y="1087" on="0"/>
        <pt x="1642" y="938" on="0"/>
        <pt x="1735" y="705" on="0"/>
        <pt x="1735" y="563" on="1"/>
        <pt x="1735" y="356" on="0"/>
        <pt x="1550" y="45" on="0"/>
        <pt x="1376" y="45" on="1"/>
        <pt x="1294" y="45" on="0"/>
        <pt x="1204" y="154" on="0"/>
        <pt x="1198" y="197" on="1"/>
        <pt x="1171" y="131" on="0"/>
        <pt x="1022" y="45" on="0"/>
        <pt x="911" y="45" on="1"/>
        <pt x="757" y="45" on="0"/>
        <pt x="580" y="184" on="0"/>
        <pt x="580" y="305" on="1"/>
        <pt x="580" y="358" on="0"/>
        <pt x="614" y="451" on="0"/>
        <pt x="705" y="547" on="0"/>
        <pt x="899" y="604" on="0"/>
        <pt x="1040" y="604" on="1"/>
        <pt x="1085" y="604" on="0"/>
        <pt x="1155" y="600" on="1"/>
        <pt x="1155" y="676" on="0"/>
        <pt x="1087" y="752" on="0"/>
        <pt x="981" y="752" on="1"/>
        <pt x="815" y="752" on="0"/>
        <pt x="702" y="709" on="1"/>
        <pt x="706" y="738" on="0"/>
        <pt x="725" y="844" on="0"/>
        <pt x="729" y="872" on="1"/>
        <pt x="887" y="923" on="0"/>
        <pt x="999" y="924" on="1"/>
        <pt x="1165" y="924" on="0"/>
        <pt x="1337" y="770" on="0"/>
        <pt x="1337" y="621" on="1"/>
        <pt x="1337" y="570" on="0"/>
        <pt x="1305" y="360" on="0"/>
        <pt x="1305" y="303" on="1"/>
        <pt x="1305" y="170" on="0"/>
        <pt x="1397" y="170" on="1"/>
        <pt x="1471" y="170" on="0"/>
        <pt x="1618" y="377" on="0"/>
        <pt x="1618" y="563" on="1"/>
        <pt x="1618" y="690" on="0"/>
        <pt x="1511" y="905" on="0"/>
        <pt x="1343" y="1040" on="0"/>
        <pt x="1141" y="1116" on="0"/>
        <pt x="1040" y="1116" on="1"/>
        <pt x="745" y="1116" on="0"/>
        <pt x="291" y="668" on="0"/>
        <pt x="291" y="365" on="1"/>
        <pt x="291" y="236" on="0"/>
        <pt x="383" y="27" on="0"/>
        <pt x="514" y="-90" on="0"/>
        <pt x="674" y="-168" on="0"/>
        <pt x="797" y="-195" on="0"/>
        <pt x="842" y="-195" on="1"/>
        <pt x="1104" y="-195" on="0"/>
        <pt x="1307" y="-96" on="1"/>
        <pt x="1286" y="-227" on="1"/>
        <pt x="1098" y="-311" on="0"/>
        <pt x="844" y="-311" on="1"/>
        <pt x="738" y="-311" on="0"/>
        <pt x="516" y="-236" on="0"/>
        <pt x="305" y="-84" on="0"/>
        <pt x="170" y="193" on="0"/>
      </contour>
      <contour>
        <pt x="762" y="309" on="1"/>
        <pt x="761" y="229" on="0"/>
        <pt x="911" y="229" on="1"/>
        <pt x="1030" y="229" on="0"/>
        <pt x="1122" y="330" on="0"/>
        <pt x="1130" y="455" on="1"/>
        <pt x="1103" y="457" on="0"/>
        <pt x="1040" y="457" on="1"/>
        <pt x="761" y="457" on="0"/>
      </contour>
    </TTGlyph>
    <TTGlyph name="atilde" xMin="115" yMin="-16" xMax="983" yMax="1384">
      <contour>
        <pt x="115" y="334" on="1"/>
        <pt x="115" y="365" on="0"/>
        <pt x="127" y="430" on="0"/>
        <pt x="178" y="528" on="0"/>
        <pt x="266" y="602" on="0"/>
        <pt x="438" y="655" on="0"/>
        <pt x="555" y="655" on="1"/>
        <pt x="639" y="655" on="0"/>
        <pt x="735" y="641" on="1"/>
        <pt x="735" y="834" on="0"/>
        <pt x="518" y="834" on="1"/>
        <pt x="346" y="834" on="0"/>
        <pt x="219" y="782" on="1"/>
        <pt x="219" y="981" on="1"/>
        <pt x="360" y="1038" on="0"/>
        <pt x="532" y="1038" on="1"/>
        <pt x="751" y="1038" on="0"/>
        <pt x="983" y="815" on="0"/>
        <pt x="983" y="604" on="1"/>
        <pt x="983" y="328" on="1"/>
        <pt x="983" y="187" on="0"/>
        <pt x="772" y="-16" on="0"/>
        <pt x="553" y="-16" on="1"/>
        <pt x="328" y="-16" on="0"/>
        <pt x="115" y="188" on="0"/>
      </contour>
      <contour>
        <pt x="258" y="1153" on="1"/>
        <pt x="258" y="1309" on="1"/>
        <pt x="315" y="1377" on="0"/>
        <pt x="382" y="1383" on="1"/>
        <pt x="393" y="1384" on="0"/>
        <pt x="404" y="1384" on="1"/>
        <pt x="459" y="1384" on="0"/>
        <pt x="509" y="1358" on="1"/>
        <pt x="630" y="1298" on="1"/>
        <pt x="682" y="1273" on="0"/>
        <pt x="735" y="1273" on="1"/>
        <pt x="746" y="1273" on="0"/>
        <pt x="758" y="1274" on="1"/>
        <pt x="823" y="1280" on="0"/>
        <pt x="881" y="1348" on="1"/>
        <pt x="881" y="1192" on="1"/>
        <pt x="824" y="1124" on="0"/>
        <pt x="758" y="1118" on="1"/>
        <pt x="747" y="1117" on="0"/>
        <pt x="736" y="1117" on="1"/>
        <pt x="682" y="1117" on="0"/>
        <pt x="630" y="1142" on="1"/>
        <pt x="509" y="1202" on="1"/>
        <pt x="459" y="1228" on="0"/>
        <pt x="404" y="1228" on="1"/>
        <pt x="393" y="1228" on="0"/>
        <pt x="382" y="1227" on="1"/>
        <pt x="315" y="1221" on="0"/>
      </contour>
      <contour>
        <pt x="358" y="365" on="1"/>
        <pt x="358" y="201" on="0"/>
        <pt x="551" y="201" on="1"/>
        <pt x="552" y="201" on="0"/>
        <pt x="553" y="201" on="1"/>
        <pt x="737" y="201" on="0"/>
        <pt x="737" y="356" on="1"/>
        <pt x="737" y="485" on="1"/>
        <pt x="651" y="497" on="0"/>
        <pt x="590" y="498" on="1"/>
        <pt x="359" y="498" on="0"/>
      </contour>
    </TTGlyph>
    <TTGlyph name="b" xMin="170" yMin="-16" xMax="1059" yMax="1413">
      <contour>
        <pt x="170" y="328" on="1"/>
        <pt x="170" y="1413" on="1"/>
        <pt x="416" y="1413" on="1"/>
        <pt x="416" y="1022" on="1"/>
        <pt x="504" y="1038" on="0"/>
        <pt x="584" y="1038" on="1"/>
        <pt x="813" y="1038" on="0"/>
        <pt x="1059" y="772" on="0"/>
        <pt x="1059" y="522" on="1"/>
        <pt x="1059" y="385" on="0"/>
        <pt x="987" y="176" on="0"/>
        <pt x="889" y="68" on="0"/>
        <pt x="752" y="0" on="0"/>
        <pt x="651" y="-16" on="0"/>
        <pt x="600" y="-16" on="1"/>
        <pt x="381" y="-16" on="0"/>
        <pt x="170" y="186" on="0"/>
      </contour>
      <contour>
        <pt x="416" y="305" on="1"/>
        <pt x="416" y="195" on="0"/>
        <pt x="600" y="195" on="1"/>
        <pt x="717" y="195" on="0"/>
        <pt x="811" y="354" on="0"/>
        <pt x="811" y="535" on="1"/>
        <pt x="811" y="707" on="0"/>
        <pt x="690" y="844" on="0"/>
        <pt x="575" y="844" on="1"/>
        <pt x="485" y="844" on="0"/>
        <pt x="416" y="827" on="1"/>
      </contour>
    </TTGlyph>
    <TTGlyph name="backslash" xMin="-76" yMin="-201" xMax="881" yMax="1548">
      <contour>
        <pt x="-76" y="1548" on="1"/>
        <pt x="129" y="1548" on="1"/>
        <pt x="881" y="-201" on="1"/>
        <pt x="678" y="-201" on="1"/>
      </contour>
    </TTGlyph>
    <TTGlyph name="bar" xMin="379" yMin="-203" xMax="598" yMax="1366">
      <contour>
        <pt x="379" y="-203" on="1"/>
        <pt x="379" y="1366" on="1"/>
        <pt x="598" y="1366" on="1"/>
        <pt x="598" y="-203" on="1"/>
      </contour>
    </TTGlyph>
    <TTGlyph name="braceleft" xMin="186" yMin="-225" xMax="653" yMax="1432">
      <contour>
        <pt x="186" y="506" on="1"/>
        <pt x="186" y="700" on="1"/>
        <pt x="198" y="702" on="0"/>
        <pt x="231" y="713" on="0"/>
        <pt x="289" y="770" on="0"/>
        <pt x="289" y="813" on="1"/>
        <pt x="289" y="1106" on="1"/>
        <pt x="289" y="1251" on="0"/>
        <pt x="451" y="1432" on="0"/>
        <pt x="612" y="1432" on="1"/>
        <pt x="653" y="1432" on="1"/>
        <pt x="653" y="1247" on="1"/>
        <pt x="629" y="1247" on="1"/>
        <pt x="586" y="1247" on="0"/>
        <pt x="532" y="1225" on="0"/>
        <pt x="512" y="1178" on="0"/>
        <pt x="506" y="1143" on="0"/>
        <pt x="506" y="1112" on="1"/>
        <pt x="506" y="823" on="1"/>
        <pt x="506" y="737" on="0"/>
        <pt x="401" y="625" on="0"/>
        <pt x="336" y="602" on="1"/>
        <pt x="402" y="582" on="0"/>
        <pt x="506" y="469" on="0"/>
        <pt x="506" y="383" on="1"/>
        <pt x="506" y="94" on="1"/>
        <pt x="506" y="63" on="0"/>
        <pt x="512" y="29" on="0"/>
        <pt x="532" y="-18" on="0"/>
        <pt x="586" y="-41" on="0"/>
        <pt x="629" y="-41" on="1"/>
        <pt x="653" y="-41" on="1"/>
        <pt x="653" y="-225" on="1"/>
        <pt x="612" y="-225" on="1"/>
        <pt x="450" y="-225" on="0"/>
        <pt x="289" y="-45" on="0"/>
        <pt x="289" y="100" on="1"/>
        <pt x="289" y="393" on="1"/>
        <pt x="289" y="434" on="0"/>
        <pt x="238" y="492" on="0"/>
        <pt x="213" y="500" on="1"/>
      </contour>
    </TTGlyph>
    <TTGlyph name="braceright" xMin="156" yMin="-225" xMax="623" yMax="1432">
      <contour>
        <pt x="156" y="-41" on="1"/>
        <pt x="178" y="-41" on="1"/>
        <pt x="221" y="-41" on="0"/>
        <pt x="274" y="-18" on="0"/>
        <pt x="295" y="29" on="0"/>
        <pt x="301" y="63" on="0"/>
        <pt x="301" y="94" on="1"/>
        <pt x="301" y="383" on="1"/>
        <pt x="301" y="469" on="0"/>
        <pt x="406" y="582" on="0"/>
        <pt x="471" y="602" on="1"/>
        <pt x="405" y="625" on="0"/>
        <pt x="301" y="737" on="0"/>
        <pt x="301" y="823" on="1"/>
        <pt x="301" y="1112" on="1"/>
        <pt x="301" y="1143" on="0"/>
        <pt x="295" y="1178" on="0"/>
        <pt x="274" y="1225" on="0"/>
        <pt x="221" y="1247" on="0"/>
        <pt x="178" y="1247" on="1"/>
        <pt x="156" y="1247" on="1"/>
        <pt x="156" y="1432" on="1"/>
        <pt x="195" y="1432" on="1"/>
        <pt x="359" y="1432" on="0"/>
        <pt x="520" y="1253" on="0"/>
        <pt x="520" y="1106" on="1"/>
        <pt x="520" y="813" on="1"/>
        <pt x="520" y="770" on="0"/>
        <pt x="571" y="715" on="0"/>
        <pt x="598" y="709" on="1"/>
        <pt x="623" y="700" on="1"/>
        <pt x="623" y="506" on="1"/>
        <pt x="619" y="506" on="0"/>
        <pt x="604" y="502" on="0"/>
        <pt x="569" y="485" on="0"/>
        <pt x="543" y="463" on="0"/>
        <pt x="520" y="420" on="0"/>
        <pt x="520" y="393" on="1"/>
        <pt x="520" y="100" on="1"/>
        <pt x="520" y="-47" on="0"/>
        <pt x="358" y="-225" on="0"/>
        <pt x="195" y="-225" on="1"/>
        <pt x="156" y="-225" on="1"/>
      </contour>
    </TTGlyph>
    <TTGlyph name="bracketleft" xMin="244" yMin="-238" xMax="639" yMax="1425">
      <contour>
        <pt x="244" y="-238" on="1"/>
        <pt x="244" y="1425" on="1"/>
        <pt x="639" y="1425" on="1"/>
        <pt x="639" y="1235" on="1"/>
        <pt x="432" y="1235" on="1"/>
        <pt x="432" y="-47" on="1"/>
        <pt x="639" y="-47" on="1"/>
        <pt x="639" y="-238" on="1"/>
      </contour>
    </TTGlyph>
    <TTGlyph name="bracketright" xMin="172" yMin="-238" xMax="567" yMax="1425">
      <contour>
        <pt x="172" y="-47" on="1"/>
        <pt x="379" y="-47" on="1"/>
        <pt x="379" y="1235" on="1"/>
        <pt x="172" y="1235" on="1"/>
        <pt x="172" y="1425" on="1"/>
        <pt x="567" y="1425" on="1"/>
        <pt x="567" y="-238" on="1"/>
        <pt x="172" y="-238" on="1"/>
      </contour>
    </TTGlyph>
    <TTGlyph name="bullet" xMin="172" yMin="389" xMax="717" yMax="934">
      <contour>
        <pt x="172" y="549" on="0"/>
        <pt x="172" y="774" on="0"/>
        <pt x="332" y="934" on="0"/>
        <pt x="446" y="934" on="1"/>
        <pt x="559" y="934" on="0"/>
        <pt x="717" y="774" on="0"/>
        <pt x="717" y="549" on="0"/>
        <pt x="559" y="389" on="0"/>
        <pt x="446" y="389" on="1"/>
        <pt x="331" y="389" on="0"/>
      </contour>
    </TTGlyph>
    <TTGlyph name="c" xMin="119" yMin="-16" xMax="897" yMax="1038">
      <contour>
        <pt x="119" y="510" on="1"/>
        <pt x="119" y="766" on="0"/>
        <pt x="369" y="1038" on="0"/>
        <pt x="602" y="1038" on="1"/>
        <pt x="752" y="1038" on="0"/>
        <pt x="897" y="981" on="1"/>
        <pt x="897" y="776" on="1"/>
        <pt x="776" y="825" on="0"/>
        <pt x="643" y="825" on="1"/>
        <pt x="502" y="825" on="0"/>
        <pt x="365" y="696" on="0"/>
        <pt x="365" y="510" on="1"/>
        <pt x="365" y="326" on="0"/>
        <pt x="502" y="195" on="0"/>
        <pt x="643" y="195" on="1"/>
        <pt x="770" y="195" on="0"/>
        <pt x="897" y="246" on="1"/>
        <pt x="897" y="41" on="1"/>
        <pt x="752" y="-16" on="0"/>
        <pt x="602" y="-16" on="1"/>
        <pt x="369" y="-16" on="0"/>
        <pt x="119" y="256" on="0"/>
      </contour>
    </TTGlyph>
    <TTGlyph name="ccedilla" xMin="119" yMin="-256" xMax="897" yMax="1038">
      <contour>
        <pt x="119" y="510" on="1"/>
        <pt x="119" y="766" on="0"/>
        <pt x="369" y="1038" on="0"/>
        <pt x="602" y="1038" on="1"/>
        <pt x="752" y="1038" on="0"/>
        <pt x="897" y="981" on="1"/>
        <pt x="897" y="776" on="1"/>
        <pt x="776" y="825" on="0"/>
        <pt x="643" y="825" on="1"/>
        <pt x="502" y="825" on="0"/>
        <pt x="365" y="696" on="0"/>
        <pt x="365" y="510" on="1"/>
        <pt x="365" y="326" on="0"/>
        <pt x="502" y="195" on="0"/>
        <pt x="643" y="195" on="1"/>
        <pt x="770" y="195" on="0"/>
        <pt x="897" y="246" on="1"/>
        <pt x="897" y="41" on="1"/>
        <pt x="791" y="-4" on="0"/>
        <pt x="670" y="-12" on="1"/>
        <pt x="547" y="-256" on="1"/>
        <pt x="334" y="-256" on="1"/>
        <pt x="510" y="-10" on="1"/>
        <pt x="320" y="15" on="0"/>
        <pt x="119" y="281" on="0"/>
      </contour>
    </TTGlyph>
    <TTGlyph name="cedilla" xMin="119" yMin="-256" xMax="457" yMax="-10">
      <contour>
        <pt x="119" y="-256" on="1"/>
        <pt x="297" y="-10" on="1"/>
        <pt x="457" y="-10" on="1"/>
        <pt x="330" y="-256" on="1"/>
      </contour>
    </TTGlyph>
    <TTGlyph name="cent" xMin="117" yMin="0" xMax="895" yMax="1366">
      <contour>
        <pt x="117" y="436" on="0"/>
        <pt x="117" y="928" on="0"/>
        <pt x="348" y="1200" on="0"/>
        <pt x="567" y="1210" on="1"/>
        <pt x="567" y="1366" on="1"/>
        <pt x="686" y="1366" on="1"/>
        <pt x="686" y="1206" on="1"/>
        <pt x="784" y="1196" on="0"/>
        <pt x="895" y="1153" on="1"/>
        <pt x="895" y="948" on="1"/>
        <pt x="797" y="989" on="0"/>
        <pt x="686" y="995" on="1"/>
        <pt x="686" y="369" on="1"/>
        <pt x="790" y="375" on="0"/>
        <pt x="895" y="418" on="1"/>
        <pt x="895" y="213" on="1"/>
        <pt x="784" y="170" on="0"/>
        <pt x="686" y="160" on="1"/>
        <pt x="686" y="0" on="1"/>
        <pt x="567" y="0" on="1"/>
        <pt x="567" y="156" on="1"/>
        <pt x="348" y="166" on="0"/>
      </contour>
      <contour>
        <pt x="362" y="682" on="1"/>
        <pt x="362" y="524" on="0"/>
        <pt x="465" y="383" on="0"/>
        <pt x="567" y="371" on="1"/>
        <pt x="567" y="993" on="1"/>
        <pt x="465" y="981" on="0"/>
        <pt x="362" y="842" on="0"/>
      </contour>
    </TTGlyph>
    <TTGlyph name="circumflex" xMin="201" yMin="1155" xMax="674" yMax="1405">
      <contour>
        <pt x="201" y="1155" on="1"/>
        <pt x="387" y="1405" on="1"/>
        <pt x="485" y="1405" on="1"/>
        <pt x="674" y="1155" on="1"/>
        <pt x="510" y="1155" on="1"/>
        <pt x="436" y="1270" on="1"/>
        <pt x="362" y="1155" on="1"/>
      </contour>
    </TTGlyph>
    <TTGlyph name="colon" xMin="293" yMin="78" xMax="528" yMax="946">
      <contour>
        <pt x="293" y="78" on="1"/>
        <pt x="293" y="301" on="1"/>
        <pt x="528" y="301" on="1"/>
        <pt x="528" y="78" on="1"/>
      </contour>
      <contour>
        <pt x="293" y="723" on="1"/>
        <pt x="293" y="946" on="1"/>
        <pt x="528" y="946" on="1"/>
        <pt x="528" y="723" on="1"/>
      </contour>
    </TTGlyph>
    <TTGlyph name="comma" xMin="152" yMin="-229" xMax="518" yMax="172">
      <contour>
        <pt x="152" y="-229" on="1"/>
        <pt x="303" y="172" on="1"/>
        <pt x="518" y="172" on="1"/>
        <pt x="336" y="-229" on="1"/>
      </contour>
    </TTGlyph>
    <TTGlyph name="copyright" xMin="98" yMin="-16" xMax="1497" yMax="1382">
      <contour>
        <pt x="98" y="682" on="1"/>
        <pt x="98" y="973" on="0"/>
        <pt x="508" y="1382" on="0"/>
        <pt x="797" y="1382" on="1"/>
        <pt x="1088" y="1382" on="0"/>
        <pt x="1497" y="973" on="0"/>
        <pt x="1497" y="682" on="1"/>
        <pt x="1497" y="393" on="0"/>
        <pt x="1087" y="-16" on="0"/>
        <pt x="797" y="-16" on="1"/>
        <pt x="508" y="-16" on="0"/>
        <pt x="98" y="393" on="0"/>
      </contour>
      <contour>
        <pt x="203" y="682" on="1"/>
        <pt x="203" y="436" on="0"/>
        <pt x="551" y="88" on="0"/>
        <pt x="797" y="88" on="1"/>
        <pt x="1045" y="88" on="0"/>
        <pt x="1393" y="436" on="0"/>
        <pt x="1393" y="682" on="1"/>
        <pt x="1393" y="930" on="0"/>
        <pt x="1044" y="1278" on="0"/>
        <pt x="797" y="1278" on="1"/>
        <pt x="551" y="1278" on="0"/>
        <pt x="203" y="930" on="0"/>
      </contour>
      <contour>
        <pt x="440" y="561" on="0"/>
        <pt x="440" y="803" on="0"/>
        <pt x="506" y="973" on="0"/>
        <pt x="621" y="1057" on="0"/>
        <pt x="739" y="1092" on="0"/>
        <pt x="811" y="1092" on="1"/>
        <pt x="934" y="1092" on="0"/>
        <pt x="1053" y="1044" on="1"/>
        <pt x="1053" y="909" on="1"/>
        <pt x="936" y="962" on="0"/>
        <pt x="824" y="962" on="1"/>
        <pt x="823" y="963" on="0"/>
        <pt x="822" y="963" on="1"/>
        <pt x="710" y="963" on="0"/>
        <pt x="648" y="906" on="1"/>
        <pt x="584" y="850" on="0"/>
        <pt x="584" y="514" on="0"/>
        <pt x="710" y="403" on="0"/>
        <pt x="823" y="403" on="1"/>
        <pt x="942" y="403" on="0"/>
        <pt x="1053" y="457" on="1"/>
        <pt x="1053" y="322" on="1"/>
        <pt x="934" y="275" on="0"/>
        <pt x="811" y="274" on="1"/>
        <pt x="739" y="274" on="0"/>
        <pt x="621" y="309" on="0"/>
        <pt x="506" y="391" on="0"/>
      </contour>
    </TTGlyph>
    <TTGlyph name="d" xMin="129" yMin="-16" xMax="1018" yMax="1413">
      <contour>
        <pt x="129" y="522" on="1"/>
        <pt x="129" y="772" on="0"/>
        <pt x="373" y="1038" on="0"/>
        <pt x="602" y="1038" on="1"/>
        <pt x="684" y="1038" on="0"/>
        <pt x="772" y="1022" on="1"/>
        <pt x="772" y="1413" on="1"/>
        <pt x="1018" y="1413" on="1"/>
        <pt x="1018" y="328" on="1"/>
        <pt x="1018" y="187" on="0"/>
        <pt x="805" y="-16" on="0"/>
        <pt x="586" y="-16" on="1"/>
        <pt x="535" y="-16" on="0"/>
        <pt x="434" y="0" on="0"/>
        <pt x="299" y="68" on="0"/>
        <pt x="199" y="176" on="0"/>
        <pt x="129" y="385" on="0"/>
      </contour>
      <contour>
        <pt x="375" y="535" on="1"/>
        <pt x="375" y="355" on="0"/>
        <pt x="469" y="195" on="0"/>
        <pt x="586" y="195" on="1"/>
        <pt x="772" y="195" on="0"/>
        <pt x="772" y="305" on="1"/>
        <pt x="772" y="827" on="1"/>
        <pt x="700" y="843" on="0"/>
        <pt x="610" y="844" on="1"/>
        <pt x="495" y="844" on="0"/>
        <pt x="375" y="707" on="0"/>
      </contour>
    </TTGlyph>
    <TTGlyph name="degree" xMin="168" yMin="918" xMax="614" yMax="1370">
      <contour>
        <pt x="168" y="1143" on="1"/>
        <pt x="168" y="1254" on="0"/>
        <pt x="283" y="1370" on="0"/>
        <pt x="500" y="1370" on="0"/>
        <pt x="614" y="1253" on="0"/>
        <pt x="614" y="1143" on="1"/>
        <pt x="614" y="1034" on="0"/>
        <pt x="500" y="918" on="0"/>
        <pt x="283" y="918" on="0"/>
        <pt x="168" y="1034" on="0"/>
      </contour>
      <contour>
        <pt x="276" y="1145" on="1"/>
        <pt x="276" y="1077" on="0"/>
        <pt x="332" y="1018" on="0"/>
        <pt x="451" y="1018" on="0"/>
        <pt x="504" y="1077" on="0"/>
        <pt x="504" y="1145" on="1"/>
        <pt x="504" y="1211" on="0"/>
        <pt x="451" y="1270" on="0"/>
        <pt x="332" y="1270" on="0"/>
        <pt x="276" y="1210" on="0"/>
      </contour>
    </TTGlyph>
    <TTGlyph name="dieresis" xMin="162" yMin="1155" xMax="696" yMax="1350">
      <contour>
        <pt x="162" y="1155" on="1"/>
        <pt x="162" y="1350" on="1"/>
        <pt x="369" y="1350" on="1"/>
        <pt x="369" y="1155" on="1"/>
      </contour>
      <contour>
        <pt x="489" y="1155" on="1"/>
        <pt x="489" y="1350" on="1"/>
        <pt x="696" y="1350" on="1"/>
        <pt x="696" y="1155" on="1"/>
      </contour>
    </TTGlyph>
    <TTGlyph name="divide" xMin="211" yMin="129" xMax="1077" yMax="930">
      <contour>
        <pt x="211" y="446" on="1"/>
        <pt x="211" y="610" on="1"/>
        <pt x="1077" y="610" on="1"/>
        <pt x="1077" y="446" on="1"/>
      </contour>
      <contour>
        <pt x="541" y="129" on="1"/>
        <pt x="541" y="322" on="1"/>
        <pt x="748" y="322" on="1"/>
        <pt x="748" y="129" on="1"/>
      </contour>
      <contour>
        <pt x="541" y="737" on="1"/>
        <pt x="541" y="930" on="1"/>
        <pt x="748" y="930" on="1"/>
        <pt x="748" y="737" on="1"/>
      </contour>
    </TTGlyph>
    <TTGlyph name="dollar" xMin="150" yMin="-221" xMax="1090" yMax="1589">
      <contour>
        <pt x="150" y="987" on="1"/>
        <pt x="150" y="1161" on="0"/>
        <pt x="373" y="1360" on="0"/>
        <pt x="551" y="1380" on="1"/>
        <pt x="551" y="1589" on="1"/>
        <pt x="670" y="1589" on="1"/>
        <pt x="670" y="1382" on="1"/>
        <pt x="838" y="1376" on="0"/>
        <pt x="1004" y="1290" on="1"/>
        <pt x="1004" y="1051" on="1"/>
        <pt x="844" y="1153" on="0"/>
        <pt x="670" y="1155" on="1"/>
        <pt x="670" y="815" on="1"/>
        <pt x="744" y="792" on="0"/>
        <pt x="836" y="760" on="0"/>
        <pt x="963" y="686" on="0"/>
        <pt x="1036" y="598" on="0"/>
        <pt x="1090" y="454" on="0"/>
        <pt x="1090" y="362" on="1"/>
        <pt x="1090" y="208" on="0"/>
        <pt x="848" y="2" on="0"/>
        <pt x="670" y="-12" on="1"/>
        <pt x="670" y="-221" on="1"/>
        <pt x="551" y="-221" on="1"/>
        <pt x="551" y="-12" on="1"/>
        <pt x="332" y="2" on="0"/>
        <pt x="168" y="102" on="1"/>
        <pt x="168" y="352" on="1"/>
        <pt x="342" y="223" on="0"/>
        <pt x="551" y="221" on="1"/>
        <pt x="551" y="600" on="1"/>
        <pt x="475" y="623" on="0"/>
        <pt x="393" y="651" on="0"/>
        <pt x="266" y="717" on="0"/>
        <pt x="201" y="791" on="0"/>
        <pt x="150" y="911" on="0"/>
      </contour>
      <contour>
        <pt x="395" y="993" on="1"/>
        <pt x="395" y="940" on="0"/>
        <pt x="473" y="877" on="0"/>
        <pt x="551" y="850" on="1"/>
        <pt x="551" y="1143" on="1"/>
        <pt x="395" y="1110" on="0"/>
      </contour>
      <contour>
        <pt x="670" y="229" on="1"/>
        <pt x="844" y="256" on="0"/>
        <pt x="844" y="379" on="1"/>
        <pt x="844" y="500" on="0"/>
        <pt x="670" y="563" on="1"/>
      </contour>
    </TTGlyph>
    <TTGlyph name="e" xMin="129" yMin="-16" xMax="1042" yMax="1040">
      <contour>
        <pt x="129" y="500" on="1"/>
        <pt x="129" y="746" on="0"/>
        <pt x="348" y="1040" on="0"/>
        <pt x="586" y="1040" on="1"/>
        <pt x="811" y="1040" on="0"/>
        <pt x="1042" y="754" on="0"/>
        <pt x="1042" y="545" on="1"/>
        <pt x="1042" y="459" on="0"/>
        <pt x="1038" y="418" on="1"/>
        <pt x="381" y="418" on="1"/>
        <pt x="391" y="285" on="0"/>
        <pt x="530" y="195" on="0"/>
        <pt x="641" y="195" on="1"/>
        <pt x="821" y="195" on="0"/>
        <pt x="989" y="274" on="1"/>
        <pt x="989" y="76" on="1"/>
        <pt x="819" y="-16" on="0"/>
        <pt x="604" y="-16" on="1"/>
        <pt x="536" y="-16" on="0"/>
        <pt x="416" y="6" on="0"/>
        <pt x="285" y="76" on="0"/>
        <pt x="190" y="184" on="0"/>
        <pt x="129" y="375" on="0"/>
      </contour>
      <contour>
        <pt x="381" y="588" on="1"/>
        <pt x="793" y="588" on="1"/>
        <pt x="783" y="694" on="0"/>
        <pt x="678" y="840" on="0"/>
        <pt x="494" y="840" on="0"/>
        <pt x="391" y="721" on="0"/>
      </contour>
    </TTGlyph>
    <TTGlyph name="eacute" xMin="129" yMin="-16" xMax="1042" yMax="1395">
      <contour>
        <pt x="129" y="500" on="1"/>
        <pt x="129" y="746" on="0"/>
        <pt x="348" y="1040" on="0"/>
        <pt x="586" y="1040" on="1"/>
        <pt x="811" y="1040" on="0"/>
        <pt x="1042" y="754" on="0"/>
        <pt x="1042" y="545" on="1"/>
        <pt x="1042" y="459" on="0"/>
        <pt x="1038" y="418" on="1"/>
        <pt x="381" y="418" on="1"/>
        <pt x="391" y="285" on="0"/>
        <pt x="530" y="195" on="0"/>
        <pt x="641" y="195" on="1"/>
        <pt x="821" y="195" on="0"/>
        <pt x="989" y="274" on="1"/>
        <pt x="989" y="76" on="1"/>
        <pt x="819" y="-16" on="0"/>
        <pt x="604" y="-16" on="1"/>
        <pt x="536" y="-16" on="0"/>
        <pt x="416" y="6" on="0"/>
        <pt x="285" y="76" on="0"/>
        <pt x="190" y="184" on="0"/>
        <pt x="129" y="375" on="0"/>
      </contour>
      <contour>
        <pt x="381" y="588" on="1"/>
        <pt x="793" y="588" on="1"/>
        <pt x="783" y="694" on="0"/>
        <pt x="678" y="840" on="0"/>
        <pt x="494" y="840" on="0"/>
        <pt x="391" y="721" on="0"/>
      </contour>
      <contour>
        <pt x="496" y="1155" on="1"/>
        <pt x="623" y="1395" on="1"/>
        <pt x="823" y="1395" on="1"/>
        <pt x="633" y="1155" on="1"/>
      </contour>
    </TTGlyph>
    <TTGlyph name="ecircumflex" xMin="129" yMin="-16" xMax="1042" yMax="1405">
      <contour>
        <pt x="129" y="500" on="1"/>
        <pt x="129" y="746" on="0"/>
        <pt x="348" y="1040" on="0"/>
        <pt x="586" y="1040" on="1"/>
        <pt x="811" y="1040" on="0"/>
        <pt x="1042" y="754" on="0"/>
        <pt x="1042" y="545" on="1"/>
        <pt x="1042" y="459" on="0"/>
        <pt x="1038" y="418" on="1"/>
        <pt x="381" y="418" on="1"/>
        <pt x="391" y="285" on="0"/>
        <pt x="530" y="195" on="0"/>
        <pt x="641" y="195" on="1"/>
        <pt x="821" y="195" on="0"/>
        <pt x="989" y="274" on="1"/>
        <pt x="989" y="76" on="1"/>
        <pt x="819" y="-16" on="0"/>
        <pt x="604" y="-16" on="1"/>
        <pt x="536" y="-16" on="0"/>
        <pt x="416" y="6" on="0"/>
        <pt x="285" y="76" on="0"/>
        <pt x="190" y="184" on="0"/>
        <pt x="129" y="375" on="0"/>
      </contour>
      <contour>
        <pt x="346" y="1155" on="1"/>
        <pt x="532" y="1405" on="1"/>
        <pt x="631" y="1405" on="1"/>
        <pt x="819" y="1155" on="1"/>
        <pt x="655" y="1155" on="1"/>
        <pt x="582" y="1270" on="1"/>
        <pt x="508" y="1155" on="1"/>
      </contour>
      <contour>
        <pt x="381" y="588" on="1"/>
        <pt x="793" y="588" on="1"/>
        <pt x="783" y="694" on="0"/>
        <pt x="678" y="840" on="0"/>
        <pt x="494" y="840" on="0"/>
        <pt x="391" y="721" on="0"/>
      </contour>
    </TTGlyph>
    <TTGlyph name="edieresis" xMin="129" yMin="-16" xMax="1042" yMax="1350">
      <contour>
        <pt x="129" y="500" on="1"/>
        <pt x="129" y="746" on="0"/>
        <pt x="348" y="1040" on="0"/>
        <pt x="586" y="1040" on="1"/>
        <pt x="811" y="1040" on="0"/>
        <pt x="1042" y="754" on="0"/>
        <pt x="1042" y="545" on="1"/>
        <pt x="1042" y="459" on="0"/>
        <pt x="1038" y="418" on="1"/>
        <pt x="381" y="418" on="1"/>
        <pt x="391" y="285" on="0"/>
        <pt x="530" y="195" on="0"/>
        <pt x="641" y="195" on="1"/>
        <pt x="821" y="195" on="0"/>
        <pt x="989" y="274" on="1"/>
        <pt x="989" y="76" on="1"/>
        <pt x="819" y="-16" on="0"/>
        <pt x="604" y="-16" on="1"/>
        <pt x="536" y="-16" on="0"/>
        <pt x="416" y="6" on="0"/>
        <pt x="285" y="76" on="0"/>
        <pt x="190" y="184" on="0"/>
        <pt x="129" y="375" on="0"/>
      </contour>
      <contour>
        <pt x="309" y="1155" on="1"/>
        <pt x="309" y="1350" on="1"/>
        <pt x="516" y="1350" on="1"/>
        <pt x="516" y="1155" on="1"/>
      </contour>
      <contour>
        <pt x="381" y="588" on="1"/>
        <pt x="793" y="588" on="1"/>
        <pt x="783" y="694" on="0"/>
        <pt x="678" y="840" on="0"/>
        <pt x="494" y="840" on="0"/>
        <pt x="391" y="721" on="0"/>
      </contour>
      <contour>
        <pt x="637" y="1155" on="1"/>
        <pt x="637" y="1350" on="1"/>
        <pt x="844" y="1350" on="1"/>
        <pt x="844" y="1155" on="1"/>
      </contour>
    </TTGlyph>
    <TTGlyph name="egrave" xMin="129" yMin="-16" xMax="1042" yMax="1395">
      <contour>
        <pt x="129" y="500" on="1"/>
        <pt x="129" y="746" on="0"/>
        <pt x="348" y="1040" on="0"/>
        <pt x="586" y="1040" on="1"/>
        <pt x="811" y="1040" on="0"/>
        <pt x="1042" y="754" on="0"/>
        <pt x="1042" y="545" on="1"/>
        <pt x="1042" y="459" on="0"/>
        <pt x="1038" y="418" on="1"/>
        <pt x="381" y="418" on="1"/>
        <pt x="391" y="285" on="0"/>
        <pt x="530" y="195" on="0"/>
        <pt x="641" y="195" on="1"/>
        <pt x="821" y="195" on="0"/>
        <pt x="989" y="274" on="1"/>
        <pt x="989" y="76" on="1"/>
        <pt x="819" y="-16" on="0"/>
        <pt x="604" y="-16" on="1"/>
        <pt x="536" y="-16" on="0"/>
        <pt x="416" y="6" on="0"/>
        <pt x="285" y="76" on="0"/>
        <pt x="190" y="184" on="0"/>
        <pt x="129" y="375" on="0"/>
      </contour>
      <contour>
        <pt x="334" y="1395" on="1"/>
        <pt x="535" y="1395" on="1"/>
        <pt x="662" y="1155" on="1"/>
        <pt x="524" y="1155" on="1"/>
      </contour>
      <contour>
        <pt x="381" y="588" on="1"/>
        <pt x="793" y="588" on="1"/>
        <pt x="783" y="694" on="0"/>
        <pt x="678" y="840" on="0"/>
        <pt x="494" y="840" on="0"/>
        <pt x="391" y="721" on="0"/>
      </contour>
    </TTGlyph>
    <TTGlyph name="eight" xMin="129" yMin="-16" xMax="1112" yMax="1384">
      <contour>
        <pt x="129" y="408" on="1"/>
        <pt x="129" y="482" on="0"/>
        <pt x="180" y="602" on="0"/>
        <pt x="252" y="670" on="0"/>
        <pt x="326" y="717" on="0"/>
        <pt x="352" y="725" on="1"/>
        <pt x="377" y="733" on="1"/>
        <pt x="369" y="735" on="0"/>
        <pt x="342" y="745" on="0"/>
        <pt x="272" y="788" on="0"/>
        <pt x="219" y="844" on="0"/>
        <pt x="176" y="950" on="0"/>
        <pt x="176" y="1016" on="1"/>
        <pt x="176" y="1188" on="0"/>
        <pt x="414" y="1384" on="0"/>
        <pt x="827" y="1384" on="0"/>
        <pt x="1065" y="1188" on="0"/>
        <pt x="1065" y="1016" on="1"/>
        <pt x="1065" y="828" on="0"/>
        <pt x="907" y="750" on="1"/>
        <pt x="866" y="733" on="1"/>
        <pt x="876" y="731" on="0"/>
        <pt x="909" y="719" on="0"/>
        <pt x="993" y="670" on="0"/>
        <pt x="1059" y="602" on="0"/>
        <pt x="1112" y="481" on="0"/>
        <pt x="1112" y="408" on="1"/>
        <pt x="1112" y="209" on="0"/>
        <pt x="854" y="-16" on="0"/>
        <pt x="387" y="-16" on="0"/>
        <pt x="129" y="209" on="0"/>
      </contour>
      <contour>
        <pt x="375" y="416" on="1"/>
        <pt x="375" y="305" on="0"/>
        <pt x="498" y="176" on="0"/>
        <pt x="743" y="176" on="0"/>
        <pt x="866" y="303" on="0"/>
        <pt x="866" y="416" on="1"/>
        <pt x="866" y="498" on="0"/>
        <pt x="739" y="616" on="0"/>
        <pt x="502" y="616" on="0"/>
        <pt x="375" y="498" on="0"/>
      </contour>
      <contour>
        <pt x="422" y="1010" on="1"/>
        <pt x="422" y="912" on="0"/>
        <pt x="541" y="827" on="0"/>
        <pt x="700" y="827" on="0"/>
        <pt x="819" y="911" on="0"/>
        <pt x="819" y="1010" on="1"/>
        <pt x="819" y="1084" on="0"/>
        <pt x="717" y="1184" on="0"/>
        <pt x="524" y="1184" on="0"/>
        <pt x="422" y="1083" on="0"/>
      </contour>
    </TTGlyph>
    <TTGlyph name="ellipsis" xMin="219" yMin="0" xMax="1505" yMax="227">
      <contour>
        <pt x="219" y="0" on="1"/>
        <pt x="219" y="227" on="1"/>
        <pt x="459" y="227" on="1"/>
        <pt x="459" y="0" on="1"/>
      </contour>
      <contour>
        <pt x="743" y="0" on="1"/>
        <pt x="743" y="227" on="1"/>
        <pt x="983" y="227" on="1"/>
        <pt x="983" y="0" on="1"/>
      </contour>
      <contour>
        <pt x="1266" y="0" on="1"/>
        <pt x="1266" y="227" on="1"/>
        <pt x="1505" y="227" on="1"/>
        <pt x="1505" y="0" on="1"/>
      </contour>
    </TTGlyph>
    <TTGlyph name="emdash" xMin="162" yMin="500" xMax="1663" yMax="692">
      <contour>
        <pt x="162" y="500" on="1"/>
        <pt x="162" y="692" on="1"/>
        <pt x="1663" y="692" on="1"/>
        <pt x="1663" y="500" on="1"/>
      </contour>
    </TTGlyph>
    <TTGlyph name="endash" xMin="141" yMin="500" xMax="1001" yMax="692">
      <contour>
        <pt x="141" y="500" on="1"/>
        <pt x="141" y="692" on="1"/>
        <pt x="1001" y="692" on="1"/>
        <pt x="1001" y="500" on="1"/>
      </contour>
    </TTGlyph>
    <TTGlyph name="equal" xMin="260" yMin="348" xMax="1049" yMax="874">
      <contour>
        <pt x="260" y="348" on="1"/>
        <pt x="260" y="524" on="1"/>
        <pt x="1049" y="524" on="1"/>
        <pt x="1049" y="348" on="1"/>
      </contour>
      <contour>
        <pt x="260" y="698" on="1"/>
        <pt x="260" y="874" on="1"/>
        <pt x="1049" y="874" on="1"/>
        <pt x="1049" y="698" on="1"/>
      </contour>
    </TTGlyph>
    <TTGlyph name="eth" xMin="117" yMin="-16" xMax="1085" yMax="1421">
      <contour>
        <pt x="117" y="461" on="1"/>
        <pt x="117" y="672" on="0"/>
        <pt x="358" y="913" on="0"/>
        <pt x="580" y="913" on="1"/>
        <pt x="740" y="913" on="0"/>
        <pt x="829" y="844" on="1"/>
        <pt x="802" y="996" on="0"/>
        <pt x="684" y="1081" on="1"/>
        <pt x="504" y="958" on="1"/>
        <pt x="426" y="1071" on="1"/>
        <pt x="530" y="1145" on="1"/>
        <pt x="489" y="1155" on="0"/>
        <pt x="440" y="1155" on="1"/>
        <pt x="358" y="1155" on="0"/>
        <pt x="295" y="1145" on="1"/>
        <pt x="295" y="1364" on="1"/>
        <pt x="387" y="1384" on="0"/>
        <pt x="455" y="1384" on="1"/>
        <pt x="633" y="1384" on="0"/>
        <pt x="770" y="1309" on="1"/>
        <pt x="932" y="1421" on="1"/>
        <pt x="1010" y="1307" on="1"/>
        <pt x="887" y="1223" on="1"/>
        <pt x="1086" y="1028" on="0"/>
        <pt x="1085" y="629" on="1"/>
        <pt x="1085" y="-16" on="0"/>
        <pt x="600" y="-16" on="1"/>
        <pt x="473" y="-16" on="0"/>
        <pt x="279" y="70" on="0"/>
        <pt x="170" y="213" on="0"/>
        <pt x="117" y="375" on="0"/>
      </contour>
      <contour>
        <pt x="365" y="463" on="1"/>
        <pt x="365" y="432" on="0"/>
        <pt x="379" y="362" on="0"/>
        <pt x="420" y="264" on="0"/>
        <pt x="524" y="201" on="0"/>
        <pt x="600" y="201" on="1"/>
        <pt x="639" y="201" on="0"/>
        <pt x="713" y="233" on="0"/>
        <pt x="797" y="315" on="0"/>
        <pt x="820" y="406" on="1"/>
        <pt x="839" y="482" on="0"/>
        <pt x="839" y="585" on="1"/>
        <pt x="839" y="604" on="0"/>
        <pt x="838" y="623" on="1"/>
        <pt x="735" y="692" on="0"/>
        <pt x="604" y="692" on="1"/>
        <pt x="602" y="692" on="0"/>
        <pt x="600" y="692" on="1"/>
        <pt x="487" y="692" on="0"/>
        <pt x="365" y="567" on="0"/>
      </contour>
    </TTGlyph>
    <TTGlyph name="exclam" xMin="283" yMin="0" xMax="563" yMax="1366">
      <contour>
        <pt x="283" y="1366" on="1"/>
        <pt x="563" y="1366" on="1"/>
        <pt x="518" y="393" on="1"/>
        <pt x="328" y="393" on="1"/>
      </contour>
      <contour>
        <pt x="303" y="0" on="1"/>
        <pt x="303" y="227" on="1"/>
        <pt x="543" y="227" on="1"/>
        <pt x="543" y="0" on="1"/>
      </contour>
    </TTGlyph>
    <TTGlyph name="exclamdown" xMin="283" yMin="-344" xMax="563" yMax="1022">
      <contour>
        <pt x="283" y="-344" on="1"/>
        <pt x="328" y="629" on="1"/>
        <pt x="518" y="629" on="1"/>
        <pt x="563" y="-344" on="1"/>
      </contour>
      <contour>
        <pt x="303" y="795" on="1"/>
        <pt x="303" y="1022" on="1"/>
        <pt x="543" y="1022" on="1"/>
        <pt x="543" y="795" on="1"/>
      </contour>
    </TTGlyph>
    <TTGlyph name="f" xMin="82" yMin="0" xMax="737" yMax="1446">
      <contour>
        <pt x="82" y="811" on="1"/>
        <pt x="82" y="1022" on="1"/>
        <pt x="256" y="1022" on="1"/>
        <pt x="258" y="1446" on="0"/>
        <pt x="637" y="1446" on="1"/>
        <pt x="686" y="1446" on="0"/>
        <pt x="737" y="1436" on="1"/>
        <pt x="737" y="1243" on="1"/>
        <pt x="700" y="1247" on="0"/>
        <pt x="682" y="1247" on="1"/>
        <pt x="586" y="1247" on="0"/>
        <pt x="502" y="1155" on="0"/>
        <pt x="502" y="1022" on="1"/>
        <pt x="737" y="1022" on="1"/>
        <pt x="737" y="811" on="1"/>
        <pt x="502" y="811" on="1"/>
        <pt x="502" y="0" on="1"/>
        <pt x="256" y="0" on="1"/>
        <pt x="256" y="811" on="1"/>
      </contour>
    </TTGlyph>
    <TTGlyph name="five" xMin="170" yMin="-18" xMax="1075" yMax="1366">
      <contour>
        <pt x="170" y="709" on="1"/>
        <pt x="244" y="1366" on="1"/>
        <pt x="995" y="1366" on="1"/>
        <pt x="995" y="1122" on="1"/>
        <pt x="453" y="1122" on="1"/>
        <pt x="449" y="1071" on="0"/>
        <pt x="432" y="920" on="0"/>
        <pt x="428" y="872" on="1"/>
        <pt x="524" y="890" on="0"/>
        <pt x="612" y="890" on="1"/>
        <pt x="614" y="891" on="0"/>
        <pt x="616" y="891" on="1"/>
        <pt x="702" y="891" on="0"/>
        <pt x="774" y="872" on="1"/>
        <pt x="848" y="852" on="0"/>
        <pt x="993" y="758" on="0"/>
        <pt x="1075" y="569" on="0"/>
        <pt x="1075" y="436" on="1"/>
        <pt x="1075" y="301" on="0"/>
        <pt x="993" y="113" on="0"/>
        <pt x="854" y="20" on="0"/>
        <pt x="707" y="-18" on="0"/>
        <pt x="618" y="-18" on="1"/>
        <pt x="391" y="-18" on="0"/>
        <pt x="203" y="78" on="1"/>
        <pt x="203" y="326" on="1"/>
        <pt x="393" y="205" on="0"/>
        <pt x="604" y="205" on="1"/>
        <pt x="831" y="205" on="0"/>
        <pt x="831" y="416" on="1"/>
        <pt x="831" y="426" on="0"/>
        <pt x="831" y="436" on="1"/>
        <pt x="821" y="655" on="0"/>
        <pt x="608" y="659" on="1"/>
        <pt x="603" y="659" on="0"/>
        <pt x="599" y="659" on="1"/>
        <pt x="425" y="659" on="0"/>
        <pt x="307" y="586" on="1"/>
      </contour>
    </TTGlyph>
    <TTGlyph name="four" xMin="78" yMin="0" xMax="1112" yMax="1366">
      <contour>
        <pt x="78" y="385" on="1"/>
        <pt x="78" y="588" on="1"/>
        <pt x="700" y="1366" on="1"/>
        <pt x="934" y="1366" on="1"/>
        <pt x="934" y="604" on="1"/>
        <pt x="1112" y="604" on="1"/>
        <pt x="1112" y="385" on="1"/>
        <pt x="934" y="385" on="1"/>
        <pt x="934" y="0" on="1"/>
        <pt x="688" y="0" on="1"/>
        <pt x="688" y="385" on="1"/>
      </contour>
      <contour>
        <pt x="365" y="604" on="1"/>
        <pt x="688" y="604" on="1"/>
        <pt x="688" y="1024" on="1"/>
      </contour>
    </TTGlyph>
    <TTGlyph name="g" xMin="123" yMin="-399" xMax="985" yMax="1038">
      <contour>
        <pt x="123" y="514" on="1"/>
        <pt x="123" y="649" on="0"/>
        <pt x="193" y="850" on="0"/>
        <pt x="289" y="956" on="0"/>
        <pt x="420" y="1022" on="0"/>
        <pt x="518" y="1038" on="0"/>
        <pt x="567" y="1038" on="1"/>
        <pt x="782" y="1038" on="0"/>
        <pt x="985" y="842" on="0"/>
        <pt x="985" y="702" on="1"/>
        <pt x="985" y="-25" on="1"/>
        <pt x="985" y="-74" on="0"/>
        <pt x="967" y="-162" on="0"/>
        <pt x="909" y="-270" on="0"/>
        <pt x="813" y="-346" on="0"/>
        <pt x="639" y="-399" on="0"/>
        <pt x="524" y="-399" on="1"/>
        <pt x="362" y="-399" on="0"/>
        <pt x="229" y="-358" on="1"/>
        <pt x="229" y="-139" on="1"/>
        <pt x="352" y="-180" on="0"/>
        <pt x="496" y="-180" on="1"/>
        <pt x="582" y="-180" on="0"/>
        <pt x="690" y="-154" on="0"/>
        <pt x="729" y="-98" on="0"/>
        <pt x="739" y="-59" on="0"/>
        <pt x="739" y="-25" on="1"/>
        <pt x="739" y="31" on="1"/>
        <pt x="657" y="15" on="0"/>
        <pt x="584" y="14" on="1"/>
        <pt x="361" y="14" on="0"/>
        <pt x="123" y="272" on="0"/>
      </contour>
      <contour>
        <pt x="369" y="510" on="1"/>
        <pt x="369" y="338" on="0"/>
        <pt x="479" y="215" on="0"/>
        <pt x="592" y="215" on="1"/>
        <pt x="667" y="215" on="0"/>
        <pt x="739" y="229" on="1"/>
        <pt x="739" y="705" on="1"/>
        <pt x="739" y="819" on="0"/>
        <pt x="570" y="819" on="1"/>
        <pt x="568" y="819" on="0"/>
        <pt x="567" y="819" on="1"/>
        <pt x="469" y="819" on="0"/>
        <pt x="369" y="676" on="0"/>
      </contour>
    </TTGlyph>
    <TTGlyph name="germandbls" xMin="180" yMin="-1" xMax="1151" yMax="1382">
      <contour>
        <pt x="180" y="0" on="1"/>
        <pt x="180" y="856" on="1"/>
        <pt x="180" y="1012" on="0"/>
        <pt x="260" y="1231" on="0"/>
        <pt x="397" y="1337" on="0"/>
        <pt x="541" y="1382" on="0"/>
        <pt x="625" y="1382" on="1"/>
        <pt x="848" y="1382" on="0"/>
        <pt x="1090" y="1156" on="0"/>
        <pt x="1090" y="1004" on="1"/>
        <pt x="1090" y="895" on="0"/>
        <pt x="963" y="739" on="0"/>
        <pt x="893" y="713" on="1"/>
        <pt x="930" y="703" on="0"/>
        <pt x="997" y="668" on="0"/>
        <pt x="1094" y="600" on="0"/>
        <pt x="1151" y="481" on="0"/>
        <pt x="1151" y="406" on="1"/>
        <pt x="1151" y="205" on="0"/>
        <pt x="991" y="96" on="1"/>
        <pt x="847" y="-1" on="0"/>
        <pt x="627" y="-1" on="1"/>
        <pt x="603" y="-1" on="0"/>
        <pt x="578" y="0" on="1"/>
        <pt x="578" y="199" on="1"/>
        <pt x="584" y="199" on="0"/>
        <pt x="590" y="199" on="1"/>
        <pt x="924" y="199" on="0"/>
        <pt x="924" y="414" on="1"/>
        <pt x="924" y="607" on="0"/>
        <pt x="578" y="618" on="1"/>
        <pt x="578" y="799" on="1"/>
        <pt x="644" y="799" on="0"/>
        <pt x="760" y="821" on="0"/>
        <pt x="870" y="915" on="0"/>
        <pt x="870" y="995" on="1"/>
        <pt x="870" y="1208" on="0"/>
        <pt x="651" y="1208" on="1"/>
        <pt x="600" y="1208" on="0"/>
        <pt x="524" y="1182" on="0"/>
        <pt x="449" y="1112" on="0"/>
        <pt x="408" y="963" on="0"/>
        <pt x="408" y="850" on="1"/>
        <pt x="408" y="0" on="1"/>
      </contour>
    </TTGlyph>
    <TTGlyph name="grave" xMin="92" yMin="1155" xMax="420" yMax="1395">
      <contour>
        <pt x="92" y="1395" on="1"/>
        <pt x="293" y="1395" on="1"/>
        <pt x="420" y="1155" on="1"/>
        <pt x="283" y="1155" on="1"/>
      </contour>
    </TTGlyph>
    <TTGlyph name="greater" xMin="270" yMin="98" xMax="1120" yMax="1004">
      <contour>
        <pt x="270" y="98" on="1"/>
        <pt x="270" y="309" on="1"/>
        <pt x="887" y="551" on="1"/>
        <pt x="270" y="793" on="1"/>
        <pt x="270" y="1004" on="1"/>
        <pt x="1120" y="625" on="1"/>
        <pt x="1120" y="477" on="1"/>
      </contour>
    </TTGlyph>
    <TTGlyph name="guillemotleft" xMin="66" yMin="131" xMax="1155" yMax="911">
      <contour>
        <pt x="66" y="522" on="1"/>
        <pt x="412" y="911" on="1"/>
        <pt x="698" y="911" on="1"/>
        <pt x="326" y="522" on="1"/>
        <pt x="698" y="131" on="1"/>
        <pt x="412" y="131" on="1"/>
      </contour>
      <contour>
        <pt x="522" y="522" on="1"/>
        <pt x="868" y="911" on="1"/>
        <pt x="1155" y="911" on="1"/>
        <pt x="782" y="522" on="1"/>
        <pt x="1155" y="131" on="1"/>
        <pt x="868" y="131" on="1"/>
      </contour>
    </TTGlyph>
    <TTGlyph name="guillemotright" xMin="106" yMin="131" xMax="1196" yMax="911">
      <contour>
        <pt x="106" y="131" on="1"/>
        <pt x="479" y="520" on="1"/>
        <pt x="106" y="911" on="1"/>
        <pt x="393" y="911" on="1"/>
        <pt x="739" y="520" on="1"/>
        <pt x="393" y="131" on="1"/>
      </contour>
      <contour>
        <pt x="563" y="131" on="1"/>
        <pt x="936" y="520" on="1"/>
        <pt x="563" y="911" on="1"/>
        <pt x="850" y="911" on="1"/>
        <pt x="1196" y="520" on="1"/>
        <pt x="850" y="131" on="1"/>
      </contour>
    </TTGlyph>
    <TTGlyph name="guilsinglleft" xMin="63" yMin="131" xMax="696" yMax="911">
      <contour>
        <pt x="63" y="522" on="1"/>
        <pt x="410" y="911" on="1"/>
        <pt x="696" y="911" on="1"/>
        <pt x="324" y="522" on="1"/>
        <pt x="696" y="131" on="1"/>
        <pt x="410" y="131" on="1"/>
      </contour>
    </TTGlyph>
    <TTGlyph name="guilsinglright" xMin="111" yMin="131" xMax="743" yMax="911">
      <contour>
        <pt x="111" y="131" on="1"/>
        <pt x="483" y="520" on="1"/>
        <pt x="111" y="911" on="1"/>
        <pt x="397" y="911" on="1"/>
        <pt x="743" y="520" on="1"/>
        <pt x="397" y="131" on="1"/>
      </contour>
    </TTGlyph>
    <TTGlyph name="h" xMin="193" yMin="0" xMax="1096" yMax="1411">
      <contour>
        <pt x="193" y="0" on="1"/>
        <pt x="193" y="1411" on="1"/>
        <pt x="438" y="1411" on="1"/>
        <pt x="438" y="1004" on="1"/>
        <pt x="526" y="1038" on="0"/>
        <pt x="643" y="1038" on="1"/>
        <pt x="856" y="1038" on="0"/>
        <pt x="1096" y="815" on="0"/>
        <pt x="1096" y="614" on="1"/>
        <pt x="1096" y="0" on="1"/>
        <pt x="852" y="0" on="1"/>
        <pt x="852" y="635" on="1"/>
        <pt x="852" y="676" on="0"/>
        <pt x="838" y="731" on="0"/>
        <pt x="791" y="791" on="0"/>
        <pt x="684" y="821" on="0"/>
        <pt x="602" y="821" on="1"/>
        <pt x="506" y="821" on="0"/>
        <pt x="438" y="791" on="1"/>
        <pt x="438" y="0" on="1"/>
      </contour>
    </TTGlyph>
    <TTGlyph name="hyphen" xMin="162" yMin="514" xMax="786" yMax="707">
      <contour>
        <pt x="162" y="514" on="1"/>
        <pt x="162" y="707" on="1"/>
        <pt x="786" y="707" on="1"/>
        <pt x="786" y="514" on="1"/>
      </contour>
    </TTGlyph>
    <TTGlyph name="i" xMin="193" yMin="0" xMax="444" yMax="1386">
      <contour>
        <pt x="193" y="1161" on="1"/>
        <pt x="193" y="1386" on="1"/>
        <pt x="444" y="1386" on="1"/>
        <pt x="444" y="1161" on="1"/>
      </contour>
      <contour>
        <pt x="197" y="0" on="1"/>
        <pt x="197" y="1022" on="1"/>
        <pt x="442" y="1022" on="1"/>
        <pt x="442" y="0" on="1"/>
      </contour>
    </TTGlyph>
    <TTGlyph name="iacute" xMin="197" yMin="0" xMax="575" yMax="1395">
      <contour>
        <pt x="197" y="0" on="1"/>
        <pt x="442" y="0" on="1"/>
        <pt x="442" y="1022" on="1"/>
        <pt x="197" y="1022" on="1"/>
      </contour>
      <contour>
        <pt x="248" y="1155" on="1"/>
        <pt x="375" y="1395" on="1"/>
        <pt x="575" y="1395" on="1"/>
        <pt x="385" y="1155" on="1"/>
      </contour>
    </TTGlyph>
    <TTGlyph name="icircumflex" xMin="84" yMin="0" xMax="557" yMax="1405">
      <contour>
        <pt x="84" y="1155" on="1"/>
        <pt x="270" y="1405" on="1"/>
        <pt x="369" y="1405" on="1"/>
        <pt x="557" y="1155" on="1"/>
        <pt x="393" y="1155" on="1"/>
        <pt x="319" y="1270" on="1"/>
        <pt x="246" y="1155" on="1"/>
      </contour>
      <contour>
        <pt x="197" y="0" on="1"/>
        <pt x="442" y="0" on="1"/>
        <pt x="442" y="1022" on="1"/>
        <pt x="197" y="1022" on="1"/>
      </contour>
    </TTGlyph>
    <TTGlyph name="idieresis" xMin="53" yMin="0" xMax="588" yMax="1350">
      <contour>
        <pt x="53" y="1155" on="1"/>
        <pt x="53" y="1350" on="1"/>
        <pt x="260" y="1350" on="1"/>
        <pt x="260" y="1155" on="1"/>
      </contour>
      <contour>
        <pt x="197" y="0" on="1"/>
        <pt x="442" y="0" on="1"/>
        <pt x="442" y="1022" on="1"/>
        <pt x="197" y="1022" on="1"/>
      </contour>
      <contour>
        <pt x="381" y="1155" on="1"/>
        <pt x="381" y="1350" on="1"/>
        <pt x="588" y="1350" on="1"/>
        <pt x="588" y="1155" on="1"/>
      </contour>
    </TTGlyph>
    <TTGlyph name="igrave" xMin="63" yMin="0" xMax="442" yMax="1395">
      <contour>
        <pt x="63" y="1395" on="1"/>
        <pt x="264" y="1395" on="1"/>
        <pt x="391" y="1155" on="1"/>
        <pt x="254" y="1155" on="1"/>
      </contour>
      <contour>
        <pt x="197" y="0" on="1"/>
        <pt x="442" y="0" on="1"/>
        <pt x="442" y="1022" on="1"/>
        <pt x="197" y="1022" on="1"/>
      </contour>
    </TTGlyph>
    <TTGlyph name="j" xMin="6" yMin="-395" xMax="444" yMax="1386">
      <contour>
        <pt x="6" y="-205" on="1"/>
        <pt x="76" y="-201" on="0"/>
        <pt x="160" y="-174" on="0"/>
        <pt x="190" y="-117" on="0"/>
        <pt x="197" y="-76" on="0"/>
        <pt x="197" y="-31" on="1"/>
        <pt x="197" y="1022" on="1"/>
        <pt x="442" y="1022" on="1"/>
        <pt x="442" y="-14" on="1"/>
        <pt x="442" y="-80" on="0"/>
        <pt x="428" y="-174" on="0"/>
        <pt x="375" y="-279" on="0"/>
        <pt x="283" y="-344" on="0"/>
        <pt x="119" y="-391" on="0"/>
        <pt x="6" y="-395" on="1"/>
      </contour>
      <contour>
        <pt x="193" y="1161" on="1"/>
        <pt x="193" y="1386" on="1"/>
        <pt x="444" y="1386" on="1"/>
        <pt x="444" y="1161" on="1"/>
      </contour>
    </TTGlyph>
    <TTGlyph name="k" xMin="188" yMin="0" xMax="1151" yMax="1405">
      <contour>
        <pt x="188" y="0" on="1"/>
        <pt x="188" y="1405" on="1"/>
        <pt x="434" y="1405" on="1"/>
        <pt x="434" y="647" on="1"/>
        <pt x="778" y="1022" on="1"/>
        <pt x="1104" y="1022" on="1"/>
        <pt x="659" y="567" on="1"/>
        <pt x="1151" y="0" on="1"/>
        <pt x="840" y="0" on="1"/>
        <pt x="502" y="403" on="1"/>
        <pt x="434" y="334" on="1"/>
        <pt x="434" y="0" on="1"/>
      </contour>
    </TTGlyph>
    <TTGlyph name="l" xMin="207" yMin="0" xMax="453" yMax="1411">
      <contour>
        <pt x="207" y="0" on="1"/>
        <pt x="207" y="1411" on="1"/>
        <pt x="453" y="1411" on="1"/>
        <pt x="453" y="0" on="1"/>
      </contour>
    </TTGlyph>
    <TTGlyph name="less" xMin="246" yMin="98" xMax="1096" yMax="1004">
      <contour>
        <pt x="246" y="477" on="1"/>
        <pt x="246" y="625" on="1"/>
        <pt x="1096" y="1004" on="1"/>
        <pt x="1096" y="793" on="1"/>
        <pt x="479" y="551" on="1"/>
        <pt x="1096" y="309" on="1"/>
        <pt x="1096" y="98" on="1"/>
      </contour>
    </TTGlyph>
    <TTGlyph name="logicalnot" xMin="199" yMin="295" xMax="1075" yMax="684">
      <contour>
        <pt x="199" y="492" on="1"/>
        <pt x="199" y="684" on="1"/>
        <pt x="1075" y="684" on="1"/>
        <pt x="1075" y="295" on="1"/>
        <pt x="899" y="295" on="1"/>
        <pt x="899" y="492" on="1"/>
      </contour>
    </TTGlyph>
    <TTGlyph name="m" xMin="193" yMin="0" xMax="1726" yMax="1038">
      <contour>
        <pt x="193" y="0" on="1"/>
        <pt x="193" y="924" on="1"/>
        <pt x="420" y="1038" on="0"/>
        <pt x="639" y="1038" on="1"/>
        <pt x="641" y="1038" on="0"/>
        <pt x="643" y="1038" on="1"/>
        <pt x="809" y="1038" on="0"/>
        <pt x="920" y="963" on="1"/>
        <pt x="1110" y="1038" on="0"/>
        <pt x="1288" y="1038" on="1"/>
        <pt x="1495" y="1038" on="0"/>
        <pt x="1726" y="813" on="0"/>
        <pt x="1726" y="614" on="1"/>
        <pt x="1726" y="0" on="1"/>
        <pt x="1481" y="0" on="1"/>
        <pt x="1481" y="631" on="1"/>
        <pt x="1481" y="729" on="0"/>
        <pt x="1382" y="829" on="0"/>
        <pt x="1247" y="829" on="1"/>
        <pt x="1141" y="829" on="0"/>
        <pt x="1038" y="805" on="1"/>
        <pt x="1081" y="756" on="0"/>
        <pt x="1081" y="614" on="1"/>
        <pt x="1081" y="0" on="1"/>
        <pt x="838" y="0" on="1"/>
        <pt x="838" y="637" on="1"/>
        <pt x="838" y="731" on="0"/>
        <pt x="741" y="825" on="0"/>
        <pt x="608" y="825" on="1"/>
        <pt x="520" y="825" on="0"/>
        <pt x="438" y="809" on="1"/>
        <pt x="438" y="0" on="1"/>
      </contour>
    </TTGlyph>
    <TTGlyph name="macron" xMin="176" yMin="1180" xMax="655" yMax="1325">
      <contour>
        <pt x="176" y="1180" on="1"/>
        <pt x="176" y="1325" on="1"/>
        <pt x="655" y="1325" on="1"/>
        <pt x="655" y="1180" on="1"/>
      </contour>
    </TTGlyph>
    <TTGlyph name="multiply" xMin="156" yMin="160" xMax="905" yMax="889">
      <contour>
        <pt x="156" y="160" on="1"/>
        <pt x="438" y="524" on="1"/>
        <pt x="156" y="889" on="1"/>
        <pt x="340" y="889" on="1"/>
        <pt x="530" y="643" on="1"/>
        <pt x="723" y="889" on="1"/>
        <pt x="905" y="889" on="1"/>
        <pt x="625" y="524" on="1"/>
        <pt x="905" y="160" on="1"/>
        <pt x="723" y="160" on="1"/>
        <pt x="530" y="403" on="1"/>
        <pt x="340" y="160" on="1"/>
      </contour>
    </TTGlyph>
    <TTGlyph name="n" xMin="168" yMin="0" xMax="1090" yMax="1038">
      <contour>
        <pt x="168" y="0" on="1"/>
        <pt x="168" y="926" on="1"/>
        <pt x="393" y="1038" on="0"/>
        <pt x="637" y="1038" on="1"/>
        <pt x="850" y="1038" on="0"/>
        <pt x="1090" y="815" on="0"/>
        <pt x="1090" y="614" on="1"/>
        <pt x="1090" y="0" on="1"/>
        <pt x="846" y="0" on="1"/>
        <pt x="846" y="635" on="1"/>
        <pt x="846" y="676" on="0"/>
        <pt x="831" y="731" on="0"/>
        <pt x="786" y="791" on="0"/>
        <pt x="684" y="821" on="0"/>
        <pt x="604" y="821" on="1"/>
        <pt x="514" y="821" on="0"/>
        <pt x="414" y="803" on="1"/>
        <pt x="414" y="0" on="1"/>
      </contour>
    </TTGlyph>
    <TTGlyph name="nine" xMin="117" yMin="-16" xMax="1085" yMax="1384">
      <contour>
        <pt x="117" y="907" on="1"/>
        <pt x="117" y="993" on="0"/>
        <pt x="170" y="1155" on="0"/>
        <pt x="279" y="1298" on="0"/>
        <pt x="473" y="1384" on="0"/>
        <pt x="600" y="1384" on="1"/>
        <pt x="1085" y="1384" on="0"/>
        <pt x="1085" y="739" on="1"/>
        <pt x="1085" y="544" on="0"/>
        <pt x="987" y="254" on="0"/>
        <pt x="852" y="100" on="0"/>
        <pt x="664" y="8" on="0"/>
        <pt x="526" y="-16" on="0"/>
        <pt x="455" y="-16" on="1"/>
        <pt x="355" y="-16" on="0"/>
        <pt x="219" y="23" on="1"/>
        <pt x="219" y="240" on="1"/>
        <pt x="301" y="213" on="0"/>
        <pt x="440" y="213" on="1"/>
        <pt x="487" y="213" on="0"/>
        <pt x="590" y="238" on="0"/>
        <pt x="715" y="297" on="0"/>
        <pt x="813" y="430" on="0"/>
        <pt x="829" y="524" on="1"/>
        <pt x="740" y="455" on="0"/>
        <pt x="580" y="455" on="1"/>
        <pt x="359" y="455" on="0"/>
        <pt x="117" y="696" on="0"/>
      </contour>
      <contour>
        <pt x="365" y="905" on="1"/>
        <pt x="365" y="801" on="0"/>
        <pt x="487" y="676" on="0"/>
        <pt x="600" y="676" on="1"/>
        <pt x="733" y="676" on="0"/>
        <pt x="838" y="745" on="1"/>
        <pt x="839" y="764" on="0"/>
        <pt x="839" y="783" on="1"/>
        <pt x="839" y="886" on="0"/>
        <pt x="820" y="962" on="1"/>
        <pt x="797" y="1053" on="0"/>
        <pt x="713" y="1135" on="0"/>
        <pt x="639" y="1167" on="0"/>
        <pt x="600" y="1167" on="1"/>
        <pt x="524" y="1167" on="0"/>
        <pt x="420" y="1104" on="0"/>
        <pt x="379" y="1006" on="0"/>
        <pt x="365" y="936" on="0"/>
      </contour>
    </TTGlyph>
    <TTGlyph name="ntilde" xMin="168" yMin="0" xMax="1090" yMax="1384">
      <contour>
        <pt x="168" y="0" on="1"/>
        <pt x="168" y="926" on="1"/>
        <pt x="393" y="1038" on="0"/>
        <pt x="637" y="1038" on="1"/>
        <pt x="850" y="1038" on="0"/>
        <pt x="1090" y="815" on="0"/>
        <pt x="1090" y="614" on="1"/>
        <pt x="1090" y="0" on="1"/>
        <pt x="846" y="0" on="1"/>
        <pt x="846" y="635" on="1"/>
        <pt x="846" y="676" on="0"/>
        <pt x="831" y="731" on="0"/>
        <pt x="786" y="791" on="0"/>
        <pt x="684" y="821" on="0"/>
        <pt x="604" y="821" on="1"/>
        <pt x="514" y="821" on="0"/>
        <pt x="414" y="803" on="1"/>
        <pt x="414" y="0" on="1"/>
      </contour>
      <contour>
        <pt x="326" y="1153" on="1"/>
        <pt x="326" y="1309" on="1"/>
        <pt x="383" y="1377" on="0"/>
        <pt x="450" y="1383" on="1"/>
        <pt x="460" y="1384" on="0"/>
        <pt x="471" y="1384" on="1"/>
        <pt x="526" y="1384" on="0"/>
        <pt x="576" y="1358" on="1"/>
        <pt x="698" y="1298" on="1"/>
        <pt x="750" y="1273" on="0"/>
        <pt x="803" y="1273" on="1"/>
        <pt x="814" y="1273" on="0"/>
        <pt x="826" y="1274" on="1"/>
        <pt x="891" y="1280" on="0"/>
        <pt x="948" y="1348" on="1"/>
        <pt x="948" y="1192" on="1"/>
        <pt x="891" y="1124" on="0"/>
        <pt x="826" y="1118" on="1"/>
        <pt x="814" y="1117" on="0"/>
        <pt x="803" y="1117" on="1"/>
        <pt x="750" y="1117" on="0"/>
        <pt x="698" y="1142" on="1"/>
        <pt x="576" y="1202" on="1"/>
        <pt x="526" y="1228" on="0"/>
        <pt x="471" y="1228" on="1"/>
        <pt x="460" y="1228" on="0"/>
        <pt x="450" y="1227" on="1"/>
        <pt x="383" y="1221" on="0"/>
      </contour>
    </TTGlyph>
    <TTGlyph name="numbersign" xMin="152" yMin="39" xMax="1094" yMax="1069">
      <contour>
        <pt x="152" y="256" on="1"/>
        <pt x="152" y="408" on="1"/>
        <pt x="332" y="408" on="1"/>
        <pt x="383" y="700" on="1"/>
        <pt x="209" y="700" on="1"/>
        <pt x="209" y="852" on="1"/>
        <pt x="410" y="852" on="1"/>
        <pt x="446" y="1069" on="1"/>
        <pt x="608" y="1069" on="1"/>
        <pt x="569" y="852" on="1"/>
        <pt x="801" y="852" on="1"/>
        <pt x="840" y="1069" on="1"/>
        <pt x="999" y="1069" on="1"/>
        <pt x="961" y="852" on="1"/>
        <pt x="1094" y="852" on="1"/>
        <pt x="1094" y="700" on="1"/>
        <pt x="936" y="700" on="1"/>
        <pt x="885" y="408" on="1"/>
        <pt x="1038" y="408" on="1"/>
        <pt x="1038" y="256" on="1"/>
        <pt x="860" y="256" on="1"/>
        <pt x="821" y="39" on="1"/>
        <pt x="659" y="39" on="1"/>
        <pt x="698" y="256" on="1"/>
        <pt x="467" y="256" on="1"/>
        <pt x="430" y="39" on="1"/>
        <pt x="268" y="39" on="1"/>
        <pt x="307" y="256" on="1"/>
      </contour>
      <contour>
        <pt x="494" y="408" on="1"/>
        <pt x="725" y="408" on="1"/>
        <pt x="774" y="700" on="1"/>
        <pt x="545" y="700" on="1"/>
      </contour>
    </TTGlyph>
    <TTGlyph name="o" xMin="100" yMin="-16" xMax="1067" yMax="1036">
      <contour>
        <pt x="100" y="256" on="0"/>
        <pt x="100" y="764" on="0"/>
        <pt x="350" y="1036" on="0"/>
        <pt x="817" y="1036" on="0"/>
        <pt x="1067" y="764" on="0"/>
        <pt x="1067" y="256" on="0"/>
        <pt x="817" y="-16" on="0"/>
        <pt x="350" y="-16" on="0"/>
      </contour>
      <contour>
        <pt x="346" y="700" on="0"/>
        <pt x="346" y="319" on="0"/>
        <pt x="463" y="186" on="0"/>
        <pt x="705" y="186" on="0"/>
        <pt x="821" y="319" on="0"/>
        <pt x="821" y="700" on="0"/>
        <pt x="705" y="834" on="0"/>
        <pt x="463" y="834" on="0"/>
      </contour>
    </TTGlyph>
    <TTGlyph name="oacute" xMin="100" yMin="-16" xMax="1067" yMax="1395">
      <contour>
        <pt x="100" y="256" on="0"/>
        <pt x="100" y="764" on="0"/>
        <pt x="350" y="1036" on="0"/>
        <pt x="817" y="1036" on="0"/>
        <pt x="1067" y="764" on="0"/>
        <pt x="1067" y="256" on="0"/>
        <pt x="817" y="-16" on="0"/>
        <pt x="350" y="-16" on="0"/>
      </contour>
      <contour>
        <pt x="346" y="700" on="0"/>
        <pt x="346" y="319" on="0"/>
        <pt x="463" y="186" on="0"/>
        <pt x="705" y="186" on="0"/>
        <pt x="821" y="319" on="0"/>
        <pt x="821" y="700" on="0"/>
        <pt x="705" y="834" on="0"/>
        <pt x="463" y="834" on="0"/>
      </contour>
      <contour>
        <pt x="514" y="1155" on="1"/>
        <pt x="641" y="1395" on="1"/>
        <pt x="842" y="1395" on="1"/>
        <pt x="651" y="1155" on="1"/>
      </contour>
    </TTGlyph>
    <TTGlyph name="ocircumflex" xMin="100" yMin="-16" xMax="1067" yMax="1405">
      <contour>
        <pt x="100" y="256" on="0"/>
        <pt x="100" y="764" on="0"/>
        <pt x="350" y="1036" on="0"/>
        <pt x="817" y="1036" on="0"/>
        <pt x="1067" y="764" on="0"/>
        <pt x="1067" y="256" on="0"/>
        <pt x="817" y="-16" on="0"/>
        <pt x="350" y="-16" on="0"/>
      </contour>
      <contour>
        <pt x="346" y="700" on="0"/>
        <pt x="346" y="319" on="0"/>
        <pt x="463" y="186" on="0"/>
        <pt x="705" y="186" on="0"/>
        <pt x="821" y="319" on="0"/>
        <pt x="821" y="700" on="0"/>
        <pt x="705" y="834" on="0"/>
        <pt x="463" y="834" on="0"/>
      </contour>
      <contour>
        <pt x="348" y="1155" on="1"/>
        <pt x="535" y="1405" on="1"/>
        <pt x="633" y="1405" on="1"/>
        <pt x="821" y="1155" on="1"/>
        <pt x="657" y="1155" on="1"/>
        <pt x="584" y="1270" on="1"/>
        <pt x="510" y="1155" on="1"/>
      </contour>
    </TTGlyph>
    <TTGlyph name="odieresis" xMin="100" yMin="-16" xMax="1067" yMax="1350">
      <contour>
        <pt x="100" y="256" on="0"/>
        <pt x="100" y="764" on="0"/>
        <pt x="350" y="1036" on="0"/>
        <pt x="817" y="1036" on="0"/>
        <pt x="1067" y="764" on="0"/>
        <pt x="1067" y="256" on="0"/>
        <pt x="817" y="-16" on="0"/>
        <pt x="350" y="-16" on="0"/>
      </contour>
      <contour>
        <pt x="317" y="1155" on="1"/>
        <pt x="317" y="1350" on="1"/>
        <pt x="524" y="1350" on="1"/>
        <pt x="524" y="1155" on="1"/>
      </contour>
      <contour>
        <pt x="346" y="700" on="0"/>
        <pt x="346" y="319" on="0"/>
        <pt x="463" y="186" on="0"/>
        <pt x="705" y="186" on="0"/>
        <pt x="821" y="319" on="0"/>
        <pt x="821" y="700" on="0"/>
        <pt x="705" y="834" on="0"/>
        <pt x="463" y="834" on="0"/>
      </contour>
      <contour>
        <pt x="645" y="1155" on="1"/>
        <pt x="645" y="1350" on="1"/>
        <pt x="852" y="1350" on="1"/>
        <pt x="852" y="1155" on="1"/>
      </contour>
    </TTGlyph>
    <TTGlyph name="oe" xMin="98" yMin="-16" xMax="1733" yMax="1040">
      <contour>
        <pt x="98" y="258" on="0"/>
        <pt x="98" y="766" on="0"/>
        <pt x="348" y="1038" on="0"/>
        <pt x="582" y="1038" on="1"/>
        <pt x="811" y="1038" on="0"/>
        <pt x="938" y="905" on="1"/>
        <pt x="1057" y="1040" on="0"/>
        <pt x="1276" y="1040" on="1"/>
        <pt x="1501" y="1040" on="0"/>
        <pt x="1733" y="754" on="0"/>
        <pt x="1733" y="545" on="1"/>
        <pt x="1733" y="459" on="0"/>
        <pt x="1729" y="418" on="1"/>
        <pt x="1071" y="418" on="1"/>
        <pt x="1081" y="285" on="0"/>
        <pt x="1221" y="195" on="0"/>
        <pt x="1331" y="195" on="1"/>
        <pt x="1511" y="195" on="0"/>
        <pt x="1679" y="274" on="1"/>
        <pt x="1679" y="76" on="1"/>
        <pt x="1509" y="-16" on="0"/>
        <pt x="1294" y="-16" on="1"/>
        <pt x="1061" y="-16" on="0"/>
        <pt x="938" y="119" on="1"/>
        <pt x="815" y="-14" on="0"/>
        <pt x="348" y="-14" on="0"/>
      </contour>
      <contour>
        <pt x="344" y="702" on="0"/>
        <pt x="344" y="322" on="0"/>
        <pt x="461" y="188" on="0"/>
        <pt x="702" y="188" on="0"/>
        <pt x="819" y="322" on="0"/>
        <pt x="819" y="702" on="0"/>
        <pt x="702" y="836" on="0"/>
        <pt x="461" y="836" on="0"/>
      </contour>
      <contour>
        <pt x="1071" y="588" on="1"/>
        <pt x="1483" y="588" on="1"/>
        <pt x="1473" y="694" on="0"/>
        <pt x="1368" y="840" on="0"/>
        <pt x="1184" y="840" on="0"/>
        <pt x="1081" y="721" on="0"/>
      </contour>
    </TTGlyph>
    <TTGlyph name="ograve" xMin="100" yMin="-16" xMax="1067" yMax="1395">
      <contour>
        <pt x="100" y="256" on="0"/>
        <pt x="100" y="764" on="0"/>
        <pt x="350" y="1036" on="0"/>
        <pt x="817" y="1036" on="0"/>
        <pt x="1067" y="764" on="0"/>
        <pt x="1067" y="256" on="0"/>
        <pt x="817" y="-16" on="0"/>
        <pt x="350" y="-16" on="0"/>
      </contour>
      <contour>
        <pt x="326" y="1395" on="1"/>
        <pt x="526" y="1395" on="1"/>
        <pt x="653" y="1155" on="1"/>
        <pt x="516" y="1155" on="1"/>
      </contour>
      <contour>
        <pt x="346" y="700" on="0"/>
        <pt x="346" y="319" on="0"/>
        <pt x="463" y="186" on="0"/>
        <pt x="705" y="186" on="0"/>
        <pt x="821" y="319" on="0"/>
        <pt x="821" y="700" on="0"/>
        <pt x="705" y="834" on="0"/>
        <pt x="463" y="834" on="0"/>
      </contour>
    </TTGlyph>
    <TTGlyph name="one" xMin="211" yMin="0" xMax="700" yMax="1366">
      <contour>
        <pt x="211" y="936" on="1"/>
        <pt x="211" y="1198" on="1"/>
        <pt x="477" y="1366" on="1"/>
        <pt x="700" y="1366" on="1"/>
        <pt x="700" y="0" on="1"/>
        <pt x="455" y="0" on="1"/>
        <pt x="455" y="1085" on="1"/>
      </contour>
    </TTGlyph>
    <TTGlyph name="onehalf" xMin="109" yMin="-45" xMax="1423" yMax="1403">
      <contour>
        <pt x="109" y="1149" on="1"/>
        <pt x="109" y="1290" on="1"/>
        <pt x="252" y="1380" on="1"/>
        <pt x="373" y="1380" on="1"/>
        <pt x="373" y="645" on="1"/>
        <pt x="240" y="645" on="1"/>
        <pt x="240" y="1231" on="1"/>
      </contour>
      <contour>
        <pt x="168" y="-45" on="1"/>
        <pt x="1063" y="1403" on="1"/>
        <pt x="1227" y="1403" on="1"/>
        <pt x="332" y="-45" on="1"/>
      </contour>
      <contour>
        <pt x="936" y="0" on="1"/>
        <pt x="936" y="109" on="1"/>
        <pt x="1061" y="201" on="0"/>
        <pt x="1280" y="436" on="0"/>
        <pt x="1280" y="526" on="1"/>
        <pt x="1280" y="614" on="0"/>
        <pt x="1151" y="614" on="1"/>
        <pt x="1032" y="614" on="0"/>
        <pt x="942" y="549" on="1"/>
        <pt x="942" y="682" on="1"/>
        <pt x="1048" y="745" on="0"/>
        <pt x="1155" y="745" on="1"/>
        <pt x="1286" y="745" on="0"/>
        <pt x="1411" y="616" on="0"/>
        <pt x="1411" y="526" on="1"/>
        <pt x="1411" y="346" on="0"/>
        <pt x="1157" y="131" on="1"/>
        <pt x="1423" y="131" on="1"/>
        <pt x="1423" y="0" on="1"/>
      </contour>
    </TTGlyph>
    <TTGlyph name="onequarter" xMin="109" yMin="-45" xMax="1382" yMax="1403">
      <contour>
        <pt x="109" y="1149" on="1"/>
        <pt x="109" y="1290" on="1"/>
        <pt x="252" y="1380" on="1"/>
        <pt x="373" y="1380" on="1"/>
        <pt x="373" y="645" on="1"/>
        <pt x="240" y="645" on="1"/>
        <pt x="240" y="1231" on="1"/>
      </contour>
      <contour>
        <pt x="168" y="-45" on="1"/>
        <pt x="1063" y="1403" on="1"/>
        <pt x="1227" y="1403" on="1"/>
        <pt x="332" y="-45" on="1"/>
      </contour>
      <contour>
        <pt x="825" y="209" on="1"/>
        <pt x="825" y="317" on="1"/>
        <pt x="1161" y="735" on="1"/>
        <pt x="1286" y="735" on="1"/>
        <pt x="1286" y="326" on="1"/>
        <pt x="1382" y="326" on="1"/>
        <pt x="1382" y="209" on="1"/>
        <pt x="1286" y="209" on="1"/>
        <pt x="1286" y="0" on="1"/>
        <pt x="1155" y="0" on="1"/>
        <pt x="1155" y="209" on="1"/>
      </contour>
      <contour>
        <pt x="981" y="326" on="1"/>
        <pt x="1155" y="326" on="1"/>
        <pt x="1155" y="553" on="1"/>
      </contour>
    </TTGlyph>
    <TTGlyph name="ordfeminine" xMin="154" yMin="795" xMax="637" yMax="1382">
      <contour>
        <pt x="154" y="989" on="1"/>
        <pt x="154" y="1014" on="0"/>
        <pt x="168" y="1061" on="0"/>
        <pt x="211" y="1128" on="0"/>
        <pt x="317" y="1169" on="0"/>
        <pt x="397" y="1169" on="1"/>
        <pt x="436" y="1169" on="0"/>
        <pt x="498" y="1161" on="1"/>
        <pt x="498" y="1267" on="0"/>
        <pt x="377" y="1268" on="1"/>
        <pt x="279" y="1268" on="0"/>
        <pt x="211" y="1239" on="1"/>
        <pt x="211" y="1350" on="1"/>
        <pt x="289" y="1382" on="0"/>
        <pt x="385" y="1382" on="1"/>
        <pt x="506" y="1382" on="0"/>
        <pt x="637" y="1257" on="0"/>
        <pt x="637" y="1141" on="1"/>
        <pt x="637" y="987" on="1"/>
        <pt x="637" y="907" on="0"/>
        <pt x="520" y="795" on="0"/>
        <pt x="397" y="795" on="1"/>
        <pt x="272" y="795" on="0"/>
        <pt x="154" y="909" on="0"/>
      </contour>
      <contour>
        <pt x="289" y="1008" on="1"/>
        <pt x="289" y="916" on="0"/>
        <pt x="395" y="915" on="1"/>
        <pt x="500" y="916" on="0"/>
        <pt x="500" y="1004" on="1"/>
        <pt x="500" y="1075" on="1"/>
        <pt x="426" y="1081" on="0"/>
        <pt x="418" y="1081" on="1"/>
        <pt x="289" y="1081" on="0"/>
      </contour>
    </TTGlyph>
    <TTGlyph name="ordmasculine" xMin="152" yMin="797" xMax="692" yMax="1384">
      <contour>
        <pt x="152" y="1092" on="1"/>
        <pt x="152" y="1233" on="0"/>
        <pt x="291" y="1384" on="0"/>
        <pt x="553" y="1384" on="0"/>
        <pt x="692" y="1233" on="0"/>
        <pt x="692" y="1092" on="1"/>
        <pt x="692" y="949" on="0"/>
        <pt x="553" y="797" on="0"/>
        <pt x="291" y="797" on="0"/>
        <pt x="152" y="948" on="0"/>
      </contour>
      <contour>
        <pt x="289" y="1092" on="1"/>
        <pt x="289" y="986" on="0"/>
        <pt x="354" y="909" on="0"/>
        <pt x="422" y="909" on="1"/>
        <pt x="488" y="909" on="0"/>
        <pt x="555" y="985" on="0"/>
        <pt x="555" y="1092" on="1"/>
        <pt x="555" y="1196" on="0"/>
        <pt x="487" y="1272" on="0"/>
        <pt x="422" y="1272" on="1"/>
        <pt x="354" y="1272" on="0"/>
        <pt x="289" y="1196" on="0"/>
      </contour>
    </TTGlyph>
    <TTGlyph name="oslash" xMin="39" yMin="-16" xMax="1139" yMax="1036">
      <contour>
        <pt x="39" y="0" on="1"/>
        <pt x="186" y="176" on="1"/>
        <pt x="104" y="309" on="0"/>
        <pt x="104" y="510" on="1"/>
        <pt x="104" y="764" on="0"/>
        <pt x="354" y="1036" on="0"/>
        <pt x="588" y="1036" on="1"/>
        <pt x="752" y="1036" on="0"/>
        <pt x="858" y="973" on="1"/>
        <pt x="901" y="1022" on="1"/>
        <pt x="1139" y="1022" on="1"/>
        <pt x="989" y="846" on="1"/>
        <pt x="1071" y="719" on="0"/>
        <pt x="1071" y="510" on="1"/>
        <pt x="1071" y="256" on="0"/>
        <pt x="821" y="-16" on="0"/>
        <pt x="588" y="-16" on="1"/>
        <pt x="430" y="-16" on="0"/>
        <pt x="317" y="49" on="1"/>
        <pt x="276" y="0" on="1"/>
      </contour>
      <contour>
        <pt x="350" y="510" on="1"/>
        <pt x="350" y="442" on="0"/>
        <pt x="360" y="381" on="1"/>
        <pt x="721" y="807" on="1"/>
        <pt x="674" y="834" on="0"/>
        <pt x="588" y="834" on="1"/>
        <pt x="467" y="834" on="0"/>
        <pt x="350" y="700" on="0"/>
      </contour>
      <contour>
        <pt x="457" y="215" on="1"/>
        <pt x="508" y="186" on="0"/>
        <pt x="588" y="186" on="1"/>
        <pt x="709" y="186" on="0"/>
        <pt x="825" y="320" on="0"/>
        <pt x="825" y="510" on="1"/>
        <pt x="825" y="592" on="0"/>
        <pt x="817" y="641" on="1"/>
      </contour>
    </TTGlyph>
    <TTGlyph name="otilde" xMin="100" yMin="-16" xMax="1067" yMax="1384">
      <contour>
        <pt x="100" y="256" on="0"/>
        <pt x="100" y="764" on="0"/>
        <pt x="350" y="1036" on="0"/>
        <pt x="817" y="1036" on="0"/>
        <pt x="1067" y="764" on="0"/>
        <pt x="1067" y="256" on="0"/>
        <pt x="817" y="-16" on="0"/>
        <pt x="350" y="-16" on="0"/>
      </contour>
      <contour>
        <pt x="272" y="1153" on="1"/>
        <pt x="272" y="1309" on="1"/>
        <pt x="329" y="1377" on="0"/>
        <pt x="396" y="1383" on="1"/>
        <pt x="407" y="1384" on="0"/>
        <pt x="418" y="1384" on="1"/>
        <pt x="473" y="1384" on="0"/>
        <pt x="524" y="1358" on="1"/>
        <pt x="646" y="1298" on="1"/>
        <pt x="697" y="1273" on="0"/>
        <pt x="750" y="1273" on="1"/>
        <pt x="761" y="1273" on="0"/>
        <pt x="772" y="1274" on="1"/>
        <pt x="838" y="1280" on="0"/>
        <pt x="895" y="1348" on="1"/>
        <pt x="895" y="1192" on="1"/>
        <pt x="838" y="1124" on="0"/>
        <pt x="772" y="1118" on="1"/>
        <pt x="761" y="1117" on="0"/>
        <pt x="750" y="1117" on="1"/>
        <pt x="697" y="1117" on="0"/>
        <pt x="646" y="1142" on="1"/>
        <pt x="524" y="1202" on="1"/>
        <pt x="473" y="1228" on="0"/>
        <pt x="418" y="1228" on="1"/>
        <pt x="407" y="1228" on="0"/>
        <pt x="396" y="1227" on="1"/>
        <pt x="330" y="1221" on="0"/>
      </contour>
      <contour>
        <pt x="346" y="700" on="0"/>
        <pt x="346" y="319" on="0"/>
        <pt x="463" y="186" on="0"/>
        <pt x="705" y="186" on="0"/>
        <pt x="821" y="319" on="0"/>
        <pt x="821" y="700" on="0"/>
        <pt x="705" y="834" on="0"/>
        <pt x="463" y="834" on="0"/>
      </contour>
    </TTGlyph>
    <TTGlyph name="p" xMin="168" yMin="-379" xMax="1057" yMax="1036">
      <contour>
        <pt x="168" y="-379" on="1"/>
        <pt x="168" y="692" on="1"/>
        <pt x="168" y="833" on="0"/>
        <pt x="379" y="1036" on="0"/>
        <pt x="598" y="1036" on="1"/>
        <pt x="649" y="1036" on="0"/>
        <pt x="750" y="1020" on="0"/>
        <pt x="887" y="952" on="0"/>
        <pt x="985" y="844" on="0"/>
        <pt x="1057" y="635" on="0"/>
        <pt x="1057" y="498" on="1"/>
        <pt x="1057" y="248" on="0"/>
        <pt x="811" y="-20" on="0"/>
        <pt x="582" y="-20" on="1"/>
        <pt x="496" y="-20" on="0"/>
        <pt x="414" y="-2" on="1"/>
        <pt x="414" y="-379" on="1"/>
      </contour>
      <contour>
        <pt x="414" y="182" on="1"/>
        <pt x="499" y="170" on="0"/>
        <pt x="565" y="170" on="1"/>
        <pt x="684" y="170" on="0"/>
        <pt x="809" y="309" on="0"/>
        <pt x="809" y="485" on="1"/>
        <pt x="809" y="665" on="0"/>
        <pt x="715" y="825" on="0"/>
        <pt x="598" y="825" on="1"/>
        <pt x="414" y="825" on="0"/>
        <pt x="414" y="715" on="1"/>
      </contour>
    </TTGlyph>
    <TTGlyph name="paragraph" xMin="78" yMin="0" xMax="848" yMax="1366">
      <contour>
        <pt x="78" y="946" on="1"/>
        <pt x="78" y="1149" on="0"/>
        <pt x="320" y="1366" on="0"/>
        <pt x="549" y="1366" on="1"/>
        <pt x="848" y="1366" on="1"/>
        <pt x="848" y="0" on="1"/>
        <pt x="616" y="0" on="1"/>
        <pt x="616" y="524" on="1"/>
        <pt x="549" y="524" on="1"/>
        <pt x="320" y="524" on="0"/>
        <pt x="78" y="741" on="0"/>
      </contour>
    </TTGlyph>
    <TTGlyph name="parenleft" xMin="190" yMin="-231" xMax="614" yMax="1483">
      <contour>
        <pt x="190" y="627" on="1"/>
        <pt x="190" y="1067" on="0"/>
        <pt x="401" y="1483" on="1"/>
        <pt x="614" y="1483" on="1"/>
        <pt x="403" y="1067" on="0"/>
        <pt x="403" y="627" on="1"/>
        <pt x="403" y="191" on="0"/>
        <pt x="614" y="-231" on="1"/>
        <pt x="401" y="-231" on="1"/>
        <pt x="190" y="191" on="0"/>
      </contour>
    </TTGlyph>
    <TTGlyph name="parenright" xMin="133" yMin="-231" xMax="557" yMax="1483">
      <contour>
        <pt x="133" y="-231" on="1"/>
        <pt x="344" y="181" on="0"/>
        <pt x="344" y="627" on="1"/>
        <pt x="344" y="1076" on="0"/>
        <pt x="133" y="1483" on="1"/>
        <pt x="346" y="1483" on="1"/>
        <pt x="557" y="1067" on="0"/>
        <pt x="557" y="627" on="1"/>
        <pt x="557" y="191" on="0"/>
        <pt x="346" y="-231" on="1"/>
      </contour>
    </TTGlyph>
    <TTGlyph name="percent" xMin="145" yMin="0" xMax="1645" yMax="1366">
      <contour>
        <pt x="145" y="606" on="0"/>
        <pt x="145" y="1360" on="0"/>
        <pt x="434" y="1360" on="1"/>
        <pt x="725" y="1360" on="0"/>
        <pt x="725" y="606" on="0"/>
        <pt x="434" y="606" on="1"/>
      </contour>
      <contour>
        <pt x="305" y="983" on="1"/>
        <pt x="305" y="850" on="0"/>
        <pt x="377" y="758" on="0"/>
        <pt x="492" y="758" on="0"/>
        <pt x="563" y="850" on="0"/>
        <pt x="563" y="983" on="1"/>
        <pt x="563" y="1118" on="0"/>
        <pt x="492" y="1208" on="0"/>
        <pt x="377" y="1208" on="0"/>
        <pt x="305" y="1118" on="0"/>
      </contour>
      <contour>
        <pt x="381" y="0" on="1"/>
        <pt x="1239" y="1366" on="1"/>
        <pt x="1413" y="1366" on="1"/>
        <pt x="555" y="0" on="1"/>
      </contour>
      <contour>
        <pt x="1065" y="6" on="0"/>
        <pt x="1065" y="760" on="0"/>
        <pt x="1354" y="760" on="1"/>
        <pt x="1645" y="760" on="0"/>
        <pt x="1645" y="6" on="0"/>
        <pt x="1354" y="6" on="1"/>
      </contour>
      <contour>
        <pt x="1225" y="383" on="1"/>
        <pt x="1225" y="250" on="0"/>
        <pt x="1296" y="158" on="0"/>
        <pt x="1411" y="158" on="0"/>
        <pt x="1483" y="250" on="0"/>
        <pt x="1483" y="383" on="1"/>
        <pt x="1483" y="518" on="0"/>
        <pt x="1411" y="608" on="0"/>
        <pt x="1296" y="608" on="0"/>
        <pt x="1225" y="518" on="0"/>
      </contour>
    </TTGlyph>
    <TTGlyph name="period" xMin="260" yMin="0" xMax="500" yMax="227">
      <contour>
        <pt x="260" y="0" on="1"/>
        <pt x="260" y="227" on="1"/>
        <pt x="500" y="227" on="1"/>
        <pt x="500" y="0" on="1"/>
      </contour>
    </TTGlyph>
    <TTGlyph name="periodcentered" xMin="211" yMin="444" xMax="451" yMax="672">
      <contour>
        <pt x="211" y="444" on="1"/>
        <pt x="211" y="672" on="1"/>
        <pt x="451" y="672" on="1"/>
        <pt x="451" y="444" on="1"/>
      </contour>
    </TTGlyph>
    <TTGlyph name="plus" xMin="199" yMin="250" xMax="926" yMax="977">
      <contour>
        <pt x="199" y="520" on="1"/>
        <pt x="199" y="702" on="1"/>
        <pt x="471" y="702" on="1"/>
        <pt x="471" y="977" on="1"/>
        <pt x="653" y="977" on="1"/>
        <pt x="653" y="702" on="1"/>
        <pt x="926" y="702" on="1"/>
        <pt x="926" y="520" on="1"/>
        <pt x="653" y="520" on="1"/>
        <pt x="653" y="250" on="1"/>
        <pt x="471" y="250" on="1"/>
        <pt x="471" y="520" on="1"/>
      </contour>
    </TTGlyph>
    <TTGlyph name="plusminus" xMin="242" yMin="61" xMax="969" yMax="1061">
      <contour>
        <pt x="242" y="61" on="1"/>
        <pt x="242" y="227" on="1"/>
        <pt x="969" y="227" on="1"/>
        <pt x="969" y="61" on="1"/>
      </contour>
      <contour>
        <pt x="242" y="604" on="1"/>
        <pt x="242" y="786" on="1"/>
        <pt x="514" y="786" on="1"/>
        <pt x="514" y="1061" on="1"/>
        <pt x="696" y="1061" on="1"/>
        <pt x="696" y="786" on="1"/>
        <pt x="969" y="786" on="1"/>
        <pt x="969" y="604" on="1"/>
        <pt x="696" y="604" on="1"/>
        <pt x="696" y="334" on="1"/>
        <pt x="514" y="334" on="1"/>
        <pt x="514" y="604" on="1"/>
      </contour>
    </TTGlyph>
    <TTGlyph name="q" xMin="115" yMin="-379" xMax="1004" yMax="1036">
      <contour>
        <pt x="115" y="498" on="1"/>
        <pt x="115" y="635" on="0"/>
        <pt x="184" y="844" on="0"/>
        <pt x="285" y="952" on="0"/>
        <pt x="420" y="1020" on="0"/>
        <pt x="520" y="1036" on="0"/>
        <pt x="571" y="1036" on="1"/>
        <pt x="790" y="1036" on="0"/>
        <pt x="1004" y="834" on="0"/>
        <pt x="1004" y="692" on="1"/>
        <pt x="1004" y="-379" on="1"/>
        <pt x="758" y="-379" on="1"/>
        <pt x="758" y="-2" on="1"/>
        <pt x="676" y="-20" on="0"/>
        <pt x="588" y="-20" on="1"/>
        <pt x="359" y="-20" on="0"/>
        <pt x="115" y="248" on="0"/>
      </contour>
      <contour>
        <pt x="360" y="485" on="1"/>
        <pt x="360" y="309" on="0"/>
        <pt x="485" y="170" on="0"/>
        <pt x="604" y="170" on="1"/>
        <pt x="672" y="170" on="0"/>
        <pt x="758" y="182" on="1"/>
        <pt x="758" y="715" on="1"/>
        <pt x="758" y="825" on="0"/>
        <pt x="574" y="825" on="1"/>
        <pt x="573" y="825" on="0"/>
        <pt x="571" y="825" on="1"/>
        <pt x="454" y="825" on="0"/>
        <pt x="360" y="665" on="0"/>
      </contour>
    </TTGlyph>
    <TTGlyph name="question" xMin="164" yMin="0" xMax="909" yMax="1382">
      <contour>
        <pt x="164" y="1059" on="1"/>
        <pt x="164" y="1286" on="1"/>
        <pt x="314" y="1382" on="0"/>
        <pt x="485" y="1382" on="1"/>
        <pt x="600" y="1382" on="0"/>
        <pt x="770" y="1315" on="0"/>
        <pt x="864" y="1198" on="0"/>
        <pt x="909" y="1063" on="0"/>
        <pt x="909" y="985" on="1"/>
        <pt x="909" y="915" on="0"/>
        <pt x="864" y="803" on="0"/>
        <pt x="797" y="731" on="0"/>
        <pt x="758" y="693" on="1"/>
        <pt x="685" y="620" on="1"/>
        <pt x="651" y="586" on="0"/>
        <pt x="606" y="479" on="0"/>
        <pt x="606" y="414" on="1"/>
        <pt x="606" y="393" on="1"/>
        <pt x="389" y="393" on="1"/>
        <pt x="389" y="420" on="1"/>
        <pt x="389" y="524" on="0"/>
        <pt x="451" y="684" on="0"/>
        <pt x="541" y="778" on="0"/>
        <pt x="629" y="856" on="0"/>
        <pt x="690" y="940" on="0"/>
        <pt x="690" y="987" on="1"/>
        <pt x="690" y="1169" on="0"/>
        <pt x="469" y="1169" on="1"/>
        <pt x="289" y="1169" on="0"/>
      </contour>
      <contour>
        <pt x="379" y="0" on="1"/>
        <pt x="379" y="227" on="1"/>
        <pt x="618" y="227" on="1"/>
        <pt x="618" y="0" on="1"/>
      </contour>
    </TTGlyph>
    <TTGlyph name="questiondown" xMin="156" yMin="-360" xMax="901" yMax="1022">
      <contour>
        <pt x="156" y="37" on="1"/>
        <pt x="156" y="107" on="0"/>
        <pt x="201" y="219" on="0"/>
        <pt x="268" y="291" on="0"/>
        <pt x="307" y="329" on="1"/>
        <pt x="380" y="402" on="1"/>
        <pt x="414" y="436" on="0"/>
        <pt x="459" y="543" on="0"/>
        <pt x="459" y="608" on="1"/>
        <pt x="459" y="629" on="1"/>
        <pt x="676" y="629" on="1"/>
        <pt x="676" y="602" on="1"/>
        <pt x="676" y="498" on="0"/>
        <pt x="614" y="338" on="0"/>
        <pt x="524" y="244" on="0"/>
        <pt x="436" y="166" on="0"/>
        <pt x="375" y="82" on="0"/>
        <pt x="375" y="35" on="1"/>
        <pt x="375" y="-147" on="0"/>
        <pt x="596" y="-147" on="1"/>
        <pt x="776" y="-147" on="0"/>
        <pt x="901" y="-37" on="1"/>
        <pt x="901" y="-264" on="1"/>
        <pt x="751" y="-360" on="0"/>
        <pt x="580" y="-360" on="1"/>
        <pt x="465" y="-360" on="0"/>
        <pt x="295" y="-293" on="0"/>
        <pt x="201" y="-176" on="0"/>
        <pt x="156" y="-41" on="0"/>
      </contour>
      <contour>
        <pt x="446" y="795" on="1"/>
        <pt x="446" y="1022" on="1"/>
        <pt x="686" y="1022" on="1"/>
        <pt x="686" y="795" on="1"/>
      </contour>
    </TTGlyph>
    <TTGlyph name="quotedbl" xMin="166" yMin="973" xMax="666" yMax="1384">
      <contour>
        <pt x="166" y="1384" on="1"/>
        <pt x="371" y="1384" on="1"/>
        <pt x="336" y="973" on="1"/>
        <pt x="203" y="973" on="1"/>
      </contour>
      <contour>
        <pt x="461" y="1384" on="1"/>
        <pt x="666" y="1384" on="1"/>
        <pt x="631" y="973" on="1"/>
        <pt x="498" y="973" on="1"/>
      </contour>
    </TTGlyph>
    <TTGlyph name="quotedblbase" xMin="147" yMin="-229" xMax="825" yMax="172">
      <contour>
        <pt x="147" y="-229" on="1"/>
        <pt x="299" y="172" on="1"/>
        <pt x="514" y="172" on="1"/>
        <pt x="332" y="-229" on="1"/>
      </contour>
      <contour>
        <pt x="459" y="-229" on="1"/>
        <pt x="610" y="172" on="1"/>
        <pt x="825" y="172" on="1"/>
        <pt x="643" y="-229" on="1"/>
      </contour>
    </TTGlyph>
    <TTGlyph name="quotedblleft" xMin="96" yMin="983" xMax="774" yMax="1384">
      <contour>
        <pt x="96" y="1384" on="1"/>
        <pt x="311" y="1384" on="1"/>
        <pt x="463" y="983" on="1"/>
        <pt x="279" y="983" on="1"/>
      </contour>
      <contour>
        <pt x="408" y="1384" on="1"/>
        <pt x="623" y="1384" on="1"/>
        <pt x="774" y="983" on="1"/>
        <pt x="590" y="983" on="1"/>
      </contour>
    </TTGlyph>
    <TTGlyph name="quotedblright" xMin="96" yMin="983" xMax="774" yMax="1384">
      <contour>
        <pt x="96" y="983" on="1"/>
        <pt x="248" y="1384" on="1"/>
        <pt x="463" y="1384" on="1"/>
        <pt x="281" y="983" on="1"/>
      </contour>
      <contour>
        <pt x="408" y="983" on="1"/>
        <pt x="559" y="1384" on="1"/>
        <pt x="774" y="1384" on="1"/>
        <pt x="592" y="983" on="1"/>
      </contour>
    </TTGlyph>
    <TTGlyph name="quoteleft" xMin="96" yMin="983" xMax="463" yMax="1384">
      <contour>
        <pt x="96" y="1384" on="1"/>
        <pt x="311" y="1384" on="1"/>
        <pt x="463" y="983" on="1"/>
        <pt x="279" y="983" on="1"/>
      </contour>
    </TTGlyph>
    <TTGlyph name="quoteright" xMin="96" yMin="983" xMax="463" yMax="1384">
      <contour>
        <pt x="96" y="983" on="1"/>
        <pt x="248" y="1384" on="1"/>
        <pt x="463" y="1384" on="1"/>
        <pt x="281" y="983" on="1"/>
      </contour>
    </TTGlyph>
    <TTGlyph name="quotesinglbase" xMin="147" yMin="-229" xMax="514" yMax="172">
      <contour>
        <pt x="147" y="-229" on="1"/>
        <pt x="299" y="172" on="1"/>
        <pt x="514" y="172" on="1"/>
        <pt x="332" y="-229" on="1"/>
      </contour>
    </TTGlyph>
    <TTGlyph name="quotesingle" xMin="166" yMin="973" xMax="371" yMax="1384">
      <contour>
        <pt x="166" y="1384" on="1"/>
        <pt x="371" y="1384" on="1"/>
        <pt x="336" y="973" on="1"/>
        <pt x="203" y="973" on="1"/>
      </contour>
    </TTGlyph>
    <TTGlyph name="r" xMin="166" yMin="0" xMax="676" yMax="1038">
      <contour>
        <pt x="166" y="0" on="1"/>
        <pt x="166" y="930" on="1"/>
        <pt x="191" y="942" on="0"/>
        <pt x="279" y="975" on="0"/>
        <pt x="545" y="1036" on="0"/>
        <pt x="676" y="1038" on="1"/>
        <pt x="676" y="825" on="1"/>
        <pt x="522" y="823" on="0"/>
        <pt x="412" y="791" on="1"/>
        <pt x="412" y="0" on="1"/>
      </contour>
    </TTGlyph>
    <TTGlyph name="registered" xMin="100" yMin="-16" xMax="1499" yMax="1382">
      <contour>
        <pt x="100" y="682" on="1"/>
        <pt x="100" y="973" on="0"/>
        <pt x="510" y="1382" on="0"/>
        <pt x="799" y="1382" on="1"/>
        <pt x="1090" y="1382" on="0"/>
        <pt x="1499" y="973" on="0"/>
        <pt x="1499" y="682" on="1"/>
        <pt x="1499" y="393" on="0"/>
        <pt x="1090" y="-16" on="0"/>
        <pt x="799" y="-16" on="1"/>
        <pt x="510" y="-16" on="0"/>
        <pt x="100" y="393" on="0"/>
      </contour>
      <contour>
        <pt x="205" y="682" on="1"/>
        <pt x="205" y="436" on="0"/>
        <pt x="553" y="88" on="0"/>
        <pt x="799" y="88" on="1"/>
        <pt x="1047" y="88" on="0"/>
        <pt x="1395" y="436" on="0"/>
        <pt x="1395" y="682" on="1"/>
        <pt x="1395" y="930" on="0"/>
        <pt x="1047" y="1278" on="0"/>
        <pt x="799" y="1278" on="1"/>
        <pt x="553" y="1278" on="0"/>
        <pt x="205" y="930" on="0"/>
      </contour>
      <contour>
        <pt x="528" y="285" on="1"/>
        <pt x="528" y="1081" on="1"/>
        <pt x="834" y="1081" on="1"/>
        <pt x="973" y="1081" on="0"/>
        <pt x="1128" y="948" on="0"/>
        <pt x="1128" y="825" on="1"/>
        <pt x="1128" y="641" on="0"/>
        <pt x="954" y="590" on="1"/>
        <pt x="1163" y="285" on="1"/>
        <pt x="989" y="285" on="1"/>
        <pt x="801" y="565" on="1"/>
        <pt x="672" y="565" on="1"/>
        <pt x="672" y="285" on="1"/>
      </contour>
      <contour>
        <pt x="672" y="696" on="1"/>
        <pt x="829" y="696" on="1"/>
        <pt x="901" y="696" on="0"/>
        <pt x="985" y="748" on="0"/>
        <pt x="985" y="895" on="0"/>
        <pt x="901" y="948" on="0"/>
        <pt x="829" y="948" on="1"/>
        <pt x="672" y="948" on="1"/>
      </contour>
    </TTGlyph>
    <TTGlyph name="s" xMin="100" yMin="-16" xMax="834" yMax="1038">
      <contour>
        <pt x="100" y="719" on="1"/>
        <pt x="100" y="873" on="0"/>
        <pt x="317" y="1038" on="0"/>
        <pt x="479" y="1038" on="1"/>
        <pt x="631" y="1038" on="0"/>
        <pt x="758" y="965" on="1"/>
        <pt x="758" y="778" on="1"/>
        <pt x="654" y="827" on="0"/>
        <pt x="522" y="827" on="1"/>
        <pt x="346" y="827" on="0"/>
        <pt x="346" y="741" on="1"/>
        <pt x="346" y="698" on="0"/>
        <pt x="446" y="649" on="0"/>
        <pt x="590" y="612" on="0"/>
        <pt x="733" y="549" on="0"/>
        <pt x="834" y="399" on="0"/>
        <pt x="834" y="283" on="1"/>
        <pt x="834" y="154" on="0"/>
        <pt x="625" y="-16" on="0"/>
        <pt x="453" y="-16" on="1"/>
        <pt x="277" y="-16" on="0"/>
        <pt x="129" y="68" on="1"/>
        <pt x="129" y="287" on="1"/>
        <pt x="264" y="197" on="0"/>
        <pt x="418" y="197" on="1"/>
        <pt x="524" y="197" on="0"/>
        <pt x="588" y="246" on="0"/>
        <pt x="588" y="295" on="1"/>
        <pt x="588" y="340" on="0"/>
        <pt x="487" y="395" on="0"/>
        <pt x="344" y="436" on="0"/>
        <pt x="201" y="492" on="0"/>
        <pt x="100" y="621" on="0"/>
      </contour>
    </TTGlyph>
    <TTGlyph name="section" xMin="137" yMin="-16" xMax="1112" yMax="1384">
      <contour>
        <pt x="137" y="709" on="1"/>
        <pt x="137" y="807" on="0"/>
        <pt x="295" y="915" on="0"/>
        <pt x="391" y="920" on="1"/>
        <pt x="344" y="940" on="0"/>
        <pt x="281" y="1038" on="0"/>
        <pt x="281" y="1092" on="1"/>
        <pt x="281" y="1198" on="0"/>
        <pt x="416" y="1335" on="0"/>
        <pt x="598" y="1384" on="0"/>
        <pt x="711" y="1384" on="1"/>
        <pt x="895" y="1384" on="0"/>
        <pt x="1055" y="1292" on="1"/>
        <pt x="1055" y="1081" on="1"/>
        <pt x="891" y="1159" on="0"/>
        <pt x="741" y="1159" on="1"/>
        <pt x="667" y="1159" on="0"/>
        <pt x="545" y="1116" on="0"/>
        <pt x="545" y="1065" on="1"/>
        <pt x="545" y="1038" on="0"/>
        <pt x="629" y="991" on="0"/>
        <pt x="756" y="956" on="0"/>
        <pt x="901" y="899" on="0"/>
        <pt x="1028" y="834" on="0"/>
        <pt x="1112" y="719" on="0"/>
        <pt x="1112" y="645" on="1"/>
        <pt x="1112" y="559" on="0"/>
        <pt x="981" y="457" on="0"/>
        <pt x="885" y="446" on="1"/>
        <pt x="969" y="395" on="0"/>
        <pt x="969" y="279" on="1"/>
        <pt x="969" y="146" on="0"/>
        <pt x="735" y="-16" on="0"/>
        <pt x="537" y="-16" on="1"/>
        <pt x="326" y="-16" on="0"/>
        <pt x="143" y="104" on="1"/>
        <pt x="143" y="334" on="1"/>
        <pt x="307" y="201" on="0"/>
        <pt x="512" y="201" on="1"/>
        <pt x="594" y="201" on="0"/>
        <pt x="713" y="246" on="0"/>
        <pt x="713" y="293" on="1"/>
        <pt x="713" y="328" on="0"/>
        <pt x="594" y="379" on="0"/>
        <pt x="426" y="428" on="0"/>
        <pt x="256" y="492" on="0"/>
        <pt x="137" y="618" on="0"/>
      </contour>
      <contour>
        <pt x="401" y="719" on="1"/>
        <pt x="401" y="676" on="0"/>
        <pt x="537" y="612" on="0"/>
        <pt x="723" y="551" on="1"/>
        <pt x="784" y="557" on="0"/>
        <pt x="848" y="612" on="0"/>
        <pt x="848" y="639" on="1"/>
        <pt x="848" y="676" on="0"/>
        <pt x="737" y="735" on="0"/>
        <pt x="553" y="791" on="0"/>
        <pt x="539" y="797" on="1"/>
        <pt x="494" y="793" on="0"/>
        <pt x="401" y="752" on="0"/>
      </contour>
    </TTGlyph>
    <TTGlyph name="semicolon" xMin="182" yMin="-229" xMax="557" yMax="946">
      <contour>
        <pt x="182" y="-229" on="1"/>
        <pt x="334" y="172" on="1"/>
        <pt x="549" y="172" on="1"/>
        <pt x="367" y="-229" on="1"/>
      </contour>
      <contour>
        <pt x="322" y="723" on="1"/>
        <pt x="322" y="946" on="1"/>
        <pt x="557" y="946" on="1"/>
        <pt x="557" y="723" on="1"/>
      </contour>
    </TTGlyph>
    <TTGlyph name="seven" xMin="141" yMin="0" xMax="1106" yMax="1366">
      <contour>
        <pt x="141" y="1120" on="1"/>
        <pt x="141" y="1366" on="1"/>
        <pt x="1106" y="1366" on="1"/>
        <pt x="1106" y="1171" on="1"/>
        <pt x="543" y="0" on="1"/>
        <pt x="252" y="0" on="1"/>
        <pt x="797" y="1120" on="1"/>
      </contour>
    </TTGlyph>
    <TTGlyph name="six" xMin="131" yMin="-16" xMax="1100" yMax="1384">
      <contour>
        <pt x="131" y="629" on="1"/>
        <pt x="131" y="824" on="0"/>
        <pt x="229" y="1114" on="0"/>
        <pt x="365" y="1268" on="0"/>
        <pt x="553" y="1360" on="0"/>
        <pt x="690" y="1384" on="0"/>
        <pt x="762" y="1384" on="1"/>
        <pt x="862" y="1384" on="0"/>
        <pt x="997" y="1346" on="1"/>
        <pt x="997" y="1128" on="1"/>
        <pt x="915" y="1155" on="0"/>
        <pt x="776" y="1155" on="1"/>
        <pt x="729" y="1155" on="0"/>
        <pt x="627" y="1130" on="0"/>
        <pt x="502" y="1071" on="0"/>
        <pt x="403" y="938" on="0"/>
        <pt x="387" y="844" on="1"/>
        <pt x="477" y="913" on="0"/>
        <pt x="637" y="913" on="1"/>
        <pt x="858" y="913" on="0"/>
        <pt x="1100" y="672" on="0"/>
        <pt x="1100" y="461" on="1"/>
        <pt x="1100" y="375" on="0"/>
        <pt x="1047" y="213" on="0"/>
        <pt x="938" y="70" on="0"/>
        <pt x="743" y="-16" on="0"/>
        <pt x="616" y="-16" on="1"/>
        <pt x="131" y="-16" on="0"/>
      </contour>
      <contour>
        <pt x="379" y="623" on="1"/>
        <pt x="378" y="604" on="0"/>
        <pt x="378" y="585" on="1"/>
        <pt x="378" y="482" on="0"/>
        <pt x="398" y="406" on="1"/>
        <pt x="420" y="315" on="0"/>
        <pt x="504" y="233" on="0"/>
        <pt x="577" y="201" on="0"/>
        <pt x="616" y="201" on="1"/>
        <pt x="692" y="201" on="0"/>
        <pt x="797" y="264" on="0"/>
        <pt x="838" y="362" on="0"/>
        <pt x="852" y="432" on="0"/>
        <pt x="852" y="463" on="1"/>
        <pt x="852" y="567" on="0"/>
        <pt x="729" y="692" on="0"/>
        <pt x="616" y="692" on="1"/>
        <pt x="483" y="692" on="0"/>
      </contour>
    </TTGlyph>
    <TTGlyph name="slash" xMin="-29" yMin="-201" xMax="928" yMax="1548">
      <contour>
        <pt x="-29" y="-201" on="1"/>
        <pt x="723" y="1548" on="1"/>
        <pt x="928" y="1548" on="1"/>
        <pt x="174" y="-201" on="1"/>
      </contour>
    </TTGlyph>
    <TTGlyph name="sterling" xMin="100" yMin="-31" xMax="1038" yMax="1382">
      <contour>
        <pt x="100" y="-31" on="1"/>
        <pt x="100" y="178" on="1"/>
        <pt x="151" y="217" on="0"/>
        <pt x="274" y="246" on="1"/>
        <pt x="274" y="565" on="1"/>
        <pt x="100" y="565" on="1"/>
        <pt x="100" y="760" on="1"/>
        <pt x="274" y="760" on="1"/>
        <pt x="274" y="995" on="1"/>
        <pt x="274" y="1155" on="0"/>
        <pt x="485" y="1382" on="0"/>
        <pt x="707" y="1382" on="1"/>
        <pt x="875" y="1382" on="0"/>
        <pt x="1038" y="1288" on="1"/>
        <pt x="1038" y="1077" on="1"/>
        <pt x="889" y="1190" on="0"/>
        <pt x="725" y="1190" on="1"/>
        <pt x="608" y="1190" on="0"/>
        <pt x="485" y="1077" on="0"/>
        <pt x="485" y="981" on="1"/>
        <pt x="485" y="760" on="1"/>
        <pt x="862" y="760" on="1"/>
        <pt x="862" y="565" on="1"/>
        <pt x="485" y="565" on="1"/>
        <pt x="485" y="240" on="1"/>
        <pt x="491" y="238" on="0"/>
        <pt x="629" y="201" on="0"/>
        <pt x="662" y="195" on="0"/>
        <pt x="720" y="184" on="1"/>
        <pt x="769" y="174" on="0"/>
        <pt x="796" y="174" on="1"/>
        <pt x="801" y="174" on="0"/>
        <pt x="804" y="174" on="1"/>
        <pt x="831" y="176" on="0"/>
        <pt x="926" y="180" on="0"/>
        <pt x="1001" y="207" on="0"/>
        <pt x="1038" y="229" on="1"/>
        <pt x="1038" y="14" on="1"/>
        <pt x="952" y="-30" on="0"/>
        <pt x="856" y="-30" on="1"/>
        <pt x="854" y="-30" on="0"/>
        <pt x="852" y="-30" on="1"/>
        <pt x="754" y="-29" on="0"/>
        <pt x="578" y="20" on="0"/>
        <pt x="488" y="42" on="1"/>
        <pt x="434" y="55" on="0"/>
        <pt x="376" y="55" on="1"/>
        <pt x="338" y="55" on="0"/>
        <pt x="298" y="49" on="1"/>
        <pt x="197" y="35" on="0"/>
      </contour>
    </TTGlyph>
    <TTGlyph name="t" xMin="49" yMin="-16" xMax="709" yMax="1325">
      <contour>
        <pt x="49" y="811" on="1"/>
        <pt x="49" y="1022" on="1"/>
        <pt x="221" y="1022" on="1"/>
        <pt x="221" y="1325" on="1"/>
        <pt x="467" y="1325" on="1"/>
        <pt x="467" y="1022" on="1"/>
        <pt x="709" y="1022" on="1"/>
        <pt x="709" y="811" on="1"/>
        <pt x="467" y="811" on="1"/>
        <pt x="467" y="307" on="1"/>
        <pt x="467" y="241" on="0"/>
        <pt x="522" y="195" on="0"/>
        <pt x="592" y="195" on="1"/>
        <pt x="658" y="195" on="0"/>
        <pt x="709" y="217" on="1"/>
        <pt x="709" y="14" on="1"/>
        <pt x="637" y="-16" on="0"/>
        <pt x="552" y="-16" on="1"/>
        <pt x="549" y="-16" on="0"/>
        <pt x="547" y="-16" on="1"/>
        <pt x="395" y="-16" on="0"/>
        <pt x="221" y="164" on="0"/>
        <pt x="221" y="322" on="1"/>
        <pt x="221" y="811" on="1"/>
      </contour>
    </TTGlyph>
    <TTGlyph name="thorn" xMin="170" yMin="-377" xMax="1059" yMax="1401">
      <contour>
        <pt x="170" y="-377" on="1"/>
        <pt x="170" y="1401" on="1"/>
        <pt x="416" y="1401" on="1"/>
        <pt x="416" y="1012" on="1"/>
        <pt x="504" y="1028" on="0"/>
        <pt x="584" y="1028" on="1"/>
        <pt x="813" y="1028" on="0"/>
        <pt x="1059" y="762" on="0"/>
        <pt x="1059" y="262" on="0"/>
        <pt x="813" y="-4" on="0"/>
        <pt x="584" y="-4" on="1"/>
        <pt x="504" y="-4" on="0"/>
        <pt x="416" y="12" on="1"/>
        <pt x="416" y="-377" on="1"/>
      </contour>
      <contour>
        <pt x="416" y="207" on="1"/>
        <pt x="485" y="190" on="0"/>
        <pt x="575" y="190" on="1"/>
        <pt x="690" y="190" on="0"/>
        <pt x="811" y="332" on="0"/>
        <pt x="811" y="692" on="0"/>
        <pt x="690" y="834" on="0"/>
        <pt x="575" y="834" on="1"/>
        <pt x="485" y="834" on="0"/>
        <pt x="416" y="817" on="1"/>
      </contour>
    </TTGlyph>
    <TTGlyph name="three" xMin="166" yMin="-16" xMax="1073" yMax="1384">
      <contour>
        <pt x="166" y="84" on="1"/>
        <pt x="166" y="334" on="1"/>
        <pt x="346" y="228" on="0"/>
        <pt x="539" y="227" on="1"/>
        <pt x="829" y="227" on="0"/>
        <pt x="829" y="415" on="1"/>
        <pt x="829" y="506" on="0"/>
        <pt x="692" y="623" on="0"/>
        <pt x="530" y="623" on="1"/>
        <pt x="356" y="623" on="1"/>
        <pt x="356" y="825" on="1"/>
        <pt x="537" y="825" on="1"/>
        <pt x="652" y="825" on="0"/>
        <pt x="764" y="920" on="0"/>
        <pt x="764" y="989" on="1"/>
        <pt x="764" y="1071" on="0"/>
        <pt x="618" y="1139" on="0"/>
        <pt x="522" y="1139" on="1"/>
        <pt x="344" y="1139" on="0"/>
        <pt x="195" y="1049" on="1"/>
        <pt x="195" y="1300" on="1"/>
        <pt x="373" y="1384" on="0"/>
        <pt x="537" y="1384" on="1"/>
        <pt x="742" y="1384" on="0"/>
        <pt x="1010" y="1200" on="0"/>
        <pt x="1010" y="997" on="1"/>
        <pt x="1010" y="829" on="0"/>
        <pt x="842" y="737" on="1"/>
        <pt x="946" y="700" on="0"/>
        <pt x="1073" y="532" on="0"/>
        <pt x="1073" y="412" on="1"/>
        <pt x="1073" y="316" on="0"/>
        <pt x="1008" y="164" on="0"/>
        <pt x="903" y="70" on="0"/>
        <pt x="762" y="8" on="0"/>
        <pt x="627" y="-16" on="0"/>
        <pt x="555" y="-16" on="1"/>
        <pt x="352" y="-16" on="0"/>
      </contour>
    </TTGlyph>
    <TTGlyph name="threequarters" xMin="135" yMin="-45" xMax="1589" yMax="1403">
      <contour>
        <pt x="135" y="688" on="1"/>
        <pt x="135" y="823" on="1"/>
        <pt x="231" y="766" on="0"/>
        <pt x="336" y="766" on="1"/>
        <pt x="494" y="766" on="0"/>
        <pt x="494" y="866" on="1"/>
        <pt x="494" y="979" on="0"/>
        <pt x="332" y="979" on="1"/>
        <pt x="238" y="979" on="1"/>
        <pt x="238" y="1087" on="1"/>
        <pt x="336" y="1087" on="1"/>
        <pt x="397" y="1087" on="0"/>
        <pt x="457" y="1139" on="0"/>
        <pt x="457" y="1176" on="1"/>
        <pt x="457" y="1255" on="0"/>
        <pt x="331" y="1255" on="1"/>
        <pt x="330" y="1255" on="0"/>
        <pt x="328" y="1255" on="1"/>
        <pt x="228" y="1255" on="0"/>
        <pt x="152" y="1208" on="1"/>
        <pt x="152" y="1343" on="1"/>
        <pt x="250" y="1388" on="0"/>
        <pt x="336" y="1389" on="1"/>
        <pt x="445" y="1389" on="0"/>
        <pt x="590" y="1290" on="0"/>
        <pt x="590" y="1180" on="1"/>
        <pt x="590" y="1089" on="0"/>
        <pt x="500" y="1040" on="1"/>
        <pt x="625" y="997" on="0"/>
        <pt x="625" y="864" on="1"/>
        <pt x="625" y="743" on="0"/>
        <pt x="455" y="635" on="0"/>
        <pt x="344" y="635" on="1"/>
        <pt x="235" y="635" on="0"/>
      </contour>
      <contour>
        <pt x="369" y="-45" on="1"/>
        <pt x="1264" y="1403" on="1"/>
        <pt x="1427" y="1403" on="1"/>
        <pt x="532" y="-45" on="1"/>
      </contour>
      <contour>
        <pt x="1032" y="209" on="1"/>
        <pt x="1032" y="317" on="1"/>
        <pt x="1368" y="735" on="1"/>
        <pt x="1493" y="735" on="1"/>
        <pt x="1493" y="326" on="1"/>
        <pt x="1589" y="326" on="1"/>
        <pt x="1589" y="209" on="1"/>
        <pt x="1493" y="209" on="1"/>
        <pt x="1493" y="0" on="1"/>
        <pt x="1362" y="0" on="1"/>
        <pt x="1362" y="209" on="1"/>
      </contour>
      <contour>
        <pt x="1188" y="326" on="1"/>
        <pt x="1362" y="326" on="1"/>
        <pt x="1362" y="553" on="1"/>
      </contour>
    </TTGlyph>
    <TTGlyph name="tilde" xMin="215" yMin="1117" xMax="838" yMax="1384">
      <contour>
        <pt x="215" y="1153" on="1"/>
        <pt x="215" y="1309" on="1"/>
        <pt x="272" y="1377" on="0"/>
        <pt x="339" y="1383" on="1"/>
        <pt x="350" y="1384" on="0"/>
        <pt x="361" y="1384" on="1"/>
        <pt x="416" y="1384" on="0"/>
        <pt x="466" y="1358" on="1"/>
        <pt x="588" y="1298" on="1"/>
        <pt x="639" y="1273" on="0"/>
        <pt x="692" y="1273" on="1"/>
        <pt x="703" y="1273" on="0"/>
        <pt x="714" y="1274" on="1"/>
        <pt x="780" y="1280" on="0"/>
        <pt x="838" y="1348" on="1"/>
        <pt x="838" y="1192" on="1"/>
        <pt x="781" y="1124" on="0"/>
        <pt x="715" y="1118" on="1"/>
        <pt x="704" y="1117" on="0"/>
        <pt x="693" y="1117" on="1"/>
        <pt x="639" y="1117" on="0"/>
        <pt x="588" y="1142" on="1"/>
        <pt x="466" y="1202" on="1"/>
        <pt x="416" y="1228" on="0"/>
        <pt x="361" y="1228" on="1"/>
        <pt x="350" y="1228" on="0"/>
        <pt x="339" y="1227" on="1"/>
        <pt x="272" y="1221" on="0"/>
      </contour>
    </TTGlyph>
    <TTGlyph name="trademark" xMin="100" yMin="684" xMax="1430" yMax="1366">
      <contour>
        <pt x="100" y="1245" on="1"/>
        <pt x="100" y="1366" on="1"/>
        <pt x="659" y="1366" on="1"/>
        <pt x="659" y="1245" on="1"/>
        <pt x="440" y="1245" on="1"/>
        <pt x="440" y="684" on="1"/>
        <pt x="319" y="684" on="1"/>
        <pt x="319" y="1245" on="1"/>
      </contour>
      <contour>
        <pt x="762" y="684" on="1"/>
        <pt x="762" y="1366" on="1"/>
        <pt x="899" y="1366" on="1"/>
        <pt x="1096" y="1081" on="1"/>
        <pt x="1292" y="1366" on="1"/>
        <pt x="1430" y="1366" on="1"/>
        <pt x="1430" y="684" on="1"/>
        <pt x="1307" y="684" on="1"/>
        <pt x="1307" y="1190" on="1"/>
        <pt x="1096" y="887" on="1"/>
        <pt x="885" y="1190" on="1"/>
        <pt x="885" y="684" on="1"/>
      </contour>
    </TTGlyph>
    <TTGlyph name="two" xMin="158" yMin="0" xMax="1061" yMax="1384">
      <contour>
        <pt x="158" y="0" on="1"/>
        <pt x="158" y="201" on="1"/>
        <pt x="252" y="271" on="0"/>
        <pt x="449" y="440" on="0"/>
        <pt x="662" y="657" on="0"/>
        <pt x="797" y="885" on="0"/>
        <pt x="797" y="975" on="1"/>
        <pt x="797" y="1045" on="0"/>
        <pt x="684" y="1139" on="0"/>
        <pt x="555" y="1139" on="1"/>
        <pt x="455" y="1139" on="0"/>
        <pt x="244" y="1071" on="0"/>
        <pt x="170" y="1020" on="1"/>
        <pt x="170" y="1264" on="1"/>
        <pt x="365" y="1384" on="0"/>
        <pt x="562" y="1384" on="1"/>
        <pt x="563" y="1384" on="0"/>
        <pt x="565" y="1384" on="1"/>
        <pt x="807" y="1384" on="0"/>
        <pt x="1040" y="1143" on="0"/>
        <pt x="1040" y="975" on="1"/>
        <pt x="1040" y="793" on="0"/>
        <pt x="766" y="410" on="0"/>
        <pt x="567" y="244" on="1"/>
        <pt x="1061" y="244" on="1"/>
        <pt x="1061" y="0" on="1"/>
      </contour>
    </TTGlyph>
    <TTGlyph name="u" xMin="168" yMin="-16" xMax="1092" yMax="1022">
      <contour>
        <pt x="168" y="463" on="1"/>
        <pt x="168" y="1022" on="1"/>
        <pt x="416" y="1022" on="1"/>
        <pt x="416" y="430" on="1"/>
        <pt x="416" y="307" on="0"/>
        <pt x="516" y="199" on="0"/>
        <pt x="629" y="199" on="1"/>
        <pt x="744" y="199" on="0"/>
        <pt x="844" y="307" on="0"/>
        <pt x="844" y="430" on="1"/>
        <pt x="844" y="1022" on="1"/>
        <pt x="1092" y="1022" on="1"/>
        <pt x="1092" y="463" on="1"/>
        <pt x="1092" y="238" on="0"/>
        <pt x="846" y="-16" on="0"/>
        <pt x="412" y="-16" on="0"/>
        <pt x="168" y="238" on="0"/>
      </contour>
    </TTGlyph>
    <TTGlyph name="uacute" xMin="168" yMin="-16" xMax="1092" yMax="1395">
      <contour>
        <pt x="168" y="463" on="1"/>
        <pt x="168" y="1022" on="1"/>
        <pt x="416" y="1022" on="1"/>
        <pt x="416" y="430" on="1"/>
        <pt x="416" y="307" on="0"/>
        <pt x="516" y="199" on="0"/>
        <pt x="629" y="199" on="1"/>
        <pt x="744" y="199" on="0"/>
        <pt x="844" y="307" on="0"/>
        <pt x="844" y="430" on="1"/>
        <pt x="844" y="1022" on="1"/>
        <pt x="1092" y="1022" on="1"/>
        <pt x="1092" y="463" on="1"/>
        <pt x="1092" y="238" on="0"/>
        <pt x="846" y="-16" on="0"/>
        <pt x="412" y="-16" on="0"/>
        <pt x="168" y="238" on="0"/>
      </contour>
      <contour>
        <pt x="551" y="1155" on="1"/>
        <pt x="678" y="1395" on="1"/>
        <pt x="879" y="1395" on="1"/>
        <pt x="688" y="1155" on="1"/>
      </contour>
    </TTGlyph>
    <TTGlyph name="ucircumflex" xMin="168" yMin="-16" xMax="1092" yMax="1405">
      <contour>
        <pt x="168" y="463" on="1"/>
        <pt x="168" y="1022" on="1"/>
        <pt x="416" y="1022" on="1"/>
        <pt x="416" y="430" on="1"/>
        <pt x="416" y="307" on="0"/>
        <pt x="516" y="199" on="0"/>
        <pt x="629" y="199" on="1"/>
        <pt x="744" y="199" on="0"/>
        <pt x="844" y="307" on="0"/>
        <pt x="844" y="430" on="1"/>
        <pt x="844" y="1022" on="1"/>
        <pt x="1092" y="1022" on="1"/>
        <pt x="1092" y="463" on="1"/>
        <pt x="1092" y="238" on="0"/>
        <pt x="846" y="-16" on="0"/>
        <pt x="412" y="-16" on="0"/>
        <pt x="168" y="238" on="0"/>
      </contour>
      <contour>
        <pt x="393" y="1155" on="1"/>
        <pt x="580" y="1405" on="1"/>
        <pt x="678" y="1405" on="1"/>
        <pt x="866" y="1155" on="1"/>
        <pt x="702" y="1155" on="1"/>
        <pt x="629" y="1270" on="1"/>
        <pt x="555" y="1155" on="1"/>
      </contour>
    </TTGlyph>
    <TTGlyph name="udieresis" xMin="168" yMin="-16" xMax="1092" yMax="1350">
      <contour>
        <pt x="168" y="463" on="1"/>
        <pt x="168" y="1022" on="1"/>
        <pt x="416" y="1022" on="1"/>
        <pt x="416" y="430" on="1"/>
        <pt x="416" y="307" on="0"/>
        <pt x="516" y="199" on="0"/>
        <pt x="629" y="199" on="1"/>
        <pt x="744" y="199" on="0"/>
        <pt x="844" y="307" on="0"/>
        <pt x="844" y="430" on="1"/>
        <pt x="844" y="1022" on="1"/>
        <pt x="1092" y="1022" on="1"/>
        <pt x="1092" y="463" on="1"/>
        <pt x="1092" y="238" on="0"/>
        <pt x="846" y="-16" on="0"/>
        <pt x="412" y="-16" on="0"/>
        <pt x="168" y="238" on="0"/>
      </contour>
      <contour>
        <pt x="362" y="1155" on="1"/>
        <pt x="362" y="1350" on="1"/>
        <pt x="569" y="1350" on="1"/>
        <pt x="569" y="1155" on="1"/>
      </contour>
      <contour>
        <pt x="690" y="1155" on="1"/>
        <pt x="690" y="1350" on="1"/>
        <pt x="897" y="1350" on="1"/>
        <pt x="897" y="1155" on="1"/>
      </contour>
    </TTGlyph>
    <TTGlyph name="ugrave" xMin="168" yMin="-16" xMax="1092" yMax="1395">
      <contour>
        <pt x="168" y="463" on="1"/>
        <pt x="168" y="1022" on="1"/>
        <pt x="416" y="1022" on="1"/>
        <pt x="416" y="430" on="1"/>
        <pt x="416" y="307" on="0"/>
        <pt x="516" y="199" on="0"/>
        <pt x="629" y="199" on="1"/>
        <pt x="744" y="199" on="0"/>
        <pt x="844" y="307" on="0"/>
        <pt x="844" y="430" on="1"/>
        <pt x="844" y="1022" on="1"/>
        <pt x="1092" y="1022" on="1"/>
        <pt x="1092" y="463" on="1"/>
        <pt x="1092" y="238" on="0"/>
        <pt x="846" y="-16" on="0"/>
        <pt x="412" y="-16" on="0"/>
        <pt x="168" y="238" on="0"/>
      </contour>
      <contour>
        <pt x="381" y="1395" on="1"/>
        <pt x="582" y="1395" on="1"/>
        <pt x="709" y="1155" on="1"/>
        <pt x="571" y="1155" on="1"/>
      </contour>
    </TTGlyph>
    <TTGlyph name="underscore" xMin="0" yMin="-190" xMax="1118" yMax="-49">
      <contour>
        <pt x="0" y="-49" on="1"/>
        <pt x="1118" y="-49" on="1"/>
        <pt x="1118" y="-190" on="1"/>
        <pt x="0" y="-190" on="1"/>
      </contour>
    </TTGlyph>
    <TTGlyph name="uni00B2" xMin="109" yMin="948" xMax="596" yMax="1694">
      <contour>
        <pt x="109" y="948" on="1"/>
        <pt x="109" y="1057" on="1"/>
        <pt x="234" y="1149" on="0"/>
        <pt x="453" y="1384" on="0"/>
        <pt x="453" y="1475" on="1"/>
        <pt x="453" y="1563" on="0"/>
        <pt x="324" y="1563" on="1"/>
        <pt x="205" y="1563" on="0"/>
        <pt x="115" y="1497" on="1"/>
        <pt x="115" y="1630" on="1"/>
        <pt x="221" y="1693" on="0"/>
        <pt x="328" y="1694" on="1"/>
        <pt x="459" y="1694" on="0"/>
        <pt x="584" y="1565" on="0"/>
        <pt x="584" y="1475" on="1"/>
        <pt x="584" y="1295" on="0"/>
        <pt x="330" y="1079" on="1"/>
        <pt x="596" y="1079" on="1"/>
        <pt x="596" y="948" on="1"/>
      </contour>
    </TTGlyph>
    <TTGlyph name="uni00B3" xMin="111" yMin="940" xMax="600" yMax="1694">
      <contour>
        <pt x="111" y="993" on="1"/>
        <pt x="111" y="1128" on="1"/>
        <pt x="207" y="1071" on="0"/>
        <pt x="311" y="1071" on="1"/>
        <pt x="469" y="1071" on="0"/>
        <pt x="469" y="1171" on="1"/>
        <pt x="469" y="1284" on="0"/>
        <pt x="307" y="1284" on="1"/>
        <pt x="213" y="1284" on="1"/>
        <pt x="213" y="1393" on="1"/>
        <pt x="311" y="1393" on="1"/>
        <pt x="372" y="1393" on="0"/>
        <pt x="432" y="1444" on="0"/>
        <pt x="432" y="1481" on="1"/>
        <pt x="432" y="1561" on="0"/>
        <pt x="303" y="1561" on="1"/>
        <pt x="203" y="1561" on="0"/>
        <pt x="127" y="1513" on="1"/>
        <pt x="127" y="1649" on="1"/>
        <pt x="225" y="1694" on="0"/>
        <pt x="311" y="1694" on="1"/>
        <pt x="420" y="1694" on="0"/>
        <pt x="565" y="1595" on="0"/>
        <pt x="565" y="1485" on="1"/>
        <pt x="565" y="1395" on="0"/>
        <pt x="475" y="1346" on="1"/>
        <pt x="600" y="1303" on="0"/>
        <pt x="600" y="1169" on="1"/>
        <pt x="600" y="1048" on="0"/>
        <pt x="430" y="940" on="0"/>
        <pt x="319" y="940" on="1"/>
        <pt x="210" y="940" on="0"/>
      </contour>
    </TTGlyph>
    <TTGlyph name="uni00B5" xMin="203" yMin="-430" xMax="1124" yMax="1022">
      <contour>
        <pt x="203" y="-430" on="1"/>
        <pt x="203" y="1022" on="1"/>
        <pt x="446" y="1022" on="1"/>
        <pt x="446" y="387" on="1"/>
        <pt x="446" y="346" on="0"/>
        <pt x="461" y="291" on="0"/>
        <pt x="506" y="231" on="0"/>
        <pt x="608" y="201" on="0"/>
        <pt x="688" y="201" on="1"/>
        <pt x="778" y="201" on="0"/>
        <pt x="879" y="219" on="1"/>
        <pt x="879" y="1022" on="1"/>
        <pt x="1124" y="1022" on="1"/>
        <pt x="1124" y="96" on="1"/>
        <pt x="901" y="-16" on="0"/>
        <pt x="659" y="-16" on="1"/>
        <pt x="657" y="-16" on="0"/>
        <pt x="655" y="-16" on="1"/>
        <pt x="528" y="-16" on="0"/>
        <pt x="446" y="35" on="1"/>
        <pt x="446" y="-430" on="1"/>
      </contour>
    </TTGlyph>
    <TTGlyph name="uni00B9" xMin="109" yMin="948" xMax="373" yMax="1683">
      <contour>
        <pt x="109" y="1452" on="1"/>
        <pt x="109" y="1593" on="1"/>
        <pt x="252" y="1683" on="1"/>
        <pt x="373" y="1683" on="1"/>
        <pt x="373" y="948" on="1"/>
        <pt x="240" y="948" on="1"/>
        <pt x="240" y="1534" on="1"/>
      </contour>
    </TTGlyph>
    <TTGlyph name="uniE000" xMin="0" yMin="0" xMax="1020" yMax="1020">
      <contour>
        <pt x="0" y="1020" on="1"/>
        <pt x="1020" y="1020" on="1"/>
        <pt x="1020" y="0" on="1"/>
        <pt x="0" y="0" on="1"/>
      </contour>
    </TTGlyph>
    <TTGlyph name="uniFB01" xMin="82" yMin="0" xMax="1202" yMax="1446">
      <contour>
        <pt x="82" y="811" on="1"/>
        <pt x="82" y="1022" on="1"/>
        <pt x="256" y="1022" on="1"/>
        <pt x="258" y="1446" on="0"/>
        <pt x="637" y="1446" on="1"/>
        <pt x="686" y="1446" on="0"/>
        <pt x="737" y="1436" on="1"/>
        <pt x="737" y="1243" on="1"/>
        <pt x="700" y="1247" on="0"/>
        <pt x="682" y="1247" on="1"/>
        <pt x="586" y="1247" on="0"/>
        <pt x="502" y="1155" on="0"/>
        <pt x="502" y="1022" on="1"/>
        <pt x="737" y="1022" on="1"/>
        <pt x="737" y="811" on="1"/>
        <pt x="502" y="811" on="1"/>
        <pt x="502" y="0" on="1"/>
        <pt x="256" y="0" on="1"/>
        <pt x="256" y="811" on="1"/>
      </contour>
      <contour>
        <pt x="950" y="1161" on="1"/>
        <pt x="1202" y="1161" on="1"/>
        <pt x="1202" y="1386" on="1"/>
        <pt x="950" y="1386" on="1"/>
      </contour>
      <contour>
        <pt x="954" y="0" on="1"/>
        <pt x="1200" y="0" on="1"/>
        <pt x="1200" y="1022" on="1"/>
        <pt x="954" y="1022" on="1"/>
      </contour>
    </TTGlyph>
    <TTGlyph name="uniFB02" xMin="82" yMin="0" xMax="1204" yMax="1446">
      <contour>
        <pt x="82" y="811" on="1"/>
        <pt x="82" y="1022" on="1"/>
        <pt x="256" y="1022" on="1"/>
        <pt x="258" y="1446" on="0"/>
        <pt x="637" y="1446" on="1"/>
        <pt x="686" y="1446" on="0"/>
        <pt x="737" y="1436" on="1"/>
        <pt x="737" y="1243" on="1"/>
        <pt x="700" y="1247" on="0"/>
        <pt x="682" y="1247" on="1"/>
        <pt x="586" y="1247" on="0"/>
        <pt x="502" y="1155" on="0"/>
        <pt x="502" y="1022" on="1"/>
        <pt x="737" y="1022" on="1"/>
        <pt x="737" y="811" on="1"/>
        <pt x="502" y="811" on="1"/>
        <pt x="502" y="0" on="1"/>
        <pt x="256" y="0" on="1"/>
        <pt x="256" y="811" on="1"/>
      </contour>
      <contour>
        <pt x="958" y="0" on="1"/>
        <pt x="1204" y="0" on="1"/>
        <pt x="1204" y="1411" on="1"/>
        <pt x="958" y="1411" on="1"/>
      </contour>
    </TTGlyph>
    <TTGlyph name="uniFB03" xMin="82" yMin="0" xMax="1906" yMax="1446">
      <component glyphName="i" x="1462" y="0" flags="0x1004"/>
      <component glyphName="f" x="731" y="0" flags="0x1004"/>
      <component glyphName="f" x="0" y="0" flags="0x1004"/>
    </TTGlyph>
    <TTGlyph name="uniFB04" xMin="82" yMin="0" xMax="1915" yMax="1446">
      <component glyphName="l" x="1462" y="0" flags="0x1004"/>
      <component glyphName="f" x="731" y="0" flags="0x1004"/>
      <component glyphName="f" x="0" y="0" flags="0x1004"/>
    </TTGlyph>
    <TTGlyph name="v" xMin="66" yMin="0" xMax="1104" yMax="1022">
      <contour>
        <pt x="66" y="1022" on="1"/>
        <pt x="328" y="1022" on="1"/>
        <pt x="584" y="250" on="1"/>
        <pt x="840" y="1022" on="1"/>
        <pt x="1104" y="1022" on="1"/>
        <pt x="713" y="0" on="1"/>
        <pt x="457" y="0" on="1"/>
      </contour>
    </TTGlyph>
</ttFont>
